{
.appVersion = "895";
copyright = "Copyright (c) 2015, Cadson Demak (info@cadsondemak.com), Copyright (c) 2010, Pablo Impallari (www.impallari.com|impallari@gmail.com), Copyright (c) 2010, 2011, Alexei Vanyashin (www.cyreal.org|a@cyreal.org), with Reserved Font Name Lobster.";
customParameters = (
{
name = license;
value = "This Font Software is licensed under the SIL Open Font License, Version 1.1. This license is available with a FAQ at: http://scripts.sil.org/OFL";
},
{
name = licenseURL;
value = "http://scripts.sil.org/OFL";
},
{
name = vendorID;
value = "    ";
},
{
name = fsType;
value = (
);
}
);
date = "2016-05-31 16:21:45 +0000";
designer = "Latin by Pablo Impallari, Thai by Thanarat Vachiruckul and Suppakit Chalermlarp";
designerURL = "www.impallari.com  www.katatrad.com";
familyName = Pattaya;
featurePrefixes = (
{
code = "languagesystem DFLT dflt;\012languagesystem latn dflt;\012languagesystem thai dflt;\012languagesystem latn CAT;\012languagesystem latn ROM;\012languagesystem latn MOL;\012languagesystem latn KAZ;\012languagesystem latn TAT;\012languagesystem latn TRK;\012languagesystem latn CRT;\012languagesystem latn AZE;\012";
name = Languagesystems;
}
);
features = (
{
code = "feature ccmp;\012feature locl;\012feature subs;\012feature sups;\012feature frac;\012feature ordn;\012feature init;\012";
name = aalt;
},
{

glyphs = (
{
glyphname = A;
lastChange = "2015-07-03 17:18:40 +0000";
layers = (
{
layerId = "C17AF255-02ED-42AD-B705-02996A84AD46";
paths = (
{
closed = 1;
nodes = (
"431 -214 OFFCURVE",
"418 -184 OFFCURVE",
"418 -119 CURVE SMOOTH",
"418 -12 OFFCURVE",
"446 138 OFFCURVE",
"494 304 CURVE SMOOTH",
"541 470 OFFCURVE",
"607 650 OFFCURVE",
"684 817 CURVE",
"773 809 OFFCURVE",
"854 791 OFFCURVE",
"958 743 CURVE",
"801 0 LINE",
"1096 0 LINE",
"1417 1507 LINE",
"1368 1530 OFFCURVE",
"1303 1536 OFFCURVE",
"1255 1536 CURVE SMOOTH",
"1135 1536 OFFCURVE",
"1010 1467 OFFCURVE",
"887 1357 CURVE SMOOTH",
"764 1247 OFFCURVE",
"647 1096 OFFCURVE",
"543 932 CURVE",
"500 936 OFFCURVE",
"464 938 OFFCURVE",
"436 938 CURVE SMOOTH",
"316 938 OFFCURVE",
"212 909 OFFCURVE",
"137 864 CURVE SMOOTH",
"62 819 OFFCURVE",
"18 755 OFFCURVE",
"18 686 CURVE SMOOTH",
"18 646 OFFCURVE",
"32 616 OFFCURVE",
"55 597 CURVE SMOOTH",
"78 577 OFFCURVE",
"109 567 OFFCURVE",
"145 567 CURVE SMOOTH",
"209 567 OFFCURVE",
"260 598 OFFCURVE",
"260 647 CURVE SMOOTH",
"260 678 OFFCURVE",
"244 711 OFFCURVE",
"233 711 CURVE",
"260 782 OFFCURVE",
"344 809 OFFCURVE",
"473 817 CURVE",
"382 661 OFFCURVE",
"308 498 OFFCURVE",
"255 352 CURVE SMOOTH",
"202 206 OFFCURVE",
"172 75 OFFCURVE",
"172 -16 CURVE SMOOTH",
"172 -123 OFFCURVE",
"213 -177 OFFCURVE",
"269 -204 CURVE SMOOTH",
"324 -232 OFFCURVE",
"391 -233 OFFCURVE",
"446 -233 CURVE"
);
},
{
closed = 1;
nodes = (
"897 866 OFFCURVE",
"810 889 OFFCURVE",
"727 905 CURVE",
"784 1020 OFFCURVE",
"847 1125 OFFCURVE",
"909 1210 CURVE SMOOTH",
"971 1294 OFFCURVE",
"1035 1358 OFFCURVE",
"1096 1391 CURVE",
"977 834 LINE"
);
}
);
width = 1368;
}
);
note = A;
unicode = 0041;
},
{
glyphname = Aacute;
lastChange = "2015-07-03 17:18:41 +0000";
layers = (
{
layerId = "C17AF255-02ED-42AD-B705-02996A84AD46";
paths = (
{
closed = 1;
nodes = (
"431 -214 OFFCURVE",
"418 -184 OFFCURVE",
"418 -119 CURVE SMOOTH",
"418 -12 OFFCURVE",
"446 138 OFFCURVE",
"494 304 CURVE SMOOTH",
"541 470 OFFCURVE",
"607 650 OFFCURVE",
"684 817 CURVE",
"773 809 OFFCURVE",
"854 791 OFFCURVE",
"958 743 CURVE",
"801 0 LINE",
"1096 0 LINE",
"1417 1507 LINE",
"1368 1530 OFFCURVE",
"1303 1536 OFFCURVE",
"1255 1536 CURVE SMOOTH",
"1135 1536 OFFCURVE",
"1010 1467 OFFCURVE",
"887 1357 CURVE SMOOTH",
"764 1247 OFFCURVE",
"647 1096 OFFCURVE",
"543 932 CURVE",
"500 936 OFFCURVE",
"464 938 OFFCURVE",
"436 938 CURVE SMOOTH",
"316 938 OFFCURVE",
"212 909 OFFCURVE",
"137 864 CURVE SMOOTH",
"62 819 OFFCURVE",
"18 755 OFFCURVE",
"18 686 CURVE SMOOTH",
"18 646 OFFCURVE",
"32 616 OFFCURVE",
"55 597 CURVE SMOOTH",
"78 577 OFFCURVE",
"109 567 OFFCURVE",
"145 567 CURVE SMOOTH",
"209 567 OFFCURVE",
"260 598 OFFCURVE",
"260 647 CURVE SMOOTH",
"260 678 OFFCURVE",
"244 711 OFFCURVE",
"233 711 CURVE",
"260 782 OFFCURVE",
"344 809 OFFCURVE",
"473 817 CURVE",
"382 661 OFFCURVE",
"308 498 OFFCURVE",
"255 352 CURVE SMOOTH",
"202 206 OFFCURVE",
"172 75 OFFCURVE",
"172 -16 CURVE SMOOTH",
"172 -123 OFFCURVE",
"213 -177 OFFCURVE",
"269 -204 CURVE SMOOTH",
"324 -232 OFFCURVE",
"391 -233 OFFCURVE",
"446 -233 CURVE"
);
},
{
closed = 1;
nodes = (
"897 866 OFFCURVE",
"810 889 OFFCURVE",
"727 905 CURVE",
"784 1020 OFFCURVE",
"847 1125 OFFCURVE",
"909 1210 CURVE SMOOTH",
"971 1294 OFFCURVE",
"1035 1358 OFFCURVE",
"1096 1391 CURVE",
"977 834 LINE"
);
},
{
closed = 1;
nodes = (
"1329 1661 LINE",
"1577 2048 LINE",
"1362 2048 LINE",
"1175 1661 LINE"
);
}
);
width = 1368;
}
);
note = Aacute;
unicode = 00C1;
},
{
glyphname = Abreve;
lastChange = "2015-07-03 17:18:42 +0000";
layers = (
{
layerId = "C17AF255-02ED-42AD-B705-02996A84AD46";
paths = (
{
closed = 1;
nodes = (
"431 -214 OFFCURVE",
"418 -184 OFFCURVE",
"418 -119 CURVE SMOOTH",
"418 -12 OFFCURVE",
"446 138 OFFCURVE",
"494 304 CURVE SMOOTH",
"541 470 OFFCURVE",
"607 650 OFFCURVE",
"684 817 CURVE",
"773 809 OFFCURVE",
"854 791 OFFCURVE",
"958 743 CURVE",
"801 0 LINE",
"1096 0 LINE",
"1417 1507 LINE",
"1368 1530 OFFCURVE",
"1303 1536 OFFCURVE",
"1255 1536 CURVE SMOOTH",
"1135 1536 OFFCURVE",
"1010 1467 OFFCURVE",
"887 1357 CURVE SMOOTH",
"764 1247 OFFCURVE",
"647 1096 OFFCURVE",
"543 932 CURVE",
"500 936 OFFCURVE",
"464 938 OFFCURVE",
"436 938 CURVE SMOOTH",
"316 938 OFFCURVE",
"212 909 OFFCURVE",
"137 864 CURVE SMOOTH",
"62 819 OFFCURVE",
"18 755 OFFCURVE",
"18 686 CURVE SMOOTH",
"18 646 OFFCURVE",
"32 616 OFFCURVE",
"55 597 CURVE SMOOTH",
"78 577 OFFCURVE",
"109 567 OFFCURVE",
"145 567 CURVE SMOOTH",
"209 567 OFFCURVE",
"260 598 OFFCURVE",
"260 647 CURVE SMOOTH",
"260 678 OFFCURVE",
"244 711 OFFCURVE",
"233 711 CURVE",
"260 782 OFFCURVE",
"344 809 OFFCURVE",
"473 817 CURVE",
"382 661 OFFCURVE",
"308 498 OFFCURVE",
"255 352 CURVE SMOOTH",
"202 206 OFFCURVE",
"172 75 OFFCURVE",
"172 -16 CURVE SMOOTH",
"172 -123 OFFCURVE",
"213 -177 OFFCURVE",
"269 -204 CURVE SMOOTH",
"324 -232 OFFCURVE",
"391 -233 OFFCURVE",
"446 -233 CURVE"
);
},
{
closed = 1;
nodes = (
"897 866 OFFCURVE",
"810 889 OFFCURVE",
"727 905 CURVE",
"784 1020 OFFCURVE",
"847 1125 OFFCURVE",
"909 1210 CURVE SMOOTH",
"971 1294 OFFCURVE",
"1035 1358 OFFCURVE",
"1096 1391 CURVE",
"977 834 LINE"
);
},
{
closed = 1;
nodes = (
"1368 1670 OFFCURVE",
"1470 1700 OFFCURVE",
"1547 1752 CURVE SMOOTH",
"1624 1803 OFFCURVE",
"1677 1873 OFFCURVE",
"1689 1953 CURVE",
"1513 1953 LINE",
"1506 1906 OFFCURVE",
"1479 1864 OFFCURVE",
"1439 1833 CURVE SMOOTH",
"1398 1802 OFFCURVE",
"1345 1783 OFFCURVE",
"1289 1783 CURVE SMOOTH",
"1186 1783 OFFCURVE",
"1128 1844 OFFCURVE",
"1128 1953 CURVE",
"945 1953 LINE",
"945 1766 OFFCURVE",
"1053 1670 OFFCURVE",
"1257 1670 CURVE SMOOTH"
);
}
);
width = 1368;
}
);
note = Abreve;
unicode = 0102;
},
{
glyphname = Abreveacute;
lastChange = "2015-07-03 17:18:41 +0000";
layers = (
{
layerId = "C17AF255-02ED-42AD-B705-02996A84AD46";
paths = (
{
closed = 1;
nodes = (
"431 -214 OFFCURVE",
"418 -184 OFFCURVE",
"418 -119 CURVE SMOOTH",
"418 -12 OFFCURVE",
"446 138 OFFCURVE",
"494 304 CURVE SMOOTH",
"541 470 OFFCURVE",
"607 650 OFFCURVE",
"684 817 CURVE",
"773 809 OFFCURVE",
"854 791 OFFCURVE",
"958 743 CURVE",
"801 0 LINE",
"1096 0 LINE",
"1417 1507 LINE",
"1368 1530 OFFCURVE",
"1303 1536 OFFCURVE",
"1255 1536 CURVE SMOOTH",
"1135 1536 OFFCURVE",
"1010 1467 OFFCURVE",
"887 1357 CURVE SMOOTH",
"764 1247 OFFCURVE",
"647 1096 OFFCURVE",
"543 932 CURVE",
"500 936 OFFCURVE",
"464 938 OFFCURVE",
"436 938 CURVE SMOOTH",
"316 938 OFFCURVE",
"212 909 OFFCURVE",
"137 864 CURVE SMOOTH",
"62 819 OFFCURVE",
"18 755 OFFCURVE",
"18 686 CURVE SMOOTH",
"18 646 OFFCURVE",
"32 616 OFFCURVE",
"55 597 CURVE SMOOTH",
"78 577 OFFCURVE",
"109 567 OFFCURVE",
"145 567 CURVE SMOOTH",
"209 567 OFFCURVE",
"260 598 OFFCURVE",
"260 647 CURVE SMOOTH",
"260 678 OFFCURVE",
"244 711 OFFCURVE",
"233 711 CURVE",
"260 782 OFFCURVE",
"344 809 OFFCURVE",
"473 817 CURVE",
"382 661 OFFCURVE",
"308 498 OFFCURVE",
"255 352 CURVE SMOOTH",
"202 206 OFFCURVE",
"172 75 OFFCURVE",
"172 -16 CURVE SMOOTH",
"172 -123 OFFCURVE",
"213 -177 OFFCURVE",
"269 -204 CURVE SMOOTH",
"324 -232 OFFCURVE",
"391 -233 OFFCURVE",
"446 -233 CURVE"
);
},
{
closed = 1;
nodes = (
"897 866 OFFCURVE",
"810 889 OFFCURVE",
"727 905 CURVE",
"784 1020 OFFCURVE",
"847 1125 OFFCURVE",
"909 1210 CURVE SMOOTH",
"971 1294 OFFCURVE",
"1035 1358 OFFCURVE",
"1096 1391 CURVE",
"977 834 LINE"
);
},
{
closed = 1;
nodes = (
"1367 1603 OFFCURVE",
"1453 1628 OFFCURVE",
"1518 1671 CURVE SMOOTH",
"1583 1714 OFFCURVE",
"1628 1773 OFFCURVE",
"1637 1840 CURVE",
"1490 1840 LINE",
"1485 1800 OFFCURVE",
"1461 1766 OFFCURVE",
"1427 1740 CURVE SMOOTH",
"1393 1714 OFFCURVE",
"1349 1698 OFFCURVE",
"1301 1698 CURVE SMOOTH",
"1216 1698 OFFCURVE",
"1166 1748 OFFCURVE",
"1166 1840 CURVE",
"1013 1840 LINE",
"1013 1684 OFFCURVE",
"1103 1603 OFFCURVE",
"1275 1603 CURVE SMOOTH"
);
},
{
closed = 1;
nodes = (
"1363 1774 LINE",
"1541 2048 LINE",
"1380 2048 LINE",
"1253 1774 LINE"
);
}
);
width = 1368;
}
);
note = Abreveacute;
unicode = 1EAE;
},
{
glyphname = Abrevedotbelow;
lastChange = "2015-07-03 17:18:39 +0000";
layers = (
{
layerId = "C17AF255-02ED-42AD-B705-02996A84AD46";
paths = (
{
closed = 1;
nodes = (
"431 -214 OFFCURVE",
"418 -184 OFFCURVE",
"418 -119 CURVE SMOOTH",
"418 -12 OFFCURVE",
"446 138 OFFCURVE",
"494 304 CURVE SMOOTH",
"541 470 OFFCURVE",
"607 650 OFFCURVE",
"684 817 CURVE",
"773 809 OFFCURVE",
"854 791 OFFCURVE",
"958 743 CURVE",
"801 0 LINE",
"1096 0 LINE",
"1417 1507 LINE",
"1368 1530 OFFCURVE",
"1303 1536 OFFCURVE",
"1255 1536 CURVE SMOOTH",
"1135 1536 OFFCURVE",
"1010 1467 OFFCURVE",
"887 1357 CURVE SMOOTH",
"764 1247 OFFCURVE",
"647 1096 OFFCURVE",
"543 932 CURVE",
"500 936 OFFCURVE",
"464 938 OFFCURVE",
"436 938 CURVE SMOOTH",
"316 938 OFFCURVE",
"212 909 OFFCURVE",
"137 864 CURVE SMOOTH",
"62 819 OFFCURVE",
"18 755 OFFCURVE",
"18 686 CURVE SMOOTH",
"18 646 OFFCURVE",
"32 616 OFFCURVE",
"55 597 CURVE SMOOTH",
"78 577 OFFCURVE",
"109 567 OFFCURVE",
"145 567 CURVE SMOOTH",
"209 567 OFFCURVE",
"260 598 OFFCURVE",
"260 647 CURVE SMOOTH",
"260 678 OFFCURVE",
"244 711 OFFCURVE",
"233 711 CURVE",
"260 782 OFFCURVE",
"344 809 OFFCURVE",
"473 817 CURVE",
"382 661 OFFCURVE",
"308 498 OFFCURVE",
"255 352 CURVE SMOOTH",
"202 206 OFFCURVE",
"172 75 OFFCURVE",
"172 -16 CURVE SMOOTH",
"172 -123 OFFCURVE",
"213 -177 OFFCURVE",
"269 -204 CURVE SMOOTH",
"324 -232 OFFCURVE",
"391 -233 OFFCURVE",
"446 -233 CURVE"
);
},
{
closed = 1;
nodes = (
"808 -473 OFFCURVE",
"849 -455 OFFCURVE",
"879 -426 CURVE SMOOTH",
"909 -397 OFFCURVE",
"927 -356 OFFCURVE",
"927 -311 CURVE SMOOTH",
"927 -266 OFFCURVE",
"909 -225 OFFCURVE",
"879 -195 CURVE SMOOTH",
"849 -165 OFFCURVE",
"808 -147 OFFCURVE",
"763 -147 CURVE SMOOTH",
"718 -147 OFFCURVE",
"677 -165 OFFCURVE",
"648 -195 CURVE SMOOTH",
"619 -225 OFFCURVE",
"601 -266 OFFCURVE",
"601 -311 CURVE SMOOTH",
"601 -356 OFFCURVE",
"619 -397 OFFCURVE",
"648 -426 CURVE SMOOTH",
"677 -455 OFFCURVE",
"718 -473 OFFCURVE",
"763 -473 CURVE SMOOTH"
);
},
{
closed = 1;
nodes = (
"897 866 OFFCURVE",
"810 889 OFFCURVE",
"727 905 CURVE",
"784 1020 OFFCURVE",
"847 1125 OFFCURVE",
"909 1210 CURVE SMOOTH",
"971 1294 OFFCURVE",
"1035 1358 OFFCURVE",
"1096 1391 CURVE",
"977 834 LINE"
);
},
{
closed = 1;
nodes = (
"1368 1670 OFFCURVE",
"1470 1700 OFFCURVE",
"1547 1752 CURVE SMOOTH",
"1624 1803 OFFCURVE",
"1677 1873 OFFCURVE",
"1689 1953 CURVE",
"1513 1953 LINE",
"1506 1906 OFFCURVE",
"1479 1864 OFFCURVE",
"1439 1833 CURVE SMOOTH",
"1398 1802 OFFCURVE",
"1345 1783 OFFCURVE",
"1289 1783 CURVE SMOOTH",
"1186 1783 OFFCURVE",
"1128 1844 OFFCURVE",
"1128 1953 CURVE",
"945 1953 LINE",
"945 1766 OFFCURVE",
"1053 1670 OFFCURVE",
"1257 1670 CURVE SMOOTH"
);
}
);
width = 1368;
}
);
note = Abrevedotbelow;
unicode = 1EB6;
},
{
glyphname = Abrevegrave;
lastChange = "2015-07-03 17:18:42 +0000";
layers = (
{
layerId = "C17AF255-02ED-42AD-B705-02996A84AD46";
paths = (
{
closed = 1;
nodes = (
"431 -214 OFFCURVE",
"418 -184 OFFCURVE",
"418 -119 CURVE SMOOTH",
"418 -12 OFFCURVE",
"446 138 OFFCURVE",
"494 304 CURVE SMOOTH",
"541 470 OFFCURVE",
"607 650 OFFCURVE",
"684 817 CURVE",
"773 809 OFFCURVE",
"854 791 OFFCURVE",
"958 743 CURVE",
"801 0 LINE",
"1096 0 LINE",
"1417 1507 LINE",
"1368 1530 OFFCURVE",
"1303 1536 OFFCURVE",
"1255 1536 CURVE SMOOTH",
"1135 1536 OFFCURVE",
"1010 1467 OFFCURVE",
"887 1357 CURVE SMOOTH",
"764 1247 OFFCURVE",
"647 1096 OFFCURVE",
"543 932 CURVE",
"500 936 OFFCURVE",
"464 938 OFFCURVE",
"436 938 CURVE SMOOTH",
"316 938 OFFCURVE",
"212 909 OFFCURVE",
"137 864 CURVE SMOOTH",
"62 819 OFFCURVE",
"18 755 OFFCURVE",
"18 686 CURVE SMOOTH",
"18 646 OFFCURVE",
"32 616 OFFCURVE",
"55 597 CURVE SMOOTH",
"78 577 OFFCURVE",
"109 567 OFFCURVE",
"145 567 CURVE SMOOTH",
"209 567 OFFCURVE",
"260 598 OFFCURVE",
"260 647 CURVE SMOOTH",
"260 678 OFFCURVE",
"244 711 OFFCURVE",
"233 711 CURVE",
"260 782 OFFCURVE",
"344 809 OFFCURVE",
"473 817 CURVE",
"382 661 OFFCURVE",
"308 498 OFFCURVE",
"255 352 CURVE SMOOTH",
"202 206 OFFCURVE",
"172 75 OFFCURVE",
"172 -16 CURVE SMOOTH",
"172 -123 OFFCURVE",
"213 -177 OFFCURVE",
"269 -204 CURVE SMOOTH",
"324 -232 OFFCURVE",
"391 -233 OFFCURVE",
"446 -233 CURVE"
);
},
{
closed = 1;
nodes = (
"897 866 OFFCURVE",
"810 889 OFFCURVE",
"727 905 CURVE",
"784 1020 OFFCURVE",
"847 1125 OFFCURVE",
"909 1210 CURVE SMOOTH",
"971 1294 OFFCURVE",
"1035 1358 OFFCURVE",
"1096 1391 CURVE",
"977 834 LINE"
);
},
{
closed = 1;
nodes = (
"1367 1603 OFFCURVE",
"1453 1628 OFFCURVE",
"1518 1671 CURVE SMOOTH",
"1583 1714 OFFCURVE",
"1628 1773 OFFCURVE",
"1637 1840 CURVE",
"1490 1840 LINE",
"1485 1800 OFFCURVE",
"1461 1766 OFFCURVE",
"1427 1740 CURVE SMOOTH",
"1393 1714 OFFCURVE",
"1349 1698 OFFCURVE",
"1301 1698 CURVE SMOOTH",
"1216 1698 OFFCURVE",
"1166 1748 OFFCURVE",
"1166 1840 CURVE",
"1013 1840 LINE",
"1013 1684 OFFCURVE",
"1103 1603 OFFCURVE",
"1275 1603 CURVE SMOOTH"
);
},
{
closed = 1;
nodes = (
"1386 1772 LINE",
"1347 2047 LINE",
"1182 2047 LINE",
"1274 1772 LINE"
);
}
);
width = 1368;
}
);
note = Abrevegrave;
unicode = 1EB0;
},
{
glyphname = Abrevehookabove;
lastChange = "2015-07-03 17:18:40 +0000";
layers = (
{
layerId = "C17AF255-02ED-42AD-B705-02996A84AD46";
paths = (
{
closed = 1;
nodes = (
"431 -214 OFFCURVE",
"418 -184 OFFCURVE",
"418 -119 CURVE SMOOTH",
"418 -12 OFFCURVE",
"446 138 OFFCURVE",
"494 304 CURVE SMOOTH",
"541 470 OFFCURVE",
"607 650 OFFCURVE",
"684 817 CURVE",
"773 809 OFFCURVE",
"854 791 OFFCURVE",
"958 743 CURVE",
"801 0 LINE",
"1096 0 LINE",
"1417 1507 LINE",
"1368 1530 OFFCURVE",
"1303 1536 OFFCURVE",
"1255 1536 CURVE SMOOTH",
"1135 1536 OFFCURVE",
"1010 1467 OFFCURVE",
"887 1357 CURVE SMOOTH",
"764 1247 OFFCURVE",
"647 1096 OFFCURVE",
"543 932 CURVE",
"500 936 OFFCURVE",
"464 938 OFFCURVE",
"436 938 CURVE SMOOTH",
"316 938 OFFCURVE",
"212 909 OFFCURVE",
"137 864 CURVE SMOOTH",
"62 819 OFFCURVE",
"18 755 OFFCURVE",
"18 686 CURVE SMOOTH",
"18 646 OFFCURVE",
"32 616 OFFCURVE",
"55 597 CURVE SMOOTH",
"78 577 OFFCURVE",
"109 567 OFFCURVE",
"145 567 CURVE SMOOTH",
"209 567 OFFCURVE",
"260 598 OFFCURVE",
"260 647 CURVE SMOOTH",
"260 678 OFFCURVE",
"244 711 OFFCURVE",
"233 711 CURVE",
"260 782 OFFCURVE",
"344 809 OFFCURVE",
"473 817 CURVE",
"382 661 OFFCURVE",
"308 498 OFFCURVE",
"255 352 CURVE SMOOTH",
"202 206 OFFCURVE",
"172 75 OFFCURVE",
"172 -16 CURVE SMOOTH",
"172 -123 OFFCURVE",
"213 -177 OFFCURVE",
"269 -204 CURVE SMOOTH",
"324 -232 OFFCURVE",
"391 -233 OFFCURVE",
"446 -233 CURVE"
);
},
{
closed = 1;
nodes = (
"897 866 OFFCURVE",
"810 889 OFFCURVE",
"727 905 CURVE",
"784 1020 OFFCURVE",
"847 1125 OFFCURVE",
"909 1210 CURVE SMOOTH",
"971 1294 OFFCURVE",
"1035 1358 OFFCURVE",
"1096 1391 CURVE",
"977 834 LINE"
);
},
{
closed = 1;
nodes = (
"1367 1603 OFFCURVE",
"1453 1628 OFFCURVE",
"1518 1671 CURVE SMOOTH",
"1583 1714 OFFCURVE",
"1628 1773 OFFCURVE",
"1637 1840 CURVE",
"1520 1840 LINE",
"1515 1800 OFFCURVE",
"1483 1766 OFFCURVE",
"1442 1740 CURVE SMOOTH",
"1401 1714 OFFCURVE",
"1349 1698 OFFCURVE",
"1301 1698 CURVE SMOOTH",
"1258 1698 OFFCURVE",
"1218 1711 OFFCURVE",
"1187 1735 CURVE SMOOTH",
"1156 1759 OFFCURVE",
"1136 1795 OFFCURVE",
"1136 1840 CURVE",
"1013 1840 LINE",
"1013 1684 OFFCURVE",
"1103 1603 OFFCURVE",
"1275 1603 CURVE SMOOTH"
);
},
{
closed = 1;
nodes = (
"1324 1808 LINE",
"1417 1815 OFFCURVE",
"1479 1865 OFFCURVE",
"1479 1933 CURVE SMOOTH",
"1479 2001 OFFCURVE",
"1417 2048 OFFCURVE",
"1328 2048 CURVE SMOOTH",
"1277 2048 OFFCURVE",
"1222 2033 OFFCURVE",
"1190 2012 CURVE",
"1227 1953 LINE",
"1252 1968 OFFCURVE",
"1280 1976 OFFCURVE",
"1313 1976 CURVE SMOOTH",
"1358 1976 OFFCURVE",
"1381 1959 OFFCURVE",
"1381 1925 CURVE SMOOTH",
"1381 1888 OFFCURVE",
"1358 1870 OFFCURVE",
"1313 1870 CURVE SMOOTH",
"1296 1870 OFFCURVE",
"1272 1872 OFFCURVE",
"1249 1879 CURVE",
"1249 1753 LINE",
"1318 1749 LINE"
);
}
);
width = 1368;
}
);
note = Abrevehookabove;
unicode = 1EB2;
},
{
glyphname = Abrevetilde;
lastChange = "2015-07-03 17:18:39 +0000";
layers = (
{
layerId = "C17AF255-02ED-42AD-B705-02996A84AD46";
paths = (
{
closed = 1;
nodes = (
"431 -214 OFFCURVE",
"418 -184 OFFCURVE",
"418 -119 CURVE SMOOTH",
"418 -12 OFFCURVE",
"446 138 OFFCURVE",
"494 304 CURVE SMOOTH",
"541 470 OFFCURVE",
"607 650 OFFCURVE",
"684 817 CURVE",
"773 809 OFFCURVE",
"854 791 OFFCURVE",
"958 743 CURVE",
"801 0 LINE",
"1096 0 LINE",
"1417 1507 LINE",
"1368 1530 OFFCURVE",
"1303 1536 OFFCURVE",
"1255 1536 CURVE SMOOTH",
"1135 1536 OFFCURVE",
"1010 1467 OFFCURVE",
"887 1357 CURVE SMOOTH",
"764 1247 OFFCURVE",
"647 1096 OFFCURVE",
"543 932 CURVE",
"500 936 OFFCURVE",
"464 938 OFFCURVE",
"436 938 CURVE SMOOTH",
"316 938 OFFCURVE",
"212 909 OFFCURVE",
"137 864 CURVE SMOOTH",
"62 819 OFFCURVE",
"18 755 OFFCURVE",
"18 686 CURVE SMOOTH",
"18 646 OFFCURVE",
"32 616 OFFCURVE",
"55 597 CURVE SMOOTH",
"78 577 OFFCURVE",
"109 567 OFFCURVE",
"145 567 CURVE SMOOTH",
"209 567 OFFCURVE",
"260 598 OFFCURVE",
"260 647 CURVE SMOOTH",
"260 678 OFFCURVE",
"244 711 OFFCURVE",
"233 711 CURVE",
"260 782 OFFCURVE",
"344 809 OFFCURVE",
"473 817 CURVE",
"382 661 OFFCURVE",
"308 498 OFFCURVE",
"255 352 CURVE SMOOTH",
"202 206 OFFCURVE",
"172 75 OFFCURVE",
"172 -16 CURVE SMOOTH",
"172 -123 OFFCURVE",
"213 -177 OFFCURVE",
"269 -204 CURVE SMOOTH",
"324 -232 OFFCURVE",
"391 -233 OFFCURVE",
"446 -233 CURVE"
);
},
{
closed = 1;
nodes = (
"897 866 OFFCURVE",
"810 889 OFFCURVE",
"727 905 CURVE",
"784 1020 OFFCURVE",
"847 1125 OFFCURVE",
"909 1210 CURVE SMOOTH",
"971 1294 OFFCURVE",
"1035 1358 OFFCURVE",
"1096 1391 CURVE",
"977 834 LINE"
);
},
{
closed = 1;
nodes = (
"1367 1603 OFFCURVE",
"1453 1628 OFFCURVE",
"1518 1671 CURVE SMOOTH",
"1583 1714 OFFCURVE",
"1628 1773 OFFCURVE",
"1637 1840 CURVE",
"1490 1840 LINE",
"1485 1800 OFFCURVE",
"1461 1766 OFFCURVE",
"1427 1740 CURVE SMOOTH",
"1393 1714 OFFCURVE",
"1349 1698 OFFCURVE",
"1301 1698 CURVE SMOOTH",
"1216 1698 OFFCURVE",
"1166 1748 OFFCURVE",
"1166 1840 CURVE",
"1013 1840 LINE",
"1013 1684 OFFCURVE",
"1103 1603 OFFCURVE",
"1275 1603 CURVE SMOOTH"
);
},
{
closed = 1;
nodes = (
"1457 1885 OFFCURVE",
"1511 1904 OFFCURVE",
"1555 1932 CURVE SMOOTH",
"1598 1960 OFFCURVE",
"1628 1997 OFFCURVE",
"1635 2030 CURVE",
"1626 2032 LINE",
"1605 2009 OFFCURVE",
"1572 1999 OFFCURVE",
"1536 1999 CURVE SMOOTH",
"1493 1999 OFFCURVE",
"1460 2011 OFFCURVE",
"1424 2023 CURVE SMOOTH",
"1388 2035 OFFCURVE",
"1349 2047 OFFCURVE",
"1297 2047 CURVE SMOOTH",
"1186 2047 OFFCURVE",
"1101 1997 OFFCURVE",
"1056 1905 CURVE",
"1065 1902 LINE",
"1092 1927 OFFCURVE",
"1123 1939 OFFCURVE",
"1159 1939 CURVE SMOOTH",
"1200 1939 OFFCURVE",
"1236 1925 OFFCURVE",
"1275 1912 CURVE SMOOTH",
"1314 1899 OFFCURVE",
"1354 1885 OFFCURVE",
"1402 1885 CURVE SMOOTH"
);
}
);
width = 1368;
}
);
note = Abrevetilde;
unicode = 1EB4;
},
{
glyphname = Acaron;
lastChange = "2015-07-03 17:18:38 +0000";
layers = (
{
layerId = "C17AF255-02ED-42AD-B705-02996A84AD46";
paths = (
{
closed = 1;
nodes = (
"431 -214 OFFCURVE",
"418 -184 OFFCURVE",
"418 -119 CURVE SMOOTH",
"418 -12 OFFCURVE",
"446 138 OFFCURVE",
"494 304 CURVE SMOOTH",
"541 470 OFFCURVE",
"607 650 OFFCURVE",
"684 817 CURVE",
"773 809 OFFCURVE",
"854 791 OFFCURVE",
"958 743 CURVE",
"801 0 LINE",
"1096 0 LINE",
"1417 1507 LINE",
"1368 1530 OFFCURVE",
"1303 1536 OFFCURVE",
"1255 1536 CURVE SMOOTH",
"1135 1536 OFFCURVE",
"1010 1467 OFFCURVE",
"887 1357 CURVE SMOOTH",
"764 1247 OFFCURVE",
"647 1096 OFFCURVE",
"543 932 CURVE",
"500 936 OFFCURVE",
"464 938 OFFCURVE",
"436 938 CURVE SMOOTH",
"316 938 OFFCURVE",
"212 909 OFFCURVE",
"137 864 CURVE SMOOTH",
"62 819 OFFCURVE",
"18 755 OFFCURVE",
"18 686 CURVE SMOOTH",
"18 646 OFFCURVE",
"32 616 OFFCURVE",
"55 597 CURVE SMOOTH",
"78 577 OFFCURVE",
"109 567 OFFCURVE",
"145 567 CURVE SMOOTH",
"209 567 OFFCURVE",
"260 598 OFFCURVE",
"260 647 CURVE SMOOTH",
"260 678 OFFCURVE",
"244 711 OFFCURVE",
"233 711 CURVE",
"260 782 OFFCURVE",
"344 809 OFFCURVE",
"473 817 CURVE",
"382 661 OFFCURVE",
"308 498 OFFCURVE",
"255 352 CURVE SMOOTH",
"202 206 OFFCURVE",
"172 75 OFFCURVE",
"172 -16 CURVE SMOOTH",
"172 -123 OFFCURVE",
"213 -177 OFFCURVE",
"269 -204 CURVE SMOOTH",
"324 -232 OFFCURVE",
"391 -233 OFFCURVE",
"446 -233 CURVE"
);
},
{
closed = 1;
nodes = (
"897 866 OFFCURVE",
"810 889 OFFCURVE",
"727 905 CURVE",
"784 1020 OFFCURVE",
"847 1125 OFFCURVE",
"909 1210 CURVE SMOOTH",
"971 1294 OFFCURVE",
"1035 1358 OFFCURVE",
"1096 1391 CURVE",
"977 834 LINE"
);
},
{
closed = 1;
nodes = (
"1319 1661 LINE",
"1753 2048 LINE",
"1663 2048 LINE",
"1341 1884 LINE",
"1218 2048 LINE",
"1153 2048 LINE",
"1276 1661 LINE"
);
}
);
width = 1368;
}
);
note = Acaron;
unicode = 01CD;
},
{
glyphname = Acircumflex;
lastChange = "2015-07-03 17:18:40 +0000";
layers = (
{
layerId = "C17AF255-02ED-42AD-B705-02996A84AD46";
paths = (
{
closed = 1;
nodes = (
"431 -214 OFFCURVE",
"418 -184 OFFCURVE",
"418 -119 CURVE SMOOTH",
"418 -12 OFFCURVE",
"446 138 OFFCURVE",
"494 304 CURVE SMOOTH",
"541 470 OFFCURVE",
"607 650 OFFCURVE",
"684 817 CURVE",
"773 809 OFFCURVE",
"854 791 OFFCURVE",
"958 743 CURVE",
"801 0 LINE",
"1096 0 LINE",
"1417 1507 LINE",
"1368 1530 OFFCURVE",
"1303 1536 OFFCURVE",
"1255 1536 CURVE SMOOTH",
"1135 1536 OFFCURVE",
"1010 1467 OFFCURVE",
"887 1357 CURVE SMOOTH",
"764 1247 OFFCURVE",
"647 1096 OFFCURVE",
"543 932 CURVE",
"500 936 OFFCURVE",
"464 938 OFFCURVE",
"436 938 CURVE SMOOTH",
"316 938 OFFCURVE",
"212 909 OFFCURVE",
"137 864 CURVE SMOOTH",
"62 819 OFFCURVE",
"18 755 OFFCURVE",
"18 686 CURVE SMOOTH",
"18 646 OFFCURVE",
"32 616 OFFCURVE",
"55 597 CURVE SMOOTH",
"78 577 OFFCURVE",
"109 567 OFFCURVE",
"145 567 CURVE SMOOTH",
"209 567 OFFCURVE",
"260 598 OFFCURVE",
"260 647 CURVE SMOOTH",
"260 678 OFFCURVE",
"244 711 OFFCURVE",
"233 711 CURVE",
"260 782 OFFCURVE",
"344 809 OFFCURVE",
"473 817 CURVE",
"382 661 OFFCURVE",
"308 498 OFFCURVE",
"255 352 CURVE SMOOTH",
"202 206 OFFCURVE",
"172 75 OFFCURVE",
"172 -16 CURVE SMOOTH",
"172 -123 OFFCURVE",
"213 -177 OFFCURVE",
"269 -204 CURVE SMOOTH",
"324 -232 OFFCURVE",
"391 -233 OFFCURVE",
"446 -233 CURVE"
);
},
{
closed = 1;
nodes = (
"897 866 OFFCURVE",
"810 889 OFFCURVE",
"727 905 CURVE",
"784 1020 OFFCURVE",
"847 1125 OFFCURVE",
"909 1210 CURVE SMOOTH",
"971 1294 OFFCURVE",
"1035 1358 OFFCURVE",
"1096 1391 CURVE",
"977 834 LINE"
);
},
{
closed = 1;
nodes = (
"1054 1661 LINE",
"1375 1825 LINE",
"1498 1661 LINE",
"1564 1661 LINE",
"1441 2048 LINE",
"1398 2048 LINE",
"964 1661 LINE"
);
}
);
width = 1368;
}
);
note = Acircumflex;
unicode = 00C2;
},
{
glyphname = Acircumflexacute;
lastChange = "2015-07-03 17:18:38 +0000";
layers = (
{
layerId = "C17AF255-02ED-42AD-B705-02996A84AD46";
paths = (
{
closed = 1;
nodes = (
"431 -214 OFFCURVE",
"418 -184 OFFCURVE",
"418 -119 CURVE SMOOTH",
"418 -12 OFFCURVE",
"446 138 OFFCURVE",
"494 304 CURVE SMOOTH",
"541 470 OFFCURVE",
"607 650 OFFCURVE",
"684 817 CURVE",
"773 809 OFFCURVE",
"854 791 OFFCURVE",
"958 743 CURVE",
"801 0 LINE",
"1096 0 LINE",
"1417 1507 LINE",
"1368 1530 OFFCURVE",
"1303 1536 OFFCURVE",
"1255 1536 CURVE SMOOTH",
"1135 1536 OFFCURVE",
"1010 1467 OFFCURVE",
"887 1357 CURVE SMOOTH",
"764 1247 OFFCURVE",
"647 1096 OFFCURVE",
"543 932 CURVE",
"500 936 OFFCURVE",
"464 938 OFFCURVE",
"436 938 CURVE SMOOTH",
"316 938 OFFCURVE",
"212 909 OFFCURVE",
"137 864 CURVE SMOOTH",
"62 819 OFFCURVE",
"18 755 OFFCURVE",
"18 686 CURVE SMOOTH",
"18 646 OFFCURVE",
"32 616 OFFCURVE",
"55 597 CURVE SMOOTH",
"78 577 OFFCURVE",
"109 567 OFFCURVE",
"145 567 CURVE SMOOTH",
"209 567 OFFCURVE",
"260 598 OFFCURVE",
"260 647 CURVE SMOOTH",
"260 678 OFFCURVE",
"244 711 OFFCURVE",
"233 711 CURVE",
"260 782 OFFCURVE",
"344 809 OFFCURVE",
"473 817 CURVE",
"382 661 OFFCURVE",
"308 498 OFFCURVE",
"255 352 CURVE SMOOTH",
"202 206 OFFCURVE",
"172 75 OFFCURVE",
"172 -16 CURVE SMOOTH",
"172 -123 OFFCURVE",
"213 -177 OFFCURVE",
"269 -204 CURVE SMOOTH",
"324 -232 OFFCURVE",
"391 -233 OFFCURVE",
"446 -233 CURVE"
);
},
{
closed = 1;
nodes = (
"897 866 OFFCURVE",
"810 889 OFFCURVE",
"727 905 CURVE",
"784 1020 OFFCURVE",
"847 1125 OFFCURVE",
"909 1210 CURVE SMOOTH",
"971 1294 OFFCURVE",
"1035 1358 OFFCURVE",
"1096 1391 CURVE",
"977 834 LINE"
);
},
{
closed = 1;
nodes = (
"1122 1661 LINE",
"1348 1808 LINE",
"1414 1661 LINE",
"1506 1661 LINE",
"1403 1946 LINE",
"1367 1946 LINE",
"1002 1661 LINE"
);
},
{
closed = 1;
nodes = (
"1583 1774 LINE",
"1761 2048 LINE",
"1620 2048 LINE",
"1493 1774 LINE"
);
}
);
width = 1368;
}
);
note = Acircumflexacute;
unicode = 1EA4;
},
{
glyphname = Acircumflexdotbelow;
lastChange = "2015-07-03 17:18:41 +0000";
layers = (
{
layerId = "C17AF255-02ED-42AD-B705-02996A84AD46";
paths = (
{
closed = 1;
nodes = (
"431 -214 OFFCURVE",
"418 -184 OFFCURVE",
"418 -119 CURVE SMOOTH",
"418 -12 OFFCURVE",
"446 138 OFFCURVE",
"494 304 CURVE SMOOTH",
"541 470 OFFCURVE",
"607 650 OFFCURVE",
"684 817 CURVE",
"773 809 OFFCURVE",
"854 791 OFFCURVE",
"958 743 CURVE",
"801 0 LINE",
"1096 0 LINE",
"1417 1507 LINE",
"1368 1530 OFFCURVE",
"1303 1536 OFFCURVE",
"1255 1536 CURVE SMOOTH",
"1135 1536 OFFCURVE",
"1010 1467 OFFCURVE",
"887 1357 CURVE SMOOTH",
"764 1247 OFFCURVE",
"647 1096 OFFCURVE",
"543 932 CURVE",
"500 936 OFFCURVE",
"464 938 OFFCURVE",
"436 938 CURVE SMOOTH",
"316 938 OFFCURVE",
"212 909 OFFCURVE",
"137 864 CURVE SMOOTH",
"62 819 OFFCURVE",
"18 755 OFFCURVE",
"18 686 CURVE SMOOTH",
"18 646 OFFCURVE",
"32 616 OFFCURVE",
"55 597 CURVE SMOOTH",
"78 577 OFFCURVE",
"109 567 OFFCURVE",
"145 567 CURVE SMOOTH",
"209 567 OFFCURVE",
"260 598 OFFCURVE",
"260 647 CURVE SMOOTH",
"260 678 OFFCURVE",
"244 711 OFFCURVE",
"233 711 CURVE",
"260 782 OFFCURVE",
"344 809 OFFCURVE",
"473 817 CURVE",
"382 661 OFFCURVE",
"308 498 OFFCURVE",
"255 352 CURVE SMOOTH",
"202 206 OFFCURVE",
"172 75 OFFCURVE",
"172 -16 CURVE SMOOTH",
"172 -123 OFFCURVE",
"213 -177 OFFCURVE",
"269 -204 CURVE SMOOTH",
"324 -232 OFFCURVE",
"391 -233 OFFCURVE",
"446 -233 CURVE"
);
},
{
closed = 1;
nodes = (
"808 -473 OFFCURVE",
"849 -455 OFFCURVE",
"879 -426 CURVE SMOOTH",
"909 -397 OFFCURVE",
"927 -356 OFFCURVE",
"927 -311 CURVE SMOOTH",
"927 -266 OFFCURVE",
"909 -225 OFFCURVE",
"879 -195 CURVE SMOOTH",
"849 -165 OFFCURVE",
"808 -147 OFFCURVE",
"763 -147 CURVE SMOOTH",
"718 -147 OFFCURVE",
"677 -165 OFFCURVE",
"648 -195 CURVE SMOOTH",
"619 -225 OFFCURVE",
"601 -266 OFFCURVE",
"601 -311 CURVE SMOOTH",
"601 -356 OFFCURVE",
"619 -397 OFFCURVE",
"648 -426 CURVE SMOOTH",
"677 -455 OFFCURVE",
"718 -473 OFFCURVE",
"763 -473 CURVE SMOOTH"
);
},
{
closed = 1;
nodes = (
"897 866 OFFCURVE",
"810 889 OFFCURVE",
"727 905 CURVE",
"784 1020 OFFCURVE",
"847 1125 OFFCURVE",
"909 1210 CURVE SMOOTH",
"971 1294 OFFCURVE",
"1035 1358 OFFCURVE",
"1096 1391 CURVE",
"977 834 LINE"
);
},
{
closed = 1;
nodes = (
"1054 1661 LINE",
"1375 1825 LINE",
"1498 1661 LINE",
"1564 1661 LINE",
"1441 2048 LINE",
"1398 2048 LINE",
"964 1661 LINE"
);
}
);
width = 1368;
}
);
note = Acircumflexdotbelow;
unicode = 1EAC;
},
{
glyphname = Acircumflexgrave;
lastChange = "2015-07-03 17:18:38 +0000";
layers = (
{
layerId = "C17AF255-02ED-42AD-B705-02996A84AD46";
paths = (
{
closed = 1;
nodes = (
"431 -214 OFFCURVE",
"418 -184 OFFCURVE",
"418 -119 CURVE SMOOTH",
"418 -12 OFFCURVE",
"446 138 OFFCURVE",
"494 304 CURVE SMOOTH",
"541 470 OFFCURVE",
"607 650 OFFCURVE",
"684 817 CURVE",
"773 809 OFFCURVE",
"854 791 OFFCURVE",
"958 743 CURVE",
"801 0 LINE",
"1096 0 LINE",
"1417 1507 LINE",
"1368 1530 OFFCURVE",
"1303 1536 OFFCURVE",
"1255 1536 CURVE SMOOTH",
"1135 1536 OFFCURVE",
"1010 1467 OFFCURVE",
"887 1357 CURVE SMOOTH",
"764 1247 OFFCURVE",
"647 1096 OFFCURVE",
"543 932 CURVE",
"500 936 OFFCURVE",
"464 938 OFFCURVE",
"436 938 CURVE SMOOTH",
"316 938 OFFCURVE",
"212 909 OFFCURVE",
"137 864 CURVE SMOOTH",
"62 819 OFFCURVE",
"18 755 OFFCURVE",
"18 686 CURVE SMOOTH",
"18 646 OFFCURVE",
"32 616 OFFCURVE",
"55 597 CURVE SMOOTH",
"78 577 OFFCURVE",
"109 567 OFFCURVE",
"145 567 CURVE SMOOTH",
"209 567 OFFCURVE",
"260 598 OFFCURVE",
"260 647 CURVE SMOOTH",
"260 678 OFFCURVE",
"244 711 OFFCURVE",
"233 711 CURVE",
"260 782 OFFCURVE",
"344 809 OFFCURVE",
"473 817 CURVE",
"382 661 OFFCURVE",
"308 498 OFFCURVE",
"255 352 CURVE SMOOTH",
"202 206 OFFCURVE",
"172 75 OFFCURVE",
"172 -16 CURVE SMOOTH",
"172 -123 OFFCURVE",
"213 -177 OFFCURVE",
"269 -204 CURVE SMOOTH",
"324 -232 OFFCURVE",
"391 -233 OFFCURVE",
"446 -233 CURVE"
);
},
{
closed = 1;
nodes = (
"897 866 OFFCURVE",
"810 889 OFFCURVE",
"727 905 CURVE",
"784 1020 OFFCURVE",
"847 1125 OFFCURVE",
"909 1210 CURVE SMOOTH",
"971 1294 OFFCURVE",
"1035 1358 OFFCURVE",
"1096 1391 CURVE",
"977 834 LINE"
);
},
{
closed = 1;
nodes = (
"1122 1661 LINE",
"1348 1808 LINE",
"1414 1661 LINE",
"1506 1661 LINE",
"1403 1946 LINE",
"1367 1946 LINE",
"1002 1661 LINE"
);
},
{
closed = 1;
nodes = (
"1666 1772 LINE",
"1627 2047 LINE",
"1491 2047 LINE",
"1583 1772 LINE"
);
}
);
width = 1368;
}
);
note = Acircumflexgrave;
unicode = 1EA6;
},
{
glyphname = Acircumflexhookabove;
lastChange = "2015-07-03 17:18:40 +0000";
layers = (
{
layerId = "C17AF255-02ED-42AD-B705-02996A84AD46";
paths = (
{
closed = 1;
nodes = (
"431 -214 OFFCURVE",
"418 -184 OFFCURVE",
"418 -119 CURVE SMOOTH",
"418 -12 OFFCURVE",
"446 138 OFFCURVE",
"494 304 CURVE SMOOTH",
"541 470 OFFCURVE",
"607 650 OFFCURVE",
"684 817 CURVE",
"773 809 OFFCURVE",
"854 791 OFFCURVE",
"958 743 CURVE",
"801 0 LINE",
"1096 0 LINE",
"1417 1507 LINE",
"1368 1530 OFFCURVE",
"1303 1536 OFFCURVE",
"1255 1536 CURVE SMOOTH",
"1135 1536 OFFCURVE",
"1010 1467 OFFCURVE",
"887 1357 CURVE SMOOTH",
"764 1247 OFFCURVE",
"647 1096 OFFCURVE",
"543 932 CURVE",
"500 936 OFFCURVE",
"464 938 OFFCURVE",
"436 938 CURVE SMOOTH",
"316 938 OFFCURVE",
"212 909 OFFCURVE",
"137 864 CURVE SMOOTH",
"62 819 OFFCURVE",
"18 755 OFFCURVE",
"18 686 CURVE SMOOTH",
"18 646 OFFCURVE",
"32 616 OFFCURVE",
"55 597 CURVE SMOOTH",
"78 577 OFFCURVE",
"109 567 OFFCURVE",
"145 567 CURVE SMOOTH",
"209 567 OFFCURVE",
"260 598 OFFCURVE",
"260 647 CURVE SMOOTH",
"260 678 OFFCURVE",
"244 711 OFFCURVE",
"233 711 CURVE",
"260 782 OFFCURVE",
"344 809 OFFCURVE",
"473 817 CURVE",
"382 661 OFFCURVE",
"308 498 OFFCURVE",
"255 352 CURVE SMOOTH",
"202 206 OFFCURVE",
"172 75 OFFCURVE",
"172 -16 CURVE SMOOTH",
"172 -123 OFFCURVE",
"213 -177 OFFCURVE",
"269 -204 CURVE SMOOTH",
"324 -232 OFFCURVE",
"391 -233 OFFCURVE",
"446 -233 CURVE"
);
},
{
closed = 1;
nodes = (
"897 866 OFFCURVE",
"810 889 OFFCURVE",
"727 905 CURVE",
"784 1020 OFFCURVE",
"847 1125 OFFCURVE",
"909 1210 CURVE SMOOTH",
"971 1294 OFFCURVE",
"1035 1358 OFFCURVE",
"1096 1391 CURVE",
"977 834 LINE"
);
},
{
closed = 1;
nodes = (
"1122 1661 LINE",
"1348 1808 LINE",
"1414 1661 LINE",
"1506 1661 LINE",
"1403 1946 LINE",
"1367 1946 LINE",
"1002 1661 LINE"
);
},
{
closed = 1;
nodes = (
"1604 1808 LINE",
"1697 1815 OFFCURVE",
"1759 1865 OFFCURVE",
"1759 1933 CURVE SMOOTH",
"1759 2001 OFFCURVE",
"1697 2048 OFFCURVE",
"1608 2048 CURVE SMOOTH",
"1557 2048 OFFCURVE",
"1502 2033 OFFCURVE",
"1470 2012 CURVE",
"1507 1953 LINE",
"1532 1968 OFFCURVE",
"1560 1976 OFFCURVE",
"1593 1976 CURVE SMOOTH",
"1638 1976 OFFCURVE",
"1661 1959 OFFCURVE",
"1661 1925 CURVE SMOOTH",
"1661 1888 OFFCURVE",
"1638 1870 OFFCURVE",
"1593 1870 CURVE SMOOTH",
"1576 1870 OFFCURVE",
"1552 1872 OFFCURVE",
"1529 1879 CURVE",
"1529 1753 LINE",
"1598 1749 LINE"
);
}
);
width = 1368;
}
);
note = Acircumflexhookabove;
unicode = 1EA8;
},
{
glyphname = Acircumflextilde;
lastChange = "2015-07-03 17:18:41 +0000";
layers = (
{
layerId = "C17AF255-02ED-42AD-B705-02996A84AD46";
paths = (
{
closed = 1;
nodes = (
"431 -214 OFFCURVE",
"418 -184 OFFCURVE",
"418 -119 CURVE SMOOTH",
"418 -12 OFFCURVE",
"446 138 OFFCURVE",
"494 304 CURVE SMOOTH",
"541 470 OFFCURVE",
"607 650 OFFCURVE",
"684 817 CURVE",
"773 809 OFFCURVE",
"854 791 OFFCURVE",
"958 743 CURVE",
"801 0 LINE",
"1096 0 LINE",
"1417 1507 LINE",
"1368 1530 OFFCURVE",
"1303 1536 OFFCURVE",
"1255 1536 CURVE SMOOTH",
"1135 1536 OFFCURVE",
"1010 1467 OFFCURVE",
"887 1357 CURVE SMOOTH",
"764 1247 OFFCURVE",
"647 1096 OFFCURVE",
"543 932 CURVE",
"500 936 OFFCURVE",
"464 938 OFFCURVE",
"436 938 CURVE SMOOTH",
"316 938 OFFCURVE",
"212 909 OFFCURVE",
"137 864 CURVE SMOOTH",
"62 819 OFFCURVE",
"18 755 OFFCURVE",
"18 686 CURVE SMOOTH",
"18 646 OFFCURVE",
"32 616 OFFCURVE",
"55 597 CURVE SMOOTH",
"78 577 OFFCURVE",
"109 567 OFFCURVE",
"145 567 CURVE SMOOTH",
"209 567 OFFCURVE",
"260 598 OFFCURVE",
"260 647 CURVE SMOOTH",
"260 678 OFFCURVE",
"244 711 OFFCURVE",
"233 711 CURVE",
"260 782 OFFCURVE",
"344 809 OFFCURVE",
"473 817 CURVE",
"382 661 OFFCURVE",
"308 498 OFFCURVE",
"255 352 CURVE SMOOTH",
"202 206 OFFCURVE",
"172 75 OFFCURVE",
"172 -16 CURVE SMOOTH",
"172 -123 OFFCURVE",
"213 -177 OFFCURVE",
"269 -204 CURVE SMOOTH",
"324 -232 OFFCURVE",
"391 -233 OFFCURVE",
"446 -233 CURVE"
);
},
{
closed = 1;
nodes = (
"897 866 OFFCURVE",
"810 889 OFFCURVE",
"727 905 CURVE",
"784 1020 OFFCURVE",
"847 1125 OFFCURVE",
"909 1210 CURVE SMOOTH",
"971 1294 OFFCURVE",
"1035 1358 OFFCURVE",
"1096 1391 CURVE",
"977 834 LINE"
);
},
{
closed = 1;
nodes = (
"1122 1661 LINE",
"1348 1808 LINE",
"1414 1661 LINE",
"1506 1661 LINE",
"1425 1885 LINE",
"1489 1885 OFFCURVE",
"1548 1904 OFFCURVE",
"1593 1932 CURVE SMOOTH",
"1637 1960 OFFCURVE",
"1668 1997 OFFCURVE",
"1675 2030 CURVE",
"1666 2032 LINE",
"1645 2009 OFFCURVE",
"1612 1999 OFFCURVE",
"1576 1999 CURVE SMOOTH",
"1533 1999 OFFCURVE",
"1500 2011 OFFCURVE",
"1464 2023 CURVE SMOOTH",
"1428 2035 OFFCURVE",
"1389 2047 OFFCURVE",
"1337 2047 CURVE SMOOTH",
"1226 2047 OFFCURVE",
"1141 1997 OFFCURVE",
"1096 1905 CURVE",
"1105 1902 LINE",
"1132 1927 OFFCURVE",
"1163 1939 OFFCURVE",
"1199 1939 CURVE SMOOTH",
"1242 1939 OFFCURVE",
"1280 1925 OFFCURVE",
"1321 1910 CURVE",
"1002 1661 LINE"
);
}
);
width = 1368;
}
);
note = Acircumflextilde;
unicode = 1EAA;
},
{
glyphname = Adblgrave;
lastChange = "2015-07-03 17:18:41 +0000";
layers = (
{
layerId = "C17AF255-02ED-42AD-B705-02996A84AD46";
paths = (
{
closed = 1;
nodes = (
"431 -214 OFFCURVE",
"418 -184 OFFCURVE",
"418 -119 CURVE SMOOTH",
"418 -12 OFFCURVE",
"446 138 OFFCURVE",
"494 304 CURVE SMOOTH",
"541 470 OFFCURVE",
"607 650 OFFCURVE",
"684 817 CURVE",
"773 809 OFFCURVE",
"854 791 OFFCURVE",
"958 743 CURVE",
"801 0 LINE",
"1096 0 LINE",
"1417 1507 LINE",
"1368 1530 OFFCURVE",
"1303 1536 OFFCURVE",
"1255 1536 CURVE SMOOTH",
"1135 1536 OFFCURVE",
"1010 1467 OFFCURVE",
"887 1357 CURVE SMOOTH",
"764 1247 OFFCURVE",
"647 1096 OFFCURVE",
"543 932 CURVE",
"500 936 OFFCURVE",
"464 938 OFFCURVE",
"436 938 CURVE SMOOTH",
"316 938 OFFCURVE",
"212 909 OFFCURVE",
"137 864 CURVE SMOOTH",
"62 819 OFFCURVE",
"18 755 OFFCURVE",
"18 686 CURVE SMOOTH",
"18 646 OFFCURVE",
"32 616 OFFCURVE",
"55 597 CURVE SMOOTH",
"78 577 OFFCURVE",
"109 567 OFFCURVE",
"145 567 CURVE SMOOTH",
"209 567 OFFCURVE",
"260 598 OFFCURVE",
"260 647 CURVE SMOOTH",
"260 678 OFFCURVE",
"244 711 OFFCURVE",
"233 711 CURVE",
"260 782 OFFCURVE",
"344 809 OFFCURVE",
"473 817 CURVE",
"382 661 OFFCURVE",
"308 498 OFFCURVE",
"255 352 CURVE SMOOTH",
"202 206 OFFCURVE",
"172 75 OFFCURVE",
"172 -16 CURVE SMOOTH",
"172 -123 OFFCURVE",
"213 -177 OFFCURVE",
"269 -204 CURVE SMOOTH",
"324 -232 OFFCURVE",
"391 -233 OFFCURVE",
"446 -233 CURVE"
);
},
{
closed = 1;
nodes = (
"897 866 OFFCURVE",
"810 889 OFFCURVE",
"727 905 CURVE",
"784 1020 OFFCURVE",
"847 1125 OFFCURVE",
"909 1210 CURVE SMOOTH",
"971 1294 OFFCURVE",
"1035 1358 OFFCURVE",
"1096 1391 CURVE",
"977 834 LINE"
);
},
{
closed = 1;
nodes = (
"1120 1661 LINE",
"933 2048 LINE",
"718 2048 LINE",
"1007 1661 LINE"
);
},
{
closed = 1;
nodes = (
"1451 1661 LINE",
"1265 2048 LINE",
"1050 2048 LINE",
"1339 1661 LINE"
);
}
);
width = 1368;
}
);
note = Adblgrave;
unicode = 0200;
},
{
glyphname = Adieresis;
lastChange = "2015-07-03 17:18:38 +0000";
layers = (
{
layerId = "C17AF255-02ED-42AD-B705-02996A84AD46";
paths = (
{
closed = 1;
nodes = (
"431 -214 OFFCURVE",
"418 -184 OFFCURVE",
"418 -119 CURVE SMOOTH",
"418 -12 OFFCURVE",
"446 138 OFFCURVE",
"494 304 CURVE SMOOTH",
"541 470 OFFCURVE",
"607 650 OFFCURVE",
"684 817 CURVE",
"773 809 OFFCURVE",
"854 791 OFFCURVE",
"958 743 CURVE",
"801 0 LINE",
"1096 0 LINE",
"1417 1507 LINE",
"1368 1530 OFFCURVE",
"1303 1536 OFFCURVE",
"1255 1536 CURVE SMOOTH",
"1135 1536 OFFCURVE",
"1010 1467 OFFCURVE",
"887 1357 CURVE SMOOTH",
"764 1247 OFFCURVE",
"647 1096 OFFCURVE",
"543 932 CURVE",
"500 936 OFFCURVE",
"464 938 OFFCURVE",
"436 938 CURVE SMOOTH",
"316 938 OFFCURVE",
"212 909 OFFCURVE",
"137 864 CURVE SMOOTH",
"62 819 OFFCURVE",
"18 755 OFFCURVE",
"18 686 CURVE SMOOTH",
"18 646 OFFCURVE",
"32 616 OFFCURVE",
"55 597 CURVE SMOOTH",
"78 577 OFFCURVE",
"109 567 OFFCURVE",
"145 567 CURVE SMOOTH",
"209 567 OFFCURVE",
"260 598 OFFCURVE",
"260 647 CURVE SMOOTH",
"260 678 OFFCURVE",
"244 711 OFFCURVE",
"233 711 CURVE",
"260 782 OFFCURVE",
"344 809 OFFCURVE",
"473 817 CURVE",
"382 661 OFFCURVE",
"308 498 OFFCURVE",
"255 352 CURVE SMOOTH",
"202 206 OFFCURVE",
"172 75 OFFCURVE",
"172 -16 CURVE SMOOTH",
"172 -123 OFFCURVE",
"213 -177 OFFCURVE",
"269 -204 CURVE SMOOTH",
"324 -232 OFFCURVE",
"391 -233 OFFCURVE",
"446 -233 CURVE"
);
},
{
closed = 1;
nodes = (
"897 866 OFFCURVE",
"810 889 OFFCURVE",
"727 905 CURVE",
"784 1020 OFFCURVE",
"847 1125 OFFCURVE",
"909 1210 CURVE SMOOTH",
"971 1294 OFFCURVE",
"1035 1358 OFFCURVE",
"1096 1391 CURVE",
"977 834 LINE"
);
},
{
closed = 1;
nodes = (
"1089 1686 OFFCURVE",
"1120 1700 OFFCURVE",
"1143 1722 CURVE SMOOTH",
"1166 1744 OFFCURVE",
"1180 1774 OFFCURVE",
"1180 1810 CURVE SMOOTH",
"1180 1843 OFFCURVE",
"1166 1875 OFFCURVE",
"1143 1898 CURVE SMOOTH",
"1120 1921 OFFCURVE",
"1089 1935 OFFCURVE",
"1056 1935 CURVE SMOOTH",
"1020 1935 OFFCURVE",
"989 1921 OFFCURVE",
"967 1898 CURVE SMOOTH",
"945 1875 OFFCURVE",
"931 1843 OFFCURVE",
"931 1810 CURVE SMOOTH",
"931 1774 OFFCURVE",
"945 1744 OFFCURVE",
"967 1722 CURVE SMOOTH",
"989 1700 OFFCURVE",
"1020 1686 OFFCURVE",
"1056 1686 CURVE SMOOTH"
);
},
{
closed = 1;
nodes = (
"1457 1686 OFFCURVE",
"1489 1700 OFFCURVE",
"1512 1722 CURVE SMOOTH",
"1535 1744 OFFCURVE",
"1549 1774 OFFCURVE",
"1549 1810 CURVE SMOOTH",
"1549 1843 OFFCURVE",
"1535 1875 OFFCURVE",
"1512 1898 CURVE SMOOTH",
"1489 1921 OFFCURVE",
"1457 1935 OFFCURVE",
"1424 1935 CURVE SMOOTH",
"1388 1935 OFFCURVE",
"1358 1921 OFFCURVE",
"1335 1898 CURVE SMOOTH",
"1312 1875 OFFCURVE",
"1299 1843 OFFCURVE",
"1299 1810 CURVE SMOOTH",
"1299 1774 OFFCURVE",
"1312 1744 OFFCURVE",
"1335 1722 CURVE SMOOTH",
"1358 1700 OFFCURVE",
"1388 1686 OFFCURVE",
"1424 1686 CURVE SMOOTH"
);
}
);
width = 1368;
}
);
note = Adieresis;
unicode = 00C4;
},
{
glyphname = Adotbelow;
lastChange = "2015-07-03 17:18:39 +0000";
layers = (
{
layerId = "C17AF255-02ED-42AD-B705-02996A84AD46";
paths = (
{
closed = 1;
nodes = (
"431 -214 OFFCURVE",
"418 -184 OFFCURVE",
"418 -119 CURVE SMOOTH",
"418 -12 OFFCURVE",
"446 138 OFFCURVE",
"494 304 CURVE SMOOTH",
"541 470 OFFCURVE",
"607 650 OFFCURVE",
"684 817 CURVE",
"773 809 OFFCURVE",
"854 791 OFFCURVE",
"958 743 CURVE",
"801 0 LINE",
"1096 0 LINE",
"1417 1507 LINE",
"1368 1530 OFFCURVE",
"1303 1536 OFFCURVE",
"1255 1536 CURVE SMOOTH",
"1135 1536 OFFCURVE",
"1010 1467 OFFCURVE",
"887 1357 CURVE SMOOTH",
"764 1247 OFFCURVE",
"647 1096 OFFCURVE",
"543 932 CURVE",
"500 936 OFFCURVE",
"464 938 OFFCURVE",
"436 938 CURVE SMOOTH",
"316 938 OFFCURVE",
"212 909 OFFCURVE",
"137 864 CURVE SMOOTH",
"62 819 OFFCURVE",
"18 755 OFFCURVE",
"18 686 CURVE SMOOTH",
"18 646 OFFCURVE",
"32 616 OFFCURVE",
"55 597 CURVE SMOOTH",
"78 577 OFFCURVE",
"109 567 OFFCURVE",
"145 567 CURVE SMOOTH",
"209 567 OFFCURVE",
"260 598 OFFCURVE",
"260 647 CURVE SMOOTH",
"260 678 OFFCURVE",
"244 711 OFFCURVE",
"233 711 CURVE",
"260 782 OFFCURVE",
"344 809 OFFCURVE",
"473 817 CURVE",
"382 661 OFFCURVE",
"308 498 OFFCURVE",
"255 352 CURVE SMOOTH",
"202 206 OFFCURVE",
"172 75 OFFCURVE",
"172 -16 CURVE SMOOTH",
"172 -123 OFFCURVE",
"213 -177 OFFCURVE",
"269 -204 CURVE SMOOTH",
"324 -232 OFFCURVE",
"391 -233 OFFCURVE",
"446 -233 CURVE"
);
},
{
closed = 1;
nodes = (
"808 -473 OFFCURVE",
"849 -455 OFFCURVE",
"879 -426 CURVE SMOOTH",
"909 -397 OFFCURVE",
"927 -356 OFFCURVE",
"927 -311 CURVE SMOOTH",
"927 -266 OFFCURVE",
"909 -225 OFFCURVE",
"879 -195 CURVE SMOOTH",
"849 -165 OFFCURVE",
"808 -147 OFFCURVE",
"763 -147 CURVE SMOOTH",
"718 -147 OFFCURVE",
"677 -165 OFFCURVE",
"648 -195 CURVE SMOOTH",
"619 -225 OFFCURVE",
"601 -266 OFFCURVE",
"601 -311 CURVE SMOOTH",
"601 -356 OFFCURVE",
"619 -397 OFFCURVE",
"648 -426 CURVE SMOOTH",
"677 -455 OFFCURVE",
"718 -473 OFFCURVE",
"763 -473 CURVE SMOOTH"
);
},
{
closed = 1;
nodes = (
"897 866 OFFCURVE",
"810 889 OFFCURVE",
"727 905 CURVE",
"784 1020 OFFCURVE",
"847 1125 OFFCURVE",
"909 1210 CURVE SMOOTH",
"971 1294 OFFCURVE",
"1035 1358 OFFCURVE",
"1096 1391 CURVE",
"977 834 LINE"
);
}
);
width = 1368;
}
);
note = Adotbelow;
unicode = 1EA0;
},
{
glyphname = Agrave;
lastChange = "2015-07-03 17:18:39 +0000";
layers = (
{
layerId = "C17AF255-02ED-42AD-B705-02996A84AD46";
paths = (
{
closed = 1;
nodes = (
"431 -214 OFFCURVE",
"418 -184 OFFCURVE",
"418 -119 CURVE SMOOTH",
"418 -12 OFFCURVE",
"446 138 OFFCURVE",
"494 304 CURVE SMOOTH",
"541 470 OFFCURVE",
"607 650 OFFCURVE",
"684 817 CURVE",
"773 809 OFFCURVE",
"854 791 OFFCURVE",
"958 743 CURVE",
"801 0 LINE",
"1096 0 LINE",
"1417 1507 LINE",
"1368 1530 OFFCURVE",
"1303 1536 OFFCURVE",
"1255 1536 CURVE SMOOTH",
"1135 1536 OFFCURVE",
"1010 1467 OFFCURVE",
"887 1357 CURVE SMOOTH",
"764 1247 OFFCURVE",
"647 1096 OFFCURVE",
"543 932 CURVE",
"500 936 OFFCURVE",
"464 938 OFFCURVE",
"436 938 CURVE SMOOTH",
"316 938 OFFCURVE",
"212 909 OFFCURVE",
"137 864 CURVE SMOOTH",
"62 819 OFFCURVE",
"18 755 OFFCURVE",
"18 686 CURVE SMOOTH",
"18 646 OFFCURVE",
"32 616 OFFCURVE",
"55 597 CURVE SMOOTH",
"78 577 OFFCURVE",
"109 567 OFFCURVE",
"145 567 CURVE SMOOTH",
"209 567 OFFCURVE",
"260 598 OFFCURVE",
"260 647 CURVE SMOOTH",
"260 678 OFFCURVE",
"244 711 OFFCURVE",
"233 711 CURVE",
"260 782 OFFCURVE",
"344 809 OFFCURVE",
"473 817 CURVE",
"382 661 OFFCURVE",
"308 498 OFFCURVE",
"255 352 CURVE SMOOTH",
"202 206 OFFCURVE",
"172 75 OFFCURVE",
"172 -16 CURVE SMOOTH",
"172 -123 OFFCURVE",
"213 -177 OFFCURVE",
"269 -204 CURVE SMOOTH",
"324 -232 OFFCURVE",
"391 -233 OFFCURVE",
"446 -233 CURVE"
);
},
{
closed = 1;
nodes = (
"897 866 OFFCURVE",
"810 889 OFFCURVE",
"727 905 CURVE",
"784 1020 OFFCURVE",
"847 1125 OFFCURVE",
"909 1210 CURVE SMOOTH",
"971 1294 OFFCURVE",
"1035 1358 OFFCURVE",
"1096 1391 CURVE",
"977 834 LINE"
);
},
{
closed = 1;
nodes = (
"1269 1661 LINE",
"1210 2048 LINE",
"995 2048 LINE",
"1116 1661 LINE"
);
}
);
width = 1368;
}
);
note = Agrave;
unicode = 00C0;
},
{
glyphname = Ahookabove;
lastChange = "2015-07-03 17:18:41 +0000";
layers = (
{
layerId = "C17AF255-02ED-42AD-B705-02996A84AD46";
paths = (
{
closed = 1;
nodes = (
"431 -214 OFFCURVE",
"418 -184 OFFCURVE",
"418 -119 CURVE SMOOTH",
"418 -12 OFFCURVE",
"446 138 OFFCURVE",
"494 304 CURVE SMOOTH",
"541 470 OFFCURVE",
"607 650 OFFCURVE",
"684 817 CURVE",
"773 809 OFFCURVE",
"854 791 OFFCURVE",
"958 743 CURVE",
"801 0 LINE",
"1096 0 LINE",
"1417 1507 LINE",
"1368 1530 OFFCURVE",
"1303 1536 OFFCURVE",
"1255 1536 CURVE SMOOTH",
"1135 1536 OFFCURVE",
"1010 1467 OFFCURVE",
"887 1357 CURVE SMOOTH",
"764 1247 OFFCURVE",
"647 1096 OFFCURVE",
"543 932 CURVE",
"500 936 OFFCURVE",
"464 938 OFFCURVE",
"436 938 CURVE SMOOTH",
"316 938 OFFCURVE",
"212 909 OFFCURVE",
"137 864 CURVE SMOOTH",
"62 819 OFFCURVE",
"18 755 OFFCURVE",
"18 686 CURVE SMOOTH",
"18 646 OFFCURVE",
"32 616 OFFCURVE",
"55 597 CURVE SMOOTH",
"78 577 OFFCURVE",
"109 567 OFFCURVE",
"145 567 CURVE SMOOTH",
"209 567 OFFCURVE",
"260 598 OFFCURVE",
"260 647 CURVE SMOOTH",
"260 678 OFFCURVE",
"244 711 OFFCURVE",
"233 711 CURVE",
"260 782 OFFCURVE",
"344 809 OFFCURVE",
"473 817 CURVE",
"382 661 OFFCURVE",
"308 498 OFFCURVE",
"255 352 CURVE SMOOTH",
"202 206 OFFCURVE",
"172 75 OFFCURVE",
"172 -16 CURVE SMOOTH",
"172 -123 OFFCURVE",
"213 -177 OFFCURVE",
"269 -204 CURVE SMOOTH",
"324 -232 OFFCURVE",
"391 -233 OFFCURVE",
"446 -233 CURVE"
);
},
{
closed = 1;
nodes = (
"897 866 OFFCURVE",
"810 889 OFFCURVE",
"727 905 CURVE",
"784 1020 OFFCURVE",
"847 1125 OFFCURVE",
"909 1210 CURVE SMOOTH",
"971 1294 OFFCURVE",
"1035 1358 OFFCURVE",
"1096 1391 CURVE",
"977 834 LINE"
);
},
{
closed = 1;
nodes = (
"1304 1705 LINE",
"1368 1710 OFFCURVE",
"1422 1731 OFFCURVE",
"1460 1762 CURVE SMOOTH",
"1498 1793 OFFCURVE",
"1520 1835 OFFCURVE",
"1520 1883 CURVE SMOOTH",
"1520 1931 OFFCURVE",
"1499 1973 OFFCURVE",
"1461 2002 CURVE SMOOTH",
"1423 2030 OFFCURVE",
"1369 2047 OFFCURVE",
"1308 2047 CURVE SMOOTH",
"1233 2047 OFFCURVE",
"1155 2026 OFFCURVE",
"1108 1997 CURVE",
"1162 1911 LINE",
"1197 1934 OFFCURVE",
"1239 1944 OFFCURVE",
"1284 1944 CURVE SMOOTH",
"1348 1944 OFFCURVE",
"1380 1919 OFFCURVE",
"1380 1870 CURVE SMOOTH",
"1380 1825 OFFCURVE",
"1347 1797 OFFCURVE",
"1284 1797 CURVE SMOOTH",
"1257 1797 OFFCURVE",
"1224 1799 OFFCURVE",
"1193 1806 CURVE",
"1193 1627 LINE",
"1289 1622 LINE"
);
}
);
width = 1368;
}
);
note = Ahookabove;
unicode = 1EA2;
},
{
glyphname = Ainvertedbreve;
lastChange = "2015-07-03 17:18:41 +0000";
layers = (
{
layerId = "C17AF255-02ED-42AD-B705-02996A84AD46";
paths = (
{
closed = 1;
nodes = (
"431 -214 OFFCURVE",
"418 -184 OFFCURVE",
"418 -119 CURVE SMOOTH",
"418 -12 OFFCURVE",
"446 138 OFFCURVE",
"494 304 CURVE SMOOTH",
"541 470 OFFCURVE",
"607 650 OFFCURVE",
"684 817 CURVE",
"773 809 OFFCURVE",
"854 791 OFFCURVE",
"958 743 CURVE",
"801 0 LINE",
"1096 0 LINE",
"1417 1507 LINE",
"1368 1530 OFFCURVE",
"1303 1536 OFFCURVE",
"1255 1536 CURVE SMOOTH",
"1135 1536 OFFCURVE",
"1010 1467 OFFCURVE",
"887 1357 CURVE SMOOTH",
"764 1247 OFFCURVE",
"647 1096 OFFCURVE",
"543 932 CURVE",
"500 936 OFFCURVE",
"464 938 OFFCURVE",
"436 938 CURVE SMOOTH",
"316 938 OFFCURVE",
"212 909 OFFCURVE",
"137 864 CURVE SMOOTH",
"62 819 OFFCURVE",
"18 755 OFFCURVE",
"18 686 CURVE SMOOTH",
"18 646 OFFCURVE",
"32 616 OFFCURVE",
"55 597 CURVE SMOOTH",
"78 577 OFFCURVE",
"109 567 OFFCURVE",
"145 567 CURVE SMOOTH",
"209 567 OFFCURVE",
"260 598 OFFCURVE",
"260 647 CURVE SMOOTH",
"260 678 OFFCURVE",
"244 711 OFFCURVE",
"233 711 CURVE",
"260 782 OFFCURVE",
"344 809 OFFCURVE",
"473 817 CURVE",
"382 661 OFFCURVE",
"308 498 OFFCURVE",
"255 352 CURVE SMOOTH",
"202 206 OFFCURVE",
"172 75 OFFCURVE",
"172 -16 CURVE SMOOTH",
"172 -123 OFFCURVE",
"213 -177 OFFCURVE",
"269 -204 CURVE SMOOTH",
"324 -232 OFFCURVE",
"391 -233 OFFCURVE",
"446 -233 CURVE"
);
},
{
closed = 1;
nodes = (
"897 866 OFFCURVE",
"810 889 OFFCURVE",
"727 905 CURVE",
"784 1020 OFFCURVE",
"847 1125 OFFCURVE",
"909 1210 CURVE SMOOTH",
"971 1294 OFFCURVE",
"1035 1358 OFFCURVE",
"1096 1391 CURVE",
"977 834 LINE"
);
},
{
closed = 1;
nodes = (
"1089 1683 LINE",
"1096 1730 OFFCURVE",
"1123 1772 OFFCURVE",
"1164 1803 CURVE SMOOTH",
"1204 1834 OFFCURVE",
"1257 1853 OFFCURVE",
"1313 1853 CURVE SMOOTH",
"1416 1853 OFFCURVE",
"1474 1792 OFFCURVE",
"1474 1683 CURVE",
"1657 1683 LINE",
"1657 1868 OFFCURVE",
"1549 1966 OFFCURVE",
"1345 1966 CURVE SMOOTH",
"1234 1966 OFFCURVE",
"1132 1936 OFFCURVE",
"1055 1885 CURVE SMOOTH",
"978 1833 OFFCURVE",
"925 1763 OFFCURVE",
"913 1683 CURVE"
);
}
);
width = 1368;
}
);
note = Ainvertedbreve;
unicode = 0202;
},
{
glyphname = Amacron;
lastChange = "2015-07-03 17:18:41 +0000";
layers = (
{
layerId = "C17AF255-02ED-42AD-B705-02996A84AD46";
paths = (
{
closed = 1;
nodes = (
"431 -214 OFFCURVE",
"418 -184 OFFCURVE",
"418 -119 CURVE SMOOTH",
"418 -12 OFFCURVE",
"446 138 OFFCURVE",
"494 304 CURVE SMOOTH",
"541 470 OFFCURVE",
"607 650 OFFCURVE",
"684 817 CURVE",
"773 809 OFFCURVE",
"854 791 OFFCURVE",
"958 743 CURVE",
"801 0 LINE",
"1096 0 LINE",
"1417 1507 LINE",
"1368 1530 OFFCURVE",
"1303 1536 OFFCURVE",
"1255 1536 CURVE SMOOTH",
"1135 1536 OFFCURVE",
"1010 1467 OFFCURVE",
"887 1357 CURVE SMOOTH",
"764 1247 OFFCURVE",
"647 1096 OFFCURVE",
"543 932 CURVE",
"500 936 OFFCURVE",
"464 938 OFFCURVE",
"436 938 CURVE SMOOTH",
"316 938 OFFCURVE",
"212 909 OFFCURVE",
"137 864 CURVE SMOOTH",
"62 819 OFFCURVE",
"18 755 OFFCURVE",
"18 686 CURVE SMOOTH",
"18 646 OFFCURVE",
"32 616 OFFCURVE",
"55 597 CURVE SMOOTH",
"78 577 OFFCURVE",
"109 567 OFFCURVE",
"145 567 CURVE SMOOTH",
"209 567 OFFCURVE",
"260 598 OFFCURVE",
"260 647 CURVE SMOOTH",
"260 678 OFFCURVE",
"244 711 OFFCURVE",
"233 711 CURVE",
"260 782 OFFCURVE",
"344 809 OFFCURVE",
"473 817 CURVE",
"382 661 OFFCURVE",
"308 498 OFFCURVE",
"255 352 CURVE SMOOTH",
"202 206 OFFCURVE",
"172 75 OFFCURVE",
"172 -16 CURVE SMOOTH",
"172 -123 OFFCURVE",
"213 -177 OFFCURVE",
"269 -204 CURVE SMOOTH",
"324 -232 OFFCURVE",
"391 -233 OFFCURVE",
"446 -233 CURVE"
);
},
{
closed = 1;
nodes = (
"897 866 OFFCURVE",
"810 889 OFFCURVE",
"727 905 CURVE",
"784 1020 OFFCURVE",
"847 1125 OFFCURVE",
"909 1210 CURVE SMOOTH",
"971 1294 OFFCURVE",
"1035 1358 OFFCURVE",
"1096 1391 CURVE",
"977 834 LINE"
);
},
{
closed = 1;
nodes = (
"1571 1738 LINE",
"1601 1890 LINE",
"946 1890 LINE",
"913 1738 LINE"
);
}
);
width = 1368;
}
);
note = Amacron;
unicode = 0100;
},
{
glyphname = Aogonek;
lastChange = "2015-07-03 17:18:39 +0000";
layers = (
{
layerId = "C17AF255-02ED-42AD-B705-02996A84AD46";
paths = (
{
closed = 1;
nodes = (
"953 -395 OFFCURVE",
"997 -375 OFFCURVE",
"1034 -349 CURVE SMOOTH",
"1070 -323 OFFCURVE",
"1100 -292 OFFCURVE",
"1124 -268 CURVE",
"1124 -244 OFFCURVE",
"1125 -229 OFFCURVE",
"1128 -205 CURVE",
"1118 -212 OFFCURVE",
"1107 -219 OFFCURVE",
"1096 -227 CURVE SMOOTH",
"1085 -235 OFFCURVE",
"1073 -242 OFFCURVE",
"1062 -249 CURVE",
"1038 -263 OFFCURVE",
"1013 -274 OFFCURVE",
"989 -274 CURVE SMOOTH",
"961 -274 OFFCURVE",
"940 -260 OFFCURVE",
"928 -240 CURVE",
"915 -221 OFFCURVE",
"909 -196 OFFCURVE",
"909 -172 CURVE SMOOTH",
"909 -136 OFFCURVE",
"923 -100 OFFCURVE",
"944 -70 CURVE SMOOTH",
"965 -40 OFFCURVE",
"992 -16 OFFCURVE",
"1020 0 CURVE",
"1096 0 LINE",
"1417 1507 LINE",
"1368 1530 OFFCURVE",
"1303 1536 OFFCURVE",
"1255 1536 CURVE SMOOTH",
"1135 1536 OFFCURVE",
"1010 1467 OFFCURVE",
"887 1357 CURVE SMOOTH",
"764 1247 OFFCURVE",
"647 1096 OFFCURVE",
"543 932 CURVE",
"500 936 OFFCURVE",
"464 938 OFFCURVE",
"436 938 CURVE SMOOTH",
"316 938 OFFCURVE",
"212 909 OFFCURVE",
"137 864 CURVE SMOOTH",
"62 819 OFFCURVE",
"18 755 OFFCURVE",
"18 686 CURVE SMOOTH",
"18 646 OFFCURVE",
"32 616 OFFCURVE",
"55 597 CURVE SMOOTH",
"78 577 OFFCURVE",
"109 567 OFFCURVE",
"145 567 CURVE SMOOTH",
"209 567 OFFCURVE",
"260 598 OFFCURVE",
"260 647 CURVE SMOOTH",
"260 678 OFFCURVE",
"244 711 OFFCURVE",
"233 711 CURVE",
"260 782 OFFCURVE",
"344 809 OFFCURVE",
"473 817 CURVE",
"382 661 OFFCURVE",
"308 498 OFFCURVE",
"255 352 CURVE SMOOTH",
"202 206 OFFCURVE",
"172 75 OFFCURVE",
"172 -16 CURVE SMOOTH",
"172 -123 OFFCURVE",
"213 -177 OFFCURVE",
"269 -204 CURVE SMOOTH",
"324 -232 OFFCURVE",
"391 -233 OFFCURVE",
"446 -233 CURVE",
"431 -214 OFFCURVE",
"418 -184 OFFCURVE",
"418 -119 CURVE SMOOTH",
"418 -12 OFFCURVE",
"446 138 OFFCURVE",
"494 304 CURVE SMOOTH",
"541 470 OFFCURVE",
"607 650 OFFCURVE",
"684 817 CURVE",
"773 809 OFFCURVE",
"854 791 OFFCURVE",
"958 743 CURVE",
"801 0 LINE",
"885 0 LINE",
"788 -79 OFFCURVE",
"739 -164 OFFCURVE",
"739 -236 CURVE SMOOTH",
"739 -272 OFFCURVE",
"752 -311 OFFCURVE",
"778 -342 CURVE SMOOTH",
"804 -373 OFFCURVE",
"845 -395 OFFCURVE",
"901 -395 CURVE SMOOTH"
);
},
{
closed = 1;
nodes = (
"897 866 OFFCURVE",
"810 889 OFFCURVE",
"727 905 CURVE",
"784 1020 OFFCURVE",
"847 1125 OFFCURVE",
"909 1210 CURVE SMOOTH",
"971 1294 OFFCURVE",
"1035 1358 OFFCURVE",
"1096 1391 CURVE",
"977 834 LINE"
);
}
);
width = 1368;
}
);
note = Aogonek;
unicode = 0104;
},
{
glyphname = Aring;
lastChange = "2015-07-03 17:18:41 +0000";
layers = (
{
layerId = "C17AF255-02ED-42AD-B705-02996A84AD46";
paths = (
{
closed = 1;
nodes = (
"431 -214 OFFCURVE",
"418 -184 OFFCURVE",
"418 -119 CURVE SMOOTH",
"418 -12 OFFCURVE",
"446 138 OFFCURVE",
"494 304 CURVE SMOOTH",
"541 470 OFFCURVE",
"607 650 OFFCURVE",
"684 817 CURVE",
"773 809 OFFCURVE",
"854 791 OFFCURVE",
"958 743 CURVE",
"801 0 LINE",
"1096 0 LINE",
"1417 1507 LINE",
"1368 1530 OFFCURVE",
"1303 1536 OFFCURVE",
"1255 1536 CURVE SMOOTH",
"1135 1536 OFFCURVE",
"1010 1467 OFFCURVE",
"887 1357 CURVE SMOOTH",
"764 1247 OFFCURVE",
"647 1096 OFFCURVE",
"543 932 CURVE",
"500 936 OFFCURVE",
"464 938 OFFCURVE",
"436 938 CURVE SMOOTH",
"316 938 OFFCURVE",
"212 909 OFFCURVE",
"137 864 CURVE SMOOTH",
"62 819 OFFCURVE",
"18 755 OFFCURVE",
"18 686 CURVE SMOOTH",
"18 646 OFFCURVE",
"32 616 OFFCURVE",
"55 597 CURVE SMOOTH",
"78 577 OFFCURVE",
"109 567 OFFCURVE",
"145 567 CURVE SMOOTH",
"209 567 OFFCURVE",
"260 598 OFFCURVE",
"260 647 CURVE SMOOTH",
"260 678 OFFCURVE",
"244 711 OFFCURVE",
"233 711 CURVE",
"260 782 OFFCURVE",
"344 809 OFFCURVE",
"473 817 CURVE",
"382 661 OFFCURVE",
"308 498 OFFCURVE",
"255 352 CURVE SMOOTH",
"202 206 OFFCURVE",
"172 75 OFFCURVE",
"172 -16 CURVE SMOOTH",
"172 -123 OFFCURVE",
"213 -177 OFFCURVE",
"269 -204 CURVE SMOOTH",
"324 -232 OFFCURVE",
"391 -233 OFFCURVE",
"446 -233 CURVE"
);
},
{
closed = 1;
nodes = (
"897 866 OFFCURVE",
"810 889 OFFCURVE",
"727 905 CURVE",
"784 1020 OFFCURVE",
"847 1125 OFFCURVE",
"909 1210 CURVE SMOOTH",
"971 1294 OFFCURVE",
"1035 1358 OFFCURVE",
"1096 1391 CURVE",
"977 834 LINE"
);
},
{
closed = 1;
nodes = (
"1291 1642 OFFCURVE",
"1336 1662 OFFCURVE",
"1365 1694 CURVE SMOOTH",
"1393 1726 OFFCURVE",
"1405 1770 OFFCURVE",
"1405 1815 CURVE SMOOTH",
"1405 1859 OFFCURVE",
"1393 1898 OFFCURVE",
"1369 1927 CURVE SMOOTH",
"1345 1955 OFFCURVE",
"1308 1972 OFFCURVE",
"1257 1972 CURVE SMOOTH",
"1196 1972 OFFCURVE",
"1152 1944 OFFCURVE",
"1124 1907 CURVE SMOOTH",
"1096 1870 OFFCURVE",
"1083 1823 OFFCURVE",
"1083 1786 CURVE SMOOTH",
"1083 1746 OFFCURVE",
"1097 1710 OFFCURVE",
"1122 1684 CURVE SMOOTH",
"1147 1658 OFFCURVE",
"1183 1642 OFFCURVE",
"1227 1642 CURVE SMOOTH"
);
},
{
closed = 1;
nodes = (
"1186 1714 OFFCURVE",
"1165 1743 OFFCURVE",
"1165 1790 CURVE SMOOTH",
"1165 1815 OFFCURVE",
"1171 1845 OFFCURVE",
"1187 1867 CURVE SMOOTH",
"1202 1889 OFFCURVE",
"1225 1905 OFFCURVE",
"1261 1905 CURVE SMOOTH",
"1294 1905 OFFCURVE",
"1311 1891 OFFCURVE",
"1320 1872 CURVE",
"1328 1853 OFFCURVE",
"1329 1828 OFFCURVE",
"1329 1808 CURVE SMOOTH",
"1329 1751 OFFCURVE",
"1299 1714 OFFCURVE",
"1235 1714 CURVE SMOOTH"
);
}
);
width = 1368;
}
);
note = Aring;
unicode = 00C5;
},
{
glyphname = Aringacute;
lastChange = "2015-07-03 17:18:39 +0000";
layers = (
{
layerId = "C17AF255-02ED-42AD-B705-02996A84AD46";
paths = (
{
closed = 1;
nodes = (
"431 -214 OFFCURVE",
"418 -184 OFFCURVE",
"418 -119 CURVE SMOOTH",
"418 -12 OFFCURVE",
"446 138 OFFCURVE",
"494 304 CURVE SMOOTH",
"541 470 OFFCURVE",
"607 650 OFFCURVE",
"684 817 CURVE",
"773 809 OFFCURVE",
"854 791 OFFCURVE",
"958 743 CURVE",
"801 0 LINE",
"1096 0 LINE",
"1417 1507 LINE",
"1400 1515 OFFCURVE",
"1383 1521 OFFCURVE",
"1366 1524 CURVE",
"1419 1551 OFFCURVE",
"1451 1605 OFFCURVE",
"1451 1677 CURVE SMOOTH",
"1451 1727 OFFCURVE",
"1437 1766 OFFCURVE",
"1409 1794 CURVE",
"1619 2048 LINE",
"1404 2048 LINE",
"1304 1835 LINE",
"1256 1835 OFFCURVE",
"1213 1814 OFFCURVE",
"1181 1781 CURVE SMOOTH",
"1149 1748 OFFCURVE",
"1130 1701 OFFCURVE",
"1130 1649 CURVE SMOOTH",
"1130 1594 OFFCURVE",
"1151 1554 OFFCURVE",
"1190 1529 CURVE",
"1079 1508 OFFCURVE",
"965 1433 OFFCURVE",
"854 1326 CURVE SMOOTH",
"743 1219 OFFCURVE",
"636 1081 OFFCURVE",
"543 932 CURVE",
"500 936 OFFCURVE",
"464 938 OFFCURVE",
"436 938 CURVE SMOOTH",
"316 938 OFFCURVE",
"212 909 OFFCURVE",
"137 864 CURVE SMOOTH",
"62 819 OFFCURVE",
"18 755 OFFCURVE",
"18 686 CURVE SMOOTH",
"18 646 OFFCURVE",
"32 616 OFFCURVE",
"55 597 CURVE SMOOTH",
"78 577 OFFCURVE",
"109 567 OFFCURVE",
"145 567 CURVE SMOOTH",
"209 567 OFFCURVE",
"260 598 OFFCURVE",
"260 647 CURVE SMOOTH",
"260 678 OFFCURVE",
"244 711 OFFCURVE",
"233 711 CURVE",
"260 782 OFFCURVE",
"344 809 OFFCURVE",
"473 817 CURVE",
"382 661 OFFCURVE",
"308 498 OFFCURVE",
"255 352 CURVE SMOOTH",
"202 206 OFFCURVE",
"172 75 OFFCURVE",
"172 -16 CURVE SMOOTH",
"172 -123 OFFCURVE",
"213 -177 OFFCURVE",
"269 -204 CURVE SMOOTH",
"324 -232 OFFCURVE",
"391 -233 OFFCURVE",
"446 -233 CURVE"
);
},
{
closed = 1;
nodes = (
"897 866 OFFCURVE",
"810 889 OFFCURVE",
"727 905 CURVE",
"784 1020 OFFCURVE",
"847 1125 OFFCURVE",
"909 1210 CURVE SMOOTH",
"971 1294 OFFCURVE",
"1035 1358 OFFCURVE",
"1096 1391 CURVE",
"977 834 LINE"
);
},
{
closed = 1;
nodes = (
"1255 1606 OFFCURVE",
"1236 1626 OFFCURVE",
"1236 1657 CURVE SMOOTH",
"1236 1706 OFFCURVE",
"1265 1737 OFFCURVE",
"1302 1737 CURVE SMOOTH",
"1335 1737 OFFCURVE",
"1351 1718 OFFCURVE",
"1351 1679 CURVE SMOOTH",
"1351 1630 OFFCURVE",
"1330 1606 OFFCURVE",
"1288 1606 CURVE SMOOTH"
);
}
);
width = 1368;
}
);
note = Aringacute;
unicode = 01FA;
},
{
glyphname = Atilde;
lastChange = "2015-07-03 17:18:41 +0000";
layers = (
{
layerId = "C17AF255-02ED-42AD-B705-02996A84AD46";
paths = (
{
closed = 1;
nodes = (
"431 -214 OFFCURVE",
"418 -184 OFFCURVE",
"418 -119 CURVE SMOOTH",
"418 -12 OFFCURVE",
"446 138 OFFCURVE",
"494 304 CURVE SMOOTH",
"541 470 OFFCURVE",
"607 650 OFFCURVE",
"684 817 CURVE",
"773 809 OFFCURVE",
"854 791 OFFCURVE",
"958 743 CURVE",
"801 0 LINE",
"1096 0 LINE",
"1417 1507 LINE",
"1368 1530 OFFCURVE",
"1303 1536 OFFCURVE",
"1255 1536 CURVE SMOOTH",
"1135 1536 OFFCURVE",
"1010 1467 OFFCURVE",
"887 1357 CURVE SMOOTH",
"764 1247 OFFCURVE",
"647 1096 OFFCURVE",
"543 932 CURVE",
"500 936 OFFCURVE",
"464 938 OFFCURVE",
"436 938 CURVE SMOOTH",
"316 938 OFFCURVE",
"212 909 OFFCURVE",
"137 864 CURVE SMOOTH",
"62 819 OFFCURVE",
"18 755 OFFCURVE",
"18 686 CURVE SMOOTH",
"18 646 OFFCURVE",
"32 616 OFFCURVE",
"55 597 CURVE SMOOTH",
"78 577 OFFCURVE",
"109 567 OFFCURVE",
"145 567 CURVE SMOOTH",
"209 567 OFFCURVE",
"260 598 OFFCURVE",
"260 647 CURVE SMOOTH",
"260 678 OFFCURVE",
"244 711 OFFCURVE",
"233 711 CURVE",
"260 782 OFFCURVE",
"344 809 OFFCURVE",
"473 817 CURVE",
"382 661 OFFCURVE",
"308 498 OFFCURVE",
"255 352 CURVE SMOOTH",
"202 206 OFFCURVE",
"172 75 OFFCURVE",
"172 -16 CURVE SMOOTH",
"172 -123 OFFCURVE",
"213 -177 OFFCURVE",
"269 -204 CURVE SMOOTH",
"324 -232 OFFCURVE",
"391 -233 OFFCURVE",
"446 -233 CURVE"
);
},
{
closed = 1;
nodes = (
"897 866 OFFCURVE",
"810 889 OFFCURVE",
"727 905 CURVE",
"784 1020 OFFCURVE",
"847 1125 OFFCURVE",
"909 1210 CURVE SMOOTH",
"971 1294 OFFCURVE",
"1035 1358 OFFCURVE",
"1096 1391 CURVE",
"977 834 LINE"
);
},
{
closed = 1;
nodes = (
"1406 1677 OFFCURVE",
"1484 1704 OFFCURVE",
"1545 1744 CURVE SMOOTH",
"1605 1783 OFFCURVE",
"1648 1834 OFFCURVE",
"1659 1882 CURVE",
"1647 1884 LINE",
"1616 1853 OFFCURVE",
"1569 1837 OFFCURVE",
"1518 1837 CURVE SMOOTH",
"1458 1837 OFFCURVE",
"1411 1854 OFFCURVE",
"1360 1871 CURVE SMOOTH",
"1308 1888 OFFCURVE",
"1253 1905 OFFCURVE",
"1180 1905 CURVE SMOOTH",
"1023 1905 OFFCURVE",
"903 1836 OFFCURVE",
"838 1704 CURVE",
"850 1700 LINE",
"889 1735 OFFCURVE",
"934 1753 OFFCURVE",
"985 1753 CURVE SMOOTH",
"1042 1753 OFFCURVE",
"1094 1734 OFFCURVE",
"1149 1715 CURVE SMOOTH",
"1204 1696 OFFCURVE",
"1261 1677 OFFCURVE",
"1329 1677 CURVE SMOOTH"
);
}
);
width = 1368;
}
);
note = Atilde;
unicode = 00C3;
},
{
glyphname = AE;
lastChange = "2015-07-03 17:18:39 +0000";
layers = (
{
layerId = "C17AF255-02ED-42AD-B705-02996A84AD46";
paths = (
{
closed = 1;
nodes = (
"446 -227 OFFCURVE",
"445 -224 OFFCURVE",
"442 -221 CURVE SMOOTH",
"439 -218 OFFCURVE",
"435 -214 OFFCURVE",
"432 -207 CURVE SMOOTH",
"429 -200 OFFCURVE",
"426 -190 OFFCURVE",
"423 -176 CURVE SMOOTH",
"420 -163 OFFCURVE",
"418 -143 OFFCURVE",
"418 -117 CURVE SMOOTH",
"418 -9 OFFCURVE",
"446 141 OFFCURVE",
"493 306 CURVE SMOOTH",
"540 471 OFFCURVE",
"606 650 OFFCURVE",
"682 817 CURVE",
"770 810 OFFCURVE",
"854 791 OFFCURVE",
"958 743 CURVE",
"801 0 LINE",
"1556 0 LINE",
"1599 217 LINE",
"1141 217 LINE",
"1245 707 LINE",
"1554 707 LINE",
"1595 858 LINE",
"1278 858 LINE",
"1389 1376 LINE",
"1409 1369 OFFCURVE",
"1429 1361 OFFCURVE",
"1448 1354 CURVE",
"1467 1346 OFFCURVE",
"1486 1339 OFFCURVE",
"1506 1333 CURVE SMOOTH",
"1546 1320 OFFCURVE",
"1590 1311 OFFCURVE",
"1642 1311 CURVE SMOOTH",
"1684 1311 OFFCURVE",
"1718 1319 OFFCURVE",
"1743 1334 CURVE SMOOTH",
"1794 1364 OFFCURVE",
"1823 1410 OFFCURVE",
"1839 1463 CURVE SMOOTH",
"1847 1489 OFFCURVE",
"1855 1513 OFFCURVE",
"1862 1536 CURVE",
"1771 1505 OFFCURVE",
"1694 1497 OFFCURVE",
"1622 1497 CURVE SMOOTH",
"1550 1497 OFFCURVE",
"1486 1508 OFFCURVE",
"1426 1518 CURVE SMOOTH",
"1366 1528 OFFCURVE",
"1309 1538 OFFCURVE",
"1253 1538 CURVE SMOOTH",
"1133 1538 OFFCURVE",
"1006 1468 OFFCURVE",
"883 1356 CURVE SMOOTH",
"760 1244 OFFCURVE",
"642 1091 OFFCURVE",
"539 926 CURVE",
"494 930 OFFCURVE",
"453 932 OFFCURVE",
"418 932 CURVE SMOOTH",
"313 932 OFFCURVE",
"212 904 OFFCURVE",
"139 861 CURVE SMOOTH",
"66 817 OFFCURVE",
"18 759 OFFCURVE",
"18 696 CURVE SMOOTH",
"18 649 OFFCURVE",
"33 618 OFFCURVE",
"55 597 CURVE SMOOTH",
"77 576 OFFCURVE",
"106 567 OFFCURVE",
"135 567 CURVE SMOOTH",
"223 567 OFFCURVE",
"260 604 OFFCURVE",
"260 647 CURVE SMOOTH",
"260 678 OFFCURVE",
"244 711 OFFCURVE",
"233 711 CURVE",
"264 784 OFFCURVE",
"350 809 OFFCURVE",
"473 817 CURVE",
"382 661 OFFCURVE",
"308 500 OFFCURVE",
"255 356 CURVE SMOOTH",
"202 212 OFFCURVE",
"172 85 OFFCURVE",
"172 -2 CURVE SMOOTH",
"172 -110 OFFCURVE",
"205 -167 OFFCURVE",
"256 -196 CURVE SMOOTH",
"307 -225 OFFCURVE",
"375 -228 OFFCURVE",
"446 -231 CURVE"
);
},
{
closed = 1;
nodes = (
"897 865 OFFCURVE",
"811 887 OFFCURVE",
"723 903 CURVE",
"780 1019 OFFCURVE",
"842 1124 OFFCURVE",
"906 1209 CURVE SMOOTH",
"969 1293 OFFCURVE",
"1033 1356 OFFCURVE",
"1096 1391 CURVE",
"977 834 LINE"
);
}
);
width = 1565;
}
);
note = AE;
unicode = 00C6;
},
{
glyphname = AEacute;
lastChange = "2015-07-03 17:18:41 +0000";
layers = (
{
layerId = "C17AF255-02ED-42AD-B705-02996A84AD46";
paths = (
{
closed = 1;
nodes = (
"446 -227 OFFCURVE",
"445 -224 OFFCURVE",
"442 -221 CURVE SMOOTH",
"439 -218 OFFCURVE",
"435 -214 OFFCURVE",
"432 -207 CURVE SMOOTH",
"429 -200 OFFCURVE",
"426 -190 OFFCURVE",
"423 -176 CURVE SMOOTH",
"420 -163 OFFCURVE",
"418 -143 OFFCURVE",
"418 -117 CURVE SMOOTH",
"418 -9 OFFCURVE",
"446 141 OFFCURVE",
"493 306 CURVE SMOOTH",
"540 471 OFFCURVE",
"606 650 OFFCURVE",
"682 817 CURVE",
"770 810 OFFCURVE",
"854 791 OFFCURVE",
"958 743 CURVE",
"801 0 LINE",
"1556 0 LINE",
"1599 217 LINE",
"1141 217 LINE",
"1245 707 LINE",
"1554 707 LINE",
"1595 858 LINE",
"1278 858 LINE",
"1389 1376 LINE",
"1409 1369 OFFCURVE",
"1429 1361 OFFCURVE",
"1448 1354 CURVE",
"1467 1346 OFFCURVE",
"1486 1339 OFFCURVE",
"1506 1333 CURVE SMOOTH",
"1546 1320 OFFCURVE",
"1590 1311 OFFCURVE",
"1642 1311 CURVE SMOOTH",
"1684 1311 OFFCURVE",
"1718 1319 OFFCURVE",
"1743 1334 CURVE SMOOTH",
"1794 1364 OFFCURVE",
"1823 1410 OFFCURVE",
"1839 1463 CURVE SMOOTH",
"1847 1489 OFFCURVE",
"1855 1513 OFFCURVE",
"1862 1536 CURVE",
"1771 1505 OFFCURVE",
"1694 1497 OFFCURVE",
"1622 1497 CURVE SMOOTH",
"1550 1497 OFFCURVE",
"1486 1508 OFFCURVE",
"1426 1518 CURVE SMOOTH",
"1366 1528 OFFCURVE",
"1309 1538 OFFCURVE",
"1253 1538 CURVE SMOOTH",
"1133 1538 OFFCURVE",
"1006 1468 OFFCURVE",
"883 1356 CURVE SMOOTH",
"760 1244 OFFCURVE",
"642 1091 OFFCURVE",
"539 926 CURVE",
"494 930 OFFCURVE",
"453 932 OFFCURVE",
"418 932 CURVE SMOOTH",
"313 932 OFFCURVE",
"212 904 OFFCURVE",
"139 861 CURVE SMOOTH",
"66 817 OFFCURVE",
"18 759 OFFCURVE",
"18 696 CURVE SMOOTH",
"18 649 OFFCURVE",
"33 618 OFFCURVE",
"55 597 CURVE SMOOTH",
"77 576 OFFCURVE",
"106 567 OFFCURVE",
"135 567 CURVE SMOOTH",
"223 567 OFFCURVE",
"260 604 OFFCURVE",
"260 647 CURVE SMOOTH",
"260 678 OFFCURVE",
"244 711 OFFCURVE",
"233 711 CURVE",
"264 784 OFFCURVE",
"350 809 OFFCURVE",
"473 817 CURVE",
"382 661 OFFCURVE",
"308 500 OFFCURVE",
"255 356 CURVE SMOOTH",
"202 212 OFFCURVE",
"172 85 OFFCURVE",
"172 -2 CURVE SMOOTH",
"172 -110 OFFCURVE",
"205 -167 OFFCURVE",
"256 -196 CURVE SMOOTH",
"307 -225 OFFCURVE",
"375 -228 OFFCURVE",
"446 -231 CURVE"
);
},
{
closed = 1;
nodes = (
"897 865 OFFCURVE",
"811 887 OFFCURVE",
"723 903 CURVE",
"780 1019 OFFCURVE",
"842 1124 OFFCURVE",
"906 1209 CURVE SMOOTH",
"969 1293 OFFCURVE",
"1033 1356 OFFCURVE",
"1096 1391 CURVE",
"977 834 LINE"
);
},
{
closed = 1;
nodes = (
"1412 1661 LINE",
"1701 2048 LINE",
"1486 2048 LINE",
"1300 1661 LINE"
);
}
);
width = 1565;
}
);
note = AEacute;
unicode = 01FC;
},
{
glyphname = B;
lastChange = "2015-07-03 17:18:40 +0000";
layers = (
{
layerId = "C17AF255-02ED-42AD-B705-02996A84AD46";
paths = (
{
closed = 1;
nodes = (
"908 -35 OFFCURVE",
"995 9 OFFCURVE",
"1062 74 CURVE SMOOTH",
"1129 139 OFFCURVE",
"1173 227 OFFCURVE",
"1201 315 CURVE SMOOTH",
"1229 402 OFFCURVE",
"1241 490 OFFCURVE",
"1241 555 CURVE SMOOTH",
"1241 632 OFFCURVE",
"1225 706 OFFCURVE",
"1186 766 CURVE SMOOTH",
"1147 825 OFFCURVE",
"1087 869 OFFCURVE",
"999 885 CURVE",
"1066 922 OFFCURVE",
"1117 974 OFFCURVE",
"1152 1030 CURVE SMOOTH",
"1187 1086 OFFCURVE",
"1204 1149 OFFCURVE",
"1204 1210 CURVE SMOOTH",
"1204 1294 OFFCURVE",
"1170 1376 OFFCURVE",
"1099 1436 CURVE SMOOTH",
"1027 1496 OFFCURVE",
"919 1536 OFFCURVE",
"768 1536 CURVE SMOOTH",
"639 1536 OFFCURVE",
"514 1507 OFFCURVE",
"404 1458 CURVE SMOOTH",
"294 1409 OFFCURVE",
"199 1340 OFFCURVE",
"132 1260 CURVE SMOOTH",
"64 1179 OFFCURVE",
"25 1088 OFFCURVE",
"25 993 CURVE SMOOTH",
"25 854 OFFCURVE",
"105 805 OFFCURVE",
"244 805 CURVE",
"244 809 OFFCURVE",
"243 814 OFFCURVE",
"240 819 CURVE SMOOTH",
"237 824 OFFCURVE",
"233 832 OFFCURVE",
"230 842 CURVE",
"222 861 OFFCURVE",
"215 892 OFFCURVE",
"215 944 CURVE SMOOTH",
"215 1056 OFFCURVE",
"246 1149 OFFCURVE",
"295 1223 CURVE SMOOTH",
"343 1297 OFFCURVE",
"412 1351 OFFCURVE",
"488 1388 CURVE SMOOTH",
"563 1424 OFFCURVE",
"647 1442 OFFCURVE",
"727 1442 CURVE SMOOTH",
"824 1442 OFFCURVE",
"892 1415 OFFCURVE",
"935 1374 CURVE SMOOTH",
"978 1333 OFFCURVE",
"997 1278 OFFCURVE",
"997 1221 CURVE SMOOTH",
"997 1144 OFFCURVE",
"963 1061 OFFCURVE",
"910 997 CURVE SMOOTH",
"857 933 OFFCURVE",
"783 889 OFFCURVE",
"702 889 CURVE SMOOTH",
"690 889 LINE",
"786 1343 LINE",
"483 1303 LINE",
"205 0 LINE",
"500 0 LINE",
"668 784 LINE",
"707 791 OFFCURVE",
"745 791 OFFCURVE",
"762 791 CURVE SMOOTH",
"837 791 OFFCURVE",
"885 761 OFFCURVE",
"915 714 CURVE SMOOTH",
"945 666 OFFCURVE",
"956 601 OFFCURVE",
"956 530 CURVE SMOOTH",
"956 453 OFFCURVE",
"943 360 OFFCURVE",
"911 288 CURVE SMOOTH",
"879 215 OFFCURVE",
"829 162 OFFCURVE",
"754 162 CURVE SMOOTH",
"707 162 OFFCURVE",
"668 180 OFFCURVE",
"616 236 CURVE",
"597 189 OFFCURVE",
"590 152 OFFCURVE",
"590 117 CURVE SMOOTH",
"590 54 OFFCURVE",
"619 17 OFFCURVE",
"659 -6 CURVE SMOOTH",
"698 -29 OFFCURVE",
"749 -35 OFFCURVE",
"793 -35 CURVE SMOOTH"
);
}
);
width = 1313;
}
);
note = B;
unicode = 0042;
},
{
glyphname = C;
lastChange = "2015-07-03 17:18:40 +0000";
layers = (
{
layerId = "C17AF255-02ED-42AD-B705-02996A84AD46";
paths = (
{
closed = 1;
nodes = (
"582 -33 OFFCURVE",
"700 -6 OFFCURVE",
"809 55 CURVE SMOOTH",
"917 115 OFFCURVE",
"1016 211 OFFCURVE",
"1071 348 CURVE",
"1024 369 LINE",
"928 240 OFFCURVE",
"786 164 OFFCURVE",
"625 164 CURVE SMOOTH",
"525 164 OFFCURVE",
"464 197 OFFCURVE",
"428 253 CURVE SMOOTH",
"391 309 OFFCURVE",
"379 388 OFFCURVE",
"379 483 CURVE SMOOTH",
"379 622 OFFCURVE",
"402 776 OFFCURVE",
"439 917 CURVE SMOOTH",
"476 1058 OFFCURVE",
"530 1189 OFFCURVE",
"594 1285 CURVE SMOOTH",
"657 1380 OFFCURVE",
"729 1440 OFFCURVE",
"805 1440 CURVE SMOOTH",
"850 1440 OFFCURVE",
"882 1425 OFFCURVE",
"902 1402 CURVE SMOOTH",
"922 1379 OFFCURVE",
"930 1347 OFFCURVE",
"930 1315 CURVE SMOOTH",
"930 1275 OFFCURVE",
"918 1234 OFFCURVE",
"901 1200 CURVE SMOOTH",
"884 1166 OFFCURVE",
"860 1138 OFFCURVE",
"836 1126 CURVE",
"875 1079 OFFCURVE",
"920 1073 OFFCURVE",
"952 1073 CURVE SMOOTH",
"1004 1073 OFFCURVE",
"1040 1093 OFFCURVE",
"1064 1127 CURVE SMOOTH",
"1087 1161 OFFCURVE",
"1096 1207 OFFCURVE",
"1096 1262 CURVE SMOOTH",
"1096 1359 OFFCURVE",
"1059 1428 OFFCURVE",
"997 1472 CURVE SMOOTH",
"935 1516 OFFCURVE",
"849 1536 OFFCURVE",
"754 1536 CURVE SMOOTH",
"619 1536 OFFCURVE",
"508 1493 OFFCURVE",
"416 1422 CURVE SMOOTH",
"324 1351 OFFCURVE",
"251 1253 OFFCURVE",
"195 1143 CURVE SMOOTH",
"139 1033 OFFCURVE",
"100 911 OFFCURVE",
"75 794 CURVE SMOOTH",
"50 677 OFFCURVE",
"39 564 OFFCURVE",
"39 471 CURVE SMOOTH",
"39 287 OFFCURVE",
"76 161 OFFCURVE",
"150 81 CURVE SMOOTH",
"224 1 OFFCURVE",
"335 -33 OFFCURVE",
"487 -33 CURVE SMOOTH"
);
}
);
width = 1018;
}
);
note = C;
unicode = 0043;
},
{
glyphname = Cacute;
lastChange = "2015-07-03 17:18:38 +0000";
layers = (
{
layerId = "C17AF255-02ED-42AD-B705-02996A84AD46";
paths = (
{
closed = 1;
nodes = (
"582 -33 OFFCURVE",
"700 -6 OFFCURVE",
"809 55 CURVE SMOOTH",
"917 115 OFFCURVE",
"1016 211 OFFCURVE",
"1071 348 CURVE",
"1024 369 LINE",
"928 240 OFFCURVE",
"786 164 OFFCURVE",
"625 164 CURVE SMOOTH",
"525 164 OFFCURVE",
"464 197 OFFCURVE",
"428 253 CURVE SMOOTH",
"391 309 OFFCURVE",
"379 388 OFFCURVE",
"379 483 CURVE SMOOTH",
"379 622 OFFCURVE",
"402 776 OFFCURVE",
"439 917 CURVE SMOOTH",
"476 1058 OFFCURVE",
"530 1189 OFFCURVE",
"594 1285 CURVE SMOOTH",
"657 1380 OFFCURVE",
"729 1440 OFFCURVE",
"805 1440 CURVE SMOOTH",
"850 1440 OFFCURVE",
"882 1425 OFFCURVE",
"902 1402 CURVE SMOOTH",
"922 1379 OFFCURVE",
"930 1347 OFFCURVE",
"930 1315 CURVE SMOOTH",
"930 1275 OFFCURVE",
"918 1234 OFFCURVE",
"901 1200 CURVE SMOOTH",
"884 1166 OFFCURVE",
"860 1138 OFFCURVE",
"836 1126 CURVE",
"875 1079 OFFCURVE",
"920 1073 OFFCURVE",
"952 1073 CURVE SMOOTH",
"1004 1073 OFFCURVE",
"1040 1093 OFFCURVE",
"1064 1127 CURVE SMOOTH",
"1087 1161 OFFCURVE",
"1096 1207 OFFCURVE",
"1096 1262 CURVE SMOOTH",
"1096 1359 OFFCURVE",
"1059 1428 OFFCURVE",
"997 1472 CURVE SMOOTH",
"935 1516 OFFCURVE",
"849 1536 OFFCURVE",
"754 1536 CURVE SMOOTH",
"619 1536 OFFCURVE",
"508 1493 OFFCURVE",
"416 1422 CURVE SMOOTH",
"324 1351 OFFCURVE",
"251 1253 OFFCURVE",
"195 1143 CURVE SMOOTH",
"139 1033 OFFCURVE",
"100 911 OFFCURVE",
"75 794 CURVE SMOOTH",
"50 677 OFFCURVE",
"39 564 OFFCURVE",
"39 471 CURVE SMOOTH",
"39 287 OFFCURVE",
"76 161 OFFCURVE",
"150 81 CURVE SMOOTH",
"224 1 OFFCURVE",
"335 -33 OFFCURVE",
"487 -33 CURVE SMOOTH"
);
},
{
closed = 1;
nodes = (
"844 1661 LINE",
"1092 2048 LINE",
"877 2048 LINE",
"690 1661 LINE"
);
}
);
width = 1018;
}
);
note = Cacute;
unicode = 0106;
},
{
glyphname = Ccaron;
lastChange = "2015-07-03 17:18:38 +0000";
layers = (
{
layerId = "C17AF255-02ED-42AD-B705-02996A84AD46";
paths = (
{
closed = 1;
nodes = (
"582 -33 OFFCURVE",
"700 -6 OFFCURVE",
"809 55 CURVE SMOOTH",
"917 115 OFFCURVE",
"1016 211 OFFCURVE",
"1071 348 CURVE",
"1024 369 LINE",
"928 240 OFFCURVE",
"786 164 OFFCURVE",
"625 164 CURVE SMOOTH",
"525 164 OFFCURVE",
"464 197 OFFCURVE",
"428 253 CURVE SMOOTH",
"391 309 OFFCURVE",
"379 388 OFFCURVE",
"379 483 CURVE SMOOTH",
"379 622 OFFCURVE",
"402 776 OFFCURVE",
"439 917 CURVE SMOOTH",
"476 1058 OFFCURVE",
"530 1189 OFFCURVE",
"594 1285 CURVE SMOOTH",
"657 1380 OFFCURVE",
"729 1440 OFFCURVE",
"805 1440 CURVE SMOOTH",
"850 1440 OFFCURVE",
"882 1425 OFFCURVE",
"902 1402 CURVE SMOOTH",
"922 1379 OFFCURVE",
"930 1347 OFFCURVE",
"930 1315 CURVE SMOOTH",
"930 1275 OFFCURVE",
"918 1234 OFFCURVE",
"901 1200 CURVE SMOOTH",
"884 1166 OFFCURVE",
"860 1138 OFFCURVE",
"836 1126 CURVE",
"875 1079 OFFCURVE",
"920 1073 OFFCURVE",
"952 1073 CURVE SMOOTH",
"1004 1073 OFFCURVE",
"1040 1093 OFFCURVE",
"1064 1127 CURVE SMOOTH",
"1087 1161 OFFCURVE",
"1096 1207 OFFCURVE",
"1096 1262 CURVE SMOOTH",
"1096 1359 OFFCURVE",
"1059 1428 OFFCURVE",
"997 1472 CURVE SMOOTH",
"935 1516 OFFCURVE",
"849 1536 OFFCURVE",
"754 1536 CURVE SMOOTH",
"619 1536 OFFCURVE",
"508 1493 OFFCURVE",
"416 1422 CURVE SMOOTH",
"324 1351 OFFCURVE",
"251 1253 OFFCURVE",
"195 1143 CURVE SMOOTH",
"139 1033 OFFCURVE",
"100 911 OFFCURVE",
"75 794 CURVE SMOOTH",
"50 677 OFFCURVE",
"39 564 OFFCURVE",
"39 471 CURVE SMOOTH",
"39 287 OFFCURVE",
"76 161 OFFCURVE",
"150 81 CURVE SMOOTH",
"224 1 OFFCURVE",
"335 -33 OFFCURVE",
"487 -33 CURVE SMOOTH"
);
},
{
closed = 1;
nodes = (
"764 1661 LINE",
"1198 2048 LINE",
"1108 2048 LINE",
"786 1884 LINE",
"664 2048 LINE",
"598 2048 LINE",
"721 1661 LINE"
);
}
);
width = 1018;
}
);
note = Ccaron;
unicode = 010C;
},
{
glyphname = Ccedilla;
lastChange = "2015-07-03 17:18:40 +0000";
layers = (
{
layerId = "C17AF255-02ED-42AD-B705-02996A84AD46";
paths = (
{
closed = 1;
nodes = (
"556 -446 OFFCURVE",
"618 -426 OFFCURVE",
"664 -389 CURVE SMOOTH",
"710 -352 OFFCURVE",
"741 -296 OFFCURVE",
"741 -221 CURVE SMOOTH",
"741 -157 OFFCURVE",
"702 -119 OFFCURVE",
"614 -119 CURVE SMOOTH",
"586 -119 OFFCURVE",
"549 -124 OFFCURVE",
"506 -135 CURVE",
"549 -29 LINE",
"641 -18 OFFCURVE",
"747 14 OFFCURVE",
"843 75 CURVE SMOOTH",
"938 136 OFFCURVE",
"1022 225 OFFCURVE",
"1071 348 CURVE",
"1024 369 LINE",
"928 240 OFFCURVE",
"786 164 OFFCURVE",
"625 164 CURVE SMOOTH",
"525 164 OFFCURVE",
"464 197 OFFCURVE",
"428 253 CURVE SMOOTH",
"391 309 OFFCURVE",
"379 388 OFFCURVE",
"379 483 CURVE SMOOTH",
"379 622 OFFCURVE",
"402 776 OFFCURVE",
"439 917 CURVE SMOOTH",
"476 1058 OFFCURVE",
"530 1189 OFFCURVE",
"594 1285 CURVE SMOOTH",
"657 1380 OFFCURVE",
"729 1440 OFFCURVE",
"805 1440 CURVE SMOOTH",
"850 1440 OFFCURVE",
"882 1425 OFFCURVE",
"902 1402 CURVE SMOOTH",
"922 1379 OFFCURVE",
"930 1347 OFFCURVE",
"930 1315 CURVE SMOOTH",
"930 1275 OFFCURVE",
"918 1234 OFFCURVE",
"901 1200 CURVE SMOOTH",
"884 1166 OFFCURVE",
"860 1138 OFFCURVE",
"836 1126 CURVE",
"875 1079 OFFCURVE",
"920 1073 OFFCURVE",
"952 1073 CURVE SMOOTH",
"1004 1073 OFFCURVE",
"1040 1093 OFFCURVE",
"1064 1127 CURVE SMOOTH",
"1087 1161 OFFCURVE",
"1096 1207 OFFCURVE",
"1096 1262 CURVE SMOOTH",
"1096 1359 OFFCURVE",
"1059 1428 OFFCURVE",
"997 1472 CURVE SMOOTH",
"935 1516 OFFCURVE",
"849 1536 OFFCURVE",
"754 1536 CURVE SMOOTH",
"619 1536 OFFCURVE",
"508 1493 OFFCURVE",
"416 1422 CURVE SMOOTH",
"324 1351 OFFCURVE",
"251 1253 OFFCURVE",
"195 1143 CURVE SMOOTH",
"139 1033 OFFCURVE",
"100 911 OFFCURVE",
"75 794 CURVE SMOOTH",
"50 677 OFFCURVE",
"39 564 OFFCURVE",
"39 471 CURVE SMOOTH",
"39 292 OFFCURVE",
"73 168 OFFCURVE",
"143 88 CURVE SMOOTH",
"213 8 OFFCURVE",
"317 -29 OFFCURVE",
"461 -33 CURVE",
"385 -244 LINE",
"408 -233 OFFCURVE",
"436 -219 OFFCURVE",
"492 -219 CURVE SMOOTH",
"549 -219 OFFCURVE",
"571 -254 OFFCURVE",
"571 -293 CURVE SMOOTH",
"571 -314 OFFCURVE",
"565 -336 OFFCURVE",
"554 -352 CURVE",
"542 -368 OFFCURVE",
"527 -379 OFFCURVE",
"510 -379 CURVE SMOOTH",
"481 -379 OFFCURVE",
"463 -365 OFFCURVE",
"443 -351 CURVE SMOOTH",
"422 -337 OFFCURVE",
"399 -324 OFFCURVE",
"358 -324 CURVE SMOOTH",
"319 -324 OFFCURVE",
"295 -356 OFFCURVE",
"276 -389 CURVE",
"305 -405 OFFCURVE",
"334 -418 OFFCURVE",
"369 -429 CURVE SMOOTH",
"404 -440 OFFCURVE",
"444 -446 OFFCURVE",
"496 -446 CURVE SMOOTH"
);
}
);
width = 1018;
}
);
note = Ccedilla;
unicode = 00C7;
},
{
glyphname = Ccircumflex;
lastChange = "2015-07-03 17:18:40 +0000";
layers = (
{
layerId = "C17AF255-02ED-42AD-B705-02996A84AD46";
paths = (
{
closed = 1;
nodes = (
"582 -33 OFFCURVE",
"700 -6 OFFCURVE",
"809 55 CURVE SMOOTH",
"917 115 OFFCURVE",
"1016 211 OFFCURVE",
"1071 348 CURVE",
"1024 369 LINE",
"928 240 OFFCURVE",
"786 164 OFFCURVE",
"625 164 CURVE SMOOTH",
"525 164 OFFCURVE",
"464 197 OFFCURVE",
"428 253 CURVE SMOOTH",
"391 309 OFFCURVE",
"379 388 OFFCURVE",
"379 483 CURVE SMOOTH",
"379 622 OFFCURVE",
"402 776 OFFCURVE",
"439 917 CURVE SMOOTH",
"476 1058 OFFCURVE",
"530 1189 OFFCURVE",
"594 1285 CURVE SMOOTH",
"657 1380 OFFCURVE",
"729 1440 OFFCURVE",
"805 1440 CURVE SMOOTH",
"850 1440 OFFCURVE",
"882 1425 OFFCURVE",
"902 1402 CURVE SMOOTH",
"922 1379 OFFCURVE",
"930 1347 OFFCURVE",
"930 1315 CURVE SMOOTH",
"930 1275 OFFCURVE",
"918 1234 OFFCURVE",
"901 1200 CURVE SMOOTH",
"884 1166 OFFCURVE",
"860 1138 OFFCURVE",
"836 1126 CURVE",
"875 1079 OFFCURVE",
"920 1073 OFFCURVE",
"952 1073 CURVE SMOOTH",
"1004 1073 OFFCURVE",
"1040 1093 OFFCURVE",
"1064 1127 CURVE SMOOTH",
"1087 1161 OFFCURVE",
"1096 1207 OFFCURVE",
"1096 1262 CURVE SMOOTH",
"1096 1359 OFFCURVE",
"1059 1428 OFFCURVE",
"997 1472 CURVE SMOOTH",
"935 1516 OFFCURVE",
"849 1536 OFFCURVE",
"754 1536 CURVE SMOOTH",
"619 1536 OFFCURVE",
"508 1493 OFFCURVE",
"416 1422 CURVE SMOOTH",
"324 1351 OFFCURVE",
"251 1253 OFFCURVE",
"195 1143 CURVE SMOOTH",
"139 1033 OFFCURVE",
"100 911 OFFCURVE",
"75 794 CURVE SMOOTH",
"50 677 OFFCURVE",
"39 564 OFFCURVE",
"39 471 CURVE SMOOTH",
"39 287 OFFCURVE",
"76 161 OFFCURVE",
"150 81 CURVE SMOOTH",
"224 1 OFFCURVE",
"335 -33 OFFCURVE",
"487 -33 CURVE SMOOTH"
);
},
{
closed = 1;
nodes = (
"504 1661 LINE",
"825 1825 LINE",
"948 1661 LINE",
"1014 1661 LINE",
"891 2048 LINE",
"848 2048 LINE",
"414 1661 LINE"
);
}
);
width = 1018;
}
);
note = Ccircumflex;
unicode = 0108;
},
{
glyphname = Cdotaccent;
lastChange = "2015-07-03 17:18:38 +0000";
layers = (
{
layerId = "C17AF255-02ED-42AD-B705-02996A84AD46";
paths = (
{
closed = 1;
nodes = (
"582 -33 OFFCURVE",
"700 -6 OFFCURVE",
"809 55 CURVE SMOOTH",
"917 115 OFFCURVE",
"1016 211 OFFCURVE",
"1071 348 CURVE",
"1024 369 LINE",
"928 240 OFFCURVE",
"786 164 OFFCURVE",
"625 164 CURVE SMOOTH",
"525 164 OFFCURVE",
"464 197 OFFCURVE",
"428 253 CURVE SMOOTH",
"391 309 OFFCURVE",
"379 388 OFFCURVE",
"379 483 CURVE SMOOTH",
"379 622 OFFCURVE",
"402 776 OFFCURVE",
"439 917 CURVE SMOOTH",
"476 1058 OFFCURVE",
"530 1189 OFFCURVE",
"594 1285 CURVE SMOOTH",
"657 1380 OFFCURVE",
"729 1440 OFFCURVE",
"805 1440 CURVE SMOOTH",
"850 1440 OFFCURVE",
"882 1425 OFFCURVE",
"902 1402 CURVE SMOOTH",
"922 1379 OFFCURVE",
"930 1347 OFFCURVE",
"930 1315 CURVE SMOOTH",
"930 1275 OFFCURVE",
"918 1234 OFFCURVE",
"901 1200 CURVE SMOOTH",
"884 1166 OFFCURVE",
"860 1138 OFFCURVE",
"836 1126 CURVE",
"875 1079 OFFCURVE",
"920 1073 OFFCURVE",
"952 1073 CURVE SMOOTH",
"1004 1073 OFFCURVE",
"1040 1093 OFFCURVE",
"1064 1127 CURVE SMOOTH",
"1087 1161 OFFCURVE",
"1096 1207 OFFCURVE",
"1096 1262 CURVE SMOOTH",
"1096 1359 OFFCURVE",
"1059 1428 OFFCURVE",
"997 1472 CURVE SMOOTH",
"935 1516 OFFCURVE",
"849 1536 OFFCURVE",
"754 1536 CURVE SMOOTH",
"619 1536 OFFCURVE",
"508 1493 OFFCURVE",
"416 1422 CURVE SMOOTH",
"324 1351 OFFCURVE",
"251 1253 OFFCURVE",
"195 1143 CURVE SMOOTH",
"139 1033 OFFCURVE",
"100 911 OFFCURVE",
"75 794 CURVE SMOOTH",
"50 677 OFFCURVE",
"39 564 OFFCURVE",
"39 471 CURVE SMOOTH",
"39 287 OFFCURVE",
"76 161 OFFCURVE",
"150 81 CURVE SMOOTH",
"224 1 OFFCURVE",
"335 -33 OFFCURVE",
"487 -33 CURVE SMOOTH"
);
},
{
closed = 1;
nodes = (
"957 1683 OFFCURVE",
"998 1701 OFFCURVE",
"1028 1730 CURVE SMOOTH",
"1058 1758 OFFCURVE",
"1076 1799 OFFCURVE",
"1076 1844 CURVE SMOOTH",
"1076 1889 OFFCURVE",
"1058 1931 OFFCURVE",
"1028 1960 CURVE SMOOTH",
"998 1989 OFFCURVE",
"957 2008 OFFCURVE",
"912 2008 CURVE SMOOTH",
"867 2008 OFFCURVE",
"826 1989 OFFCURVE",
"797 1960 CURVE SMOOTH",
"768 1931 OFFCURVE",
"750 1889 OFFCURVE",
"750 1844 CURVE SMOOTH",
"750 1799 OFFCURVE",
"768 1758 OFFCURVE",
"797 1730 CURVE SMOOTH",
"826 1701 OFFCURVE",
"867 1683 OFFCURVE",
"912 1683 CURVE SMOOTH"
);
}
);
width = 1018;
}
);
note = Cdotaccent;
unicode = 010A;
},
{
glyphname = D;
lastChange = "2015-07-03 17:18:38 +0000";
layers = (
{
layerId = "C17AF255-02ED-42AD-B705-02996A84AD46";
paths = (
{
closed = 1;
nodes = (
"855 -27 OFFCURVE",
"952 29 OFFCURVE",
"1036 121 CURVE SMOOTH",
"1120 213 OFFCURVE",
"1192 341 OFFCURVE",
"1242 485 CURVE SMOOTH",
"1292 629 OFFCURVE",
"1321 790 OFFCURVE",
"1321 946 CURVE SMOOTH",
"1321 1050 OFFCURVE",
"1304 1151 OFFCURVE",
"1268 1239 CURVE SMOOTH",
"1231 1326 OFFCURVE",
"1173 1400 OFFCURVE",
"1092 1453 CURVE SMOOTH",
"1011 1505 OFFCURVE",
"906 1536 OFFCURVE",
"774 1536 CURVE SMOOTH",
"635 1536 OFFCURVE",
"504 1507 OFFCURVE",
"392 1458 CURVE SMOOTH",
"279 1409 OFFCURVE",
"184 1340 OFFCURVE",
"117 1260 CURVE SMOOTH",
"50 1180 OFFCURVE",
"12 1088 OFFCURVE",
"12 995 CURVE SMOOTH",
"12 856 OFFCURVE",
"94 805 OFFCURVE",
"231 805 CURVE",
"231 809 OFFCURVE",
"230 814 OFFCURVE",
"227 819 CURVE SMOOTH",
"224 824 OFFCURVE",
"220 832 OFFCURVE",
"217 842 CURVE",
"210 861 OFFCURVE",
"203 892 OFFCURVE",
"203 944 CURVE SMOOTH",
"203 1100 OFFCURVE",
"261 1224 OFFCURVE",
"357 1310 CURVE SMOOTH",
"453 1396 OFFCURVE",
"587 1442 OFFCURVE",
"739 1442 CURVE SMOOTH",
"828 1442 OFFCURVE",
"903 1415 OFFCURVE",
"956 1353 CURVE SMOOTH",
"1008 1291 OFFCURVE",
"1038 1194 OFFCURVE",
"1038 1055 CURVE SMOOTH",
"1038 916 OFFCURVE",
"1022 772 OFFCURVE",
"991 638 CURVE SMOOTH",
"959 504 OFFCURVE",
"914 383 OFFCURVE",
"856 296 CURVE SMOOTH",
"798 208 OFFCURVE",
"726 154 OFFCURVE",
"645 154 CURVE SMOOTH",
"604 154 OFFCURVE",
"565 168 OFFCURVE",
"528 195 CURVE",
"774 1343 LINE",
"471 1303 LINE",
"193 0 LINE",
"487 0 LINE",
"504 82 LINE",
"592 6 OFFCURVE",
"674 -27 OFFCURVE",
"754 -27 CURVE SMOOTH"
);
}
);
width = 1358;
}
);
note = D;
unicode = 0044;
},
{
glyphname = Eth;
lastChange = "2015-07-03 17:18:41 +0000";
layers = (
{
layerId = "C17AF255-02ED-42AD-B705-02996A84AD46";
paths = (
{
closed = 1;
nodes = (
"855 -27 OFFCURVE",
"952 26 OFFCURVE",
"1036 117 CURVE SMOOTH",
"1120 208 OFFCURVE",
"1192 336 OFFCURVE",
"1242 486 CURVE SMOOTH",
"1292 636 OFFCURVE",
"1321 807 OFFCURVE",
"1321 983 CURVE SMOOTH",
"1321 1079 OFFCURVE",
"1308 1172 OFFCURVE",
"1273 1254 CURVE SMOOTH",
"1238 1336 OFFCURVE",
"1182 1407 OFFCURVE",
"1095 1457 CURVE SMOOTH",
"1007 1507 OFFCURVE",
"888 1536 OFFCURVE",
"731 1536 CURVE SMOOTH",
"616 1536 OFFCURVE",
"499 1507 OFFCURVE",
"393 1459 CURVE SMOOTH",
"287 1410 OFFCURVE",
"191 1342 OFFCURVE",
"123 1263 CURVE SMOOTH",
"54 1184 OFFCURVE",
"12 1095 OFFCURVE",
"12 1004 CURVE SMOOTH",
"12 929 OFFCURVE",
"32 880 OFFCURVE",
"69 849 CURVE SMOOTH",
"105 818 OFFCURVE",
"160 805 OFFCURVE",
"231 805 CURVE",
"231 809 OFFCURVE",
"230 814 OFFCURVE",
"227 819 CURVE SMOOTH",
"224 824 OFFCURVE",
"220 832 OFFCURVE",
"217 842 CURVE",
"210 861 OFFCURVE",
"203 892 OFFCURVE",
"203 944 CURVE SMOOTH",
"203 1100 OFFCURVE",
"258 1224 OFFCURVE",
"355 1310 CURVE SMOOTH",
"452 1396 OFFCURVE",
"589 1442 OFFCURVE",
"756 1442 CURVE SMOOTH",
"873 1442 OFFCURVE",
"944 1405 OFFCURVE",
"985 1337 CURVE SMOOTH",
"1026 1269 OFFCURVE",
"1038 1168 OFFCURVE",
"1038 1040 CURVE SMOOTH",
"1038 909 OFFCURVE",
"1022 767 OFFCURVE",
"991 636 CURVE SMOOTH",
"959 504 OFFCURVE",
"914 384 OFFCURVE",
"856 297 CURVE SMOOTH",
"798 209 OFFCURVE",
"726 154 OFFCURVE",
"645 154 CURVE SMOOTH",
"604 154 OFFCURVE",
"565 168 OFFCURVE",
"528 195 CURVE",
"637 707 LINE",
"791 707 LINE",
"831 858 LINE",
"670 858 LINE",
"774 1343 LINE",
"471 1303 LINE",
"377 858 LINE",
"305 858 LINE",
"264 707 LINE",
"344 707 LINE",
"193 0 LINE",
"487 0 LINE",
"504 82 LINE",
"592 6 OFFCURVE",
"674 -27 OFFCURVE",
"754 -27 CURVE SMOOTH"
);
}
);
width = 1358;
}
);
note = Eth;
unicode = 00D0;
},
{
glyphname = Dcaron;
lastChange = "2015-07-03 17:18:39 +0000";
layers = (
{
layerId = "C17AF255-02ED-42AD-B705-02996A84AD46";
paths = (
{
closed = 1;
nodes = (
"855 -27 OFFCURVE",
"952 29 OFFCURVE",
"1036 121 CURVE SMOOTH",
"1120 213 OFFCURVE",
"1192 341 OFFCURVE",
"1242 485 CURVE SMOOTH",
"1292 629 OFFCURVE",
"1321 790 OFFCURVE",
"1321 946 CURVE SMOOTH",
"1321 1050 OFFCURVE",
"1304 1151 OFFCURVE",
"1268 1239 CURVE SMOOTH",
"1231 1326 OFFCURVE",
"1173 1400 OFFCURVE",
"1092 1453 CURVE SMOOTH",
"1011 1505 OFFCURVE",
"906 1536 OFFCURVE",
"774 1536 CURVE SMOOTH",
"635 1536 OFFCURVE",
"504 1507 OFFCURVE",
"392 1458 CURVE SMOOTH",
"279 1409 OFFCURVE",
"184 1340 OFFCURVE",
"117 1260 CURVE SMOOTH",
"50 1180 OFFCURVE",
"12 1088 OFFCURVE",
"12 995 CURVE SMOOTH",
"12 856 OFFCURVE",
"94 805 OFFCURVE",
"231 805 CURVE",
"231 809 OFFCURVE",
"230 814 OFFCURVE",
"227 819 CURVE SMOOTH",
"224 824 OFFCURVE",
"220 832 OFFCURVE",
"217 842 CURVE",
"210 861 OFFCURVE",
"203 892 OFFCURVE",
"203 944 CURVE SMOOTH",
"203 1100 OFFCURVE",
"261 1224 OFFCURVE",
"357 1310 CURVE SMOOTH",
"453 1396 OFFCURVE",
"587 1442 OFFCURVE",
"739 1442 CURVE SMOOTH",
"828 1442 OFFCURVE",
"903 1415 OFFCURVE",
"956 1353 CURVE SMOOTH",
"1008 1291 OFFCURVE",
"1038 1194 OFFCURVE",
"1038 1055 CURVE SMOOTH",
"1038 916 OFFCURVE",
"1022 772 OFFCURVE",
"991 638 CURVE SMOOTH",
"959 504 OFFCURVE",
"914 383 OFFCURVE",
"856 296 CURVE SMOOTH",
"798 208 OFFCURVE",
"726 154 OFFCURVE",
"645 154 CURVE SMOOTH",
"604 154 OFFCURVE",
"565 168 OFFCURVE",
"528 195 CURVE",
"774 1343 LINE",
"471 1303 LINE",
"193 0 LINE",
"487 0 LINE",
"504 82 LINE",
"592 6 OFFCURVE",
"674 -27 OFFCURVE",
"754 -27 CURVE SMOOTH"
);
},
{
closed = 1;
nodes = (
"779 1661 LINE",
"1213 2048 LINE",
"1123 2048 LINE",
"801 1884 LINE",
"678 2048 LINE",
"613 2048 LINE",
"736 1661 LINE"
);
}
);
width = 1358;
}
);
note = Dcaron;
unicode = 010E;
},
{
glyphname = Dcroat;
lastChange = "2015-07-03 17:18:40 +0000";
layers = (
{
layerId = "C17AF255-02ED-42AD-B705-02996A84AD46";
paths = (
{
closed = 1;
nodes = (
"855 -27 OFFCURVE",
"952 26 OFFCURVE",
"1036 117 CURVE SMOOTH",
"1120 208 OFFCURVE",
"1192 336 OFFCURVE",
"1242 486 CURVE SMOOTH",
"1292 636 OFFCURVE",
"1321 807 OFFCURVE",
"1321 983 CURVE SMOOTH",
"1321 1079 OFFCURVE",
"1308 1172 OFFCURVE",
"1273 1254 CURVE SMOOTH",
"1238 1336 OFFCURVE",
"1182 1407 OFFCURVE",
"1095 1457 CURVE SMOOTH",
"1007 1507 OFFCURVE",
"888 1536 OFFCURVE",
"731 1536 CURVE SMOOTH",
"616 1536 OFFCURVE",
"499 1507 OFFCURVE",
"393 1459 CURVE SMOOTH",
"287 1410 OFFCURVE",
"191 1342 OFFCURVE",
"123 1263 CURVE SMOOTH",
"54 1184 OFFCURVE",
"12 1095 OFFCURVE",
"12 1004 CURVE SMOOTH",
"12 929 OFFCURVE",
"32 880 OFFCURVE",
"69 849 CURVE SMOOTH",
"105 818 OFFCURVE",
"160 805 OFFCURVE",
"231 805 CURVE",
"231 809 OFFCURVE",
"230 814 OFFCURVE",
"227 819 CURVE SMOOTH",
"224 824 OFFCURVE",
"220 832 OFFCURVE",
"217 842 CURVE",
"210 861 OFFCURVE",
"203 892 OFFCURVE",
"203 944 CURVE SMOOTH",
"203 1100 OFFCURVE",
"258 1224 OFFCURVE",
"355 1310 CURVE SMOOTH",
"452 1396 OFFCURVE",
"589 1442 OFFCURVE",
"756 1442 CURVE SMOOTH",
"873 1442 OFFCURVE",
"944 1405 OFFCURVE",
"985 1337 CURVE SMOOTH",
"1026 1269 OFFCURVE",
"1038 1168 OFFCURVE",
"1038 1040 CURVE SMOOTH",
"1038 909 OFFCURVE",
"1022 767 OFFCURVE",
"991 636 CURVE SMOOTH",
"959 504 OFFCURVE",
"914 384 OFFCURVE",
"856 297 CURVE SMOOTH",
"798 209 OFFCURVE",
"726 154 OFFCURVE",
"645 154 CURVE SMOOTH",
"604 154 OFFCURVE",
"565 168 OFFCURVE",
"528 195 CURVE",
"637 707 LINE",
"791 707 LINE",
"831 858 LINE",
"670 858 LINE",
"774 1343 LINE",
"471 1303 LINE",
"377 858 LINE",
"305 858 LINE",
"264 707 LINE",
"344 707 LINE",
"193 0 LINE",
"487 0 LINE",
"504 82 LINE",
"592 6 OFFCURVE",
"674 -27 OFFCURVE",
"754 -27 CURVE SMOOTH"
);
}
);
width = 1358;
}
);
note = Dcroat;
unicode = 0110;
},
{
glyphname = Ddotbelow;
lastChange = "2015-07-03 17:18:40 +0000";
layers = (
{
layerId = "C17AF255-02ED-42AD-B705-02996A84AD46";
paths = (
{
closed = 1;
nodes = (
"855 -27 OFFCURVE",
"952 29 OFFCURVE",
"1036 121 CURVE SMOOTH",
"1120 213 OFFCURVE",
"1192 341 OFFCURVE",
"1242 485 CURVE SMOOTH",
"1292 629 OFFCURVE",
"1321 790 OFFCURVE",
"1321 946 CURVE SMOOTH",
"1321 1050 OFFCURVE",
"1304 1151 OFFCURVE",
"1268 1239 CURVE SMOOTH",
"1231 1326 OFFCURVE",
"1173 1400 OFFCURVE",
"1092 1453 CURVE SMOOTH",
"1011 1505 OFFCURVE",
"906 1536 OFFCURVE",
"774 1536 CURVE SMOOTH",
"635 1536 OFFCURVE",
"504 1507 OFFCURVE",
"392 1458 CURVE SMOOTH",
"279 1409 OFFCURVE",
"184 1340 OFFCURVE",
"117 1260 CURVE SMOOTH",
"50 1180 OFFCURVE",
"12 1088 OFFCURVE",
"12 995 CURVE SMOOTH",
"12 856 OFFCURVE",
"94 805 OFFCURVE",
"231 805 CURVE",
"231 809 OFFCURVE",
"230 814 OFFCURVE",
"227 819 CURVE SMOOTH",
"224 824 OFFCURVE",
"220 832 OFFCURVE",
"217 842 CURVE",
"210 861 OFFCURVE",
"203 892 OFFCURVE",
"203 944 CURVE SMOOTH",
"203 1100 OFFCURVE",
"261 1224 OFFCURVE",
"357 1310 CURVE SMOOTH",
"453 1396 OFFCURVE",
"587 1442 OFFCURVE",
"739 1442 CURVE SMOOTH",
"828 1442 OFFCURVE",
"903 1415 OFFCURVE",
"956 1353 CURVE SMOOTH",
"1008 1291 OFFCURVE",
"1038 1194 OFFCURVE",
"1038 1055 CURVE SMOOTH",
"1038 916 OFFCURVE",
"1022 772 OFFCURVE",
"991 638 CURVE SMOOTH",
"959 504 OFFCURVE",
"914 383 OFFCURVE",
"856 296 CURVE SMOOTH",
"798 208 OFFCURVE",
"726 154 OFFCURVE",
"645 154 CURVE SMOOTH",
"604 154 OFFCURVE",
"565 168 OFFCURVE",
"528 195 CURVE",
"774 1343 LINE",
"471 1303 LINE",
"193 0 LINE",
"487 0 LINE",
"504 82 LINE",
"592 6 OFFCURVE",
"674 -27 OFFCURVE",
"754 -27 CURVE SMOOTH"
);
},
{
closed = 1;
nodes = (
"588 -473 OFFCURVE",
"629 -455 OFFCURVE",
"659 -426 CURVE SMOOTH",
"689 -397 OFFCURVE",
"707 -356 OFFCURVE",
"707 -311 CURVE SMOOTH",
"707 -266 OFFCURVE",
"689 -225 OFFCURVE",
"659 -195 CURVE SMOOTH",
"629 -165 OFFCURVE",
"588 -147 OFFCURVE",
"543 -147 CURVE SMOOTH",
"498 -147 OFFCURVE",
"457 -165 OFFCURVE",
"428 -195 CURVE SMOOTH",
"399 -225 OFFCURVE",
"381 -266 OFFCURVE",
"381 -311 CURVE SMOOTH",
"381 -356 OFFCURVE",
"399 -397 OFFCURVE",
"428 -426 CURVE SMOOTH",
"457 -455 OFFCURVE",
"498 -473 OFFCURVE",
"543 -473 CURVE SMOOTH"
);
}
);
width = 1358;
}
);
note = Ddotbelow;
unicode = 1E0C;
},
{
glyphname = E;
lastChange = "2015-07-03 17:18:39 +0000";
layers = (
{
layerId = "C17AF255-02ED-42AD-B705-02996A84AD46";
paths = (
{
closed = 1;
nodes = (
"515 -37 OFFCURVE",
"638 -1 OFFCURVE",
"744 66 CURVE SMOOTH",
"850 133 OFFCURVE",
"936 228 OFFCURVE",
"991 348 CURVE",
"944 369 LINE",
"905 300 OFFCURVE",
"842 248 OFFCURVE",
"773 213 CURVE SMOOTH",
"704 177 OFFCURVE",
"628 160 OFFCURVE",
"565 160 CURVE SMOOTH",
"496 160 OFFCURVE",
"447 183 OFFCURVE",
"416 220 CURVE SMOOTH",
"385 257 OFFCURVE",
"371 310 OFFCURVE",
"371 367 CURVE SMOOTH",
"371 430 OFFCURVE",
"388 499 OFFCURVE",
"418 567 CURVE SMOOTH",
"448 634 OFFCURVE",
"491 698 OFFCURVE",
"545 750 CURVE SMOOTH",
"599 801 OFFCURVE",
"664 840 OFFCURVE",
"737 856 CURVE",
"664 876 OFFCURVE",
"611 914 OFFCURVE",
"578 963 CURVE SMOOTH",
"545 1011 OFFCURVE",
"530 1070 OFFCURVE",
"530 1130 CURVE SMOOTH",
"530 1202 OFFCURVE",
"552 1275 OFFCURVE",
"589 1329 CURVE SMOOTH",
"625 1383 OFFCURVE",
"678 1419 OFFCURVE",
"739 1419 CURVE SMOOTH",
"767 1419 OFFCURVE",
"796 1412 OFFCURVE",
"817 1394 CURVE SMOOTH",
"837 1376 OFFCURVE",
"852 1346 OFFCURVE",
"852 1305 CURVE SMOOTH",
"852 1269 OFFCURVE",
"842 1228 OFFCURVE",
"826 1195 CURVE SMOOTH",
"809 1162 OFFCURVE",
"786 1134 OFFCURVE",
"762 1126 CURVE",
"789 1089 OFFCURVE",
"821 1071 OFFCURVE",
"858 1071 CURVE SMOOTH",
"899 1071 OFFCURVE",
"937 1094 OFFCURVE",
"965 1132 CURVE SMOOTH",
"993 1170 OFFCURVE",
"1010 1223 OFFCURVE",
"1010 1284 CURVE SMOOTH",
"1010 1368 OFFCURVE",
"978 1432 OFFCURVE",
"925 1475 CURVE SMOOTH",
"872 1518 OFFCURVE",
"798 1540 OFFCURVE",
"717 1540 CURVE SMOOTH",
"586 1540 OFFCURVE",
"474 1483 OFFCURVE",
"395 1399 CURVE SMOOTH",
"315 1315 OFFCURVE",
"268 1205 OFFCURVE",
"268 1100 CURVE SMOOTH",
"268 1008 OFFCURVE",
"305 918 OFFCURVE",
"393 854 CURVE",
"274 823 OFFCURVE",
"179 745 OFFCURVE",
"115 647 CURVE SMOOTH",
"50 549 OFFCURVE",
"14 432 OFFCURVE",
"14 324 CURVE SMOOTH",
"14 228 OFFCURVE",
"43 139 OFFCURVE",
"104 72 CURVE SMOOTH",
"164 5 OFFCURVE",
"259 -37 OFFCURVE",
"391 -37 CURVE SMOOTH"
);
}
);
width = 940;
}
);
note = E;
unicode = 0045;
},
{
glyphname = Eacute;
lastChange = "2015-07-03 17:18:40 +0000";
layers = (
{
layerId = "C17AF255-02ED-42AD-B705-02996A84AD46";
paths = (
{
closed = 1;
nodes = (
"515 -37 OFFCURVE",
"638 -1 OFFCURVE",
"744 66 CURVE SMOOTH",
"850 133 OFFCURVE",
"936 228 OFFCURVE",
"991 348 CURVE",
"944 369 LINE",
"905 300 OFFCURVE",
"842 248 OFFCURVE",
"773 213 CURVE SMOOTH",
"704 177 OFFCURVE",
"628 160 OFFCURVE",
"565 160 CURVE SMOOTH",
"496 160 OFFCURVE",
"447 183 OFFCURVE",
"416 220 CURVE SMOOTH",
"385 257 OFFCURVE",
"371 310 OFFCURVE",
"371 367 CURVE SMOOTH",
"371 430 OFFCURVE",
"388 499 OFFCURVE",
"418 567 CURVE SMOOTH",
"448 634 OFFCURVE",
"491 698 OFFCURVE",
"545 750 CURVE SMOOTH",
"599 801 OFFCURVE",
"664 840 OFFCURVE",
"737 856 CURVE",
"664 876 OFFCURVE",
"611 914 OFFCURVE",
"578 963 CURVE SMOOTH",
"545 1011 OFFCURVE",
"530 1070 OFFCURVE",
"530 1130 CURVE SMOOTH",
"530 1202 OFFCURVE",
"552 1275 OFFCURVE",
"589 1329 CURVE SMOOTH",
"625 1383 OFFCURVE",
"678 1419 OFFCURVE",
"739 1419 CURVE SMOOTH",
"767 1419 OFFCURVE",
"796 1412 OFFCURVE",
"817 1394 CURVE SMOOTH",
"837 1376 OFFCURVE",
"852 1346 OFFCURVE",
"852 1305 CURVE SMOOTH",
"852 1269 OFFCURVE",
"842 1228 OFFCURVE",
"826 1195 CURVE SMOOTH",
"809 1162 OFFCURVE",
"786 1134 OFFCURVE",
"762 1126 CURVE",
"789 1089 OFFCURVE",
"821 1071 OFFCURVE",
"858 1071 CURVE SMOOTH",
"899 1071 OFFCURVE",
"937 1094 OFFCURVE",
"965 1132 CURVE SMOOTH",
"993 1170 OFFCURVE",
"1010 1223 OFFCURVE",
"1010 1284 CURVE SMOOTH",
"1010 1368 OFFCURVE",
"978 1432 OFFCURVE",
"925 1475 CURVE SMOOTH",
"872 1518 OFFCURVE",
"798 1540 OFFCURVE",
"717 1540 CURVE SMOOTH",
"586 1540 OFFCURVE",
"474 1483 OFFCURVE",
"395 1399 CURVE SMOOTH",
"315 1315 OFFCURVE",
"268 1205 OFFCURVE",
"268 1100 CURVE SMOOTH",
"268 1008 OFFCURVE",
"305 918 OFFCURVE",
"393 854 CURVE",
"274 823 OFFCURVE",
"179 745 OFFCURVE",
"115 647 CURVE SMOOTH",
"50 549 OFFCURVE",
"14 432 OFFCURVE",
"14 324 CURVE SMOOTH",
"14 228 OFFCURVE",
"43 139 OFFCURVE",
"104 72 CURVE SMOOTH",
"164 5 OFFCURVE",
"259 -37 OFFCURVE",
"391 -37 CURVE SMOOTH"
);
},
{
closed = 1;
nodes = (
"829 1661 LINE",
"1077 2048 LINE",
"862 2048 LINE",
"676 1661 LINE"
);
}
);
width = 940;
}
);
note = Eacute;
unicode = 00C9;
},
{
glyphname = Ebreve;
lastChange = "2015-07-03 17:18:41 +0000";
layers = (
{
layerId = "C17AF255-02ED-42AD-B705-02996A84AD46";
paths = (
{
closed = 1;
nodes = (
"515 -37 OFFCURVE",
"638 -1 OFFCURVE",
"744 66 CURVE SMOOTH",
"850 133 OFFCURVE",
"936 228 OFFCURVE",
"991 348 CURVE",
"944 369 LINE",
"905 300 OFFCURVE",
"842 248 OFFCURVE",
"773 213 CURVE SMOOTH",
"704 177 OFFCURVE",
"628 160 OFFCURVE",
"565 160 CURVE SMOOTH",
"496 160 OFFCURVE",
"447 183 OFFCURVE",
"416 220 CURVE SMOOTH",
"385 257 OFFCURVE",
"371 310 OFFCURVE",
"371 367 CURVE SMOOTH",
"371 430 OFFCURVE",
"388 499 OFFCURVE",
"418 567 CURVE SMOOTH",
"448 634 OFFCURVE",
"491 698 OFFCURVE",
"545 750 CURVE SMOOTH",
"599 801 OFFCURVE",
"664 840 OFFCURVE",
"737 856 CURVE",
"664 876 OFFCURVE",
"611 914 OFFCURVE",
"578 963 CURVE SMOOTH",
"545 1011 OFFCURVE",
"530 1070 OFFCURVE",
"530 1130 CURVE SMOOTH",
"530 1202 OFFCURVE",
"552 1275 OFFCURVE",
"589 1329 CURVE SMOOTH",
"625 1383 OFFCURVE",
"678 1419 OFFCURVE",
"739 1419 CURVE SMOOTH",
"767 1419 OFFCURVE",
"796 1412 OFFCURVE",
"817 1394 CURVE SMOOTH",
"837 1376 OFFCURVE",
"852 1346 OFFCURVE",
"852 1305 CURVE SMOOTH",
"852 1269 OFFCURVE",
"842 1228 OFFCURVE",
"826 1195 CURVE SMOOTH",
"809 1162 OFFCURVE",
"786 1134 OFFCURVE",
"762 1126 CURVE",
"789 1089 OFFCURVE",
"821 1071 OFFCURVE",
"858 1071 CURVE SMOOTH",
"899 1071 OFFCURVE",
"937 1094 OFFCURVE",
"965 1132 CURVE SMOOTH",
"993 1170 OFFCURVE",
"1010 1223 OFFCURVE",
"1010 1284 CURVE SMOOTH",
"1010 1368 OFFCURVE",
"978 1432 OFFCURVE",
"925 1475 CURVE SMOOTH",
"872 1518 OFFCURVE",
"798 1540 OFFCURVE",
"717 1540 CURVE SMOOTH",
"586 1540 OFFCURVE",
"474 1483 OFFCURVE",
"395 1399 CURVE SMOOTH",
"315 1315 OFFCURVE",
"268 1205 OFFCURVE",
"268 1100 CURVE SMOOTH",
"268 1008 OFFCURVE",
"305 918 OFFCURVE",
"393 854 CURVE",
"274 823 OFFCURVE",
"179 745 OFFCURVE",
"115 647 CURVE SMOOTH",
"50 549 OFFCURVE",
"14 432 OFFCURVE",
"14 324 CURVE SMOOTH",
"14 228 OFFCURVE",
"43 139 OFFCURVE",
"104 72 CURVE SMOOTH",
"164 5 OFFCURVE",
"259 -37 OFFCURVE",
"391 -37 CURVE SMOOTH"
);
},
{
closed = 1;
nodes = (
"878 1670 OFFCURVE",
"980 1700 OFFCURVE",
"1057 1752 CURVE SMOOTH",
"1134 1803 OFFCURVE",
"1187 1873 OFFCURVE",
"1199 1953 CURVE",
"1023 1953 LINE",
"1016 1906 OFFCURVE",
"989 1864 OFFCURVE",
"949 1833 CURVE SMOOTH",
"908 1802 OFFCURVE",
"855 1783 OFFCURVE",
"799 1783 CURVE SMOOTH",
"696 1783 OFFCURVE",
"638 1844 OFFCURVE",
"638 1953 CURVE",
"455 1953 LINE",
"455 1766 OFFCURVE",
"563 1670 OFFCURVE",
"767 1670 CURVE SMOOTH"
);
}
);
width = 940;
}
);
note = Ebreve;
unicode = 0114;
},
{
glyphname = Ecaron;
lastChange = "2015-07-03 17:18:40 +0000";
layers = (
{
layerId = "C17AF255-02ED-42AD-B705-02996A84AD46";
paths = (
{
closed = 1;
nodes = (
"515 -37 OFFCURVE",
"638 -1 OFFCURVE",
"744 66 CURVE SMOOTH",
"850 133 OFFCURVE",
"936 228 OFFCURVE",
"991 348 CURVE",
"944 369 LINE",
"905 300 OFFCURVE",
"842 248 OFFCURVE",
"773 213 CURVE SMOOTH",
"704 177 OFFCURVE",
"628 160 OFFCURVE",
"565 160 CURVE SMOOTH",
"496 160 OFFCURVE",
"447 183 OFFCURVE",
"416 220 CURVE SMOOTH",
"385 257 OFFCURVE",
"371 310 OFFCURVE",
"371 367 CURVE SMOOTH",
"371 430 OFFCURVE",
"388 499 OFFCURVE",
"418 567 CURVE SMOOTH",
"448 634 OFFCURVE",
"491 698 OFFCURVE",
"545 750 CURVE SMOOTH",
"599 801 OFFCURVE",
"664 840 OFFCURVE",
"737 856 CURVE",
"664 876 OFFCURVE",
"611 914 OFFCURVE",
"578 963 CURVE SMOOTH",
"545 1011 OFFCURVE",
"530 1070 OFFCURVE",
"530 1130 CURVE SMOOTH",
"530 1202 OFFCURVE",
"552 1275 OFFCURVE",
"589 1329 CURVE SMOOTH",
"625 1383 OFFCURVE",
"678 1419 OFFCURVE",
"739 1419 CURVE SMOOTH",
"767 1419 OFFCURVE",
"796 1412 OFFCURVE",
"817 1394 CURVE SMOOTH",
"837 1376 OFFCURVE",
"852 1346 OFFCURVE",
"852 1305 CURVE SMOOTH",
"852 1269 OFFCURVE",
"842 1228 OFFCURVE",
"826 1195 CURVE SMOOTH",
"809 1162 OFFCURVE",
"786 1134 OFFCURVE",
"762 1126 CURVE",
"789 1089 OFFCURVE",
"821 1071 OFFCURVE",
"858 1071 CURVE SMOOTH",
"899 1071 OFFCURVE",
"937 1094 OFFCURVE",
"965 1132 CURVE SMOOTH",
"993 1170 OFFCURVE",
"1010 1223 OFFCURVE",
"1010 1284 CURVE SMOOTH",
"1010 1368 OFFCURVE",
"978 1432 OFFCURVE",
"925 1475 CURVE SMOOTH",
"872 1518 OFFCURVE",
"798 1540 OFFCURVE",
"717 1540 CURVE SMOOTH",
"586 1540 OFFCURVE",
"474 1483 OFFCURVE",
"395 1399 CURVE SMOOTH",
"315 1315 OFFCURVE",
"268 1205 OFFCURVE",
"268 1100 CURVE SMOOTH",
"268 1008 OFFCURVE",
"305 918 OFFCURVE",
"393 854 CURVE",
"274 823 OFFCURVE",
"179 745 OFFCURVE",
"115 647 CURVE SMOOTH",
"50 549 OFFCURVE",
"14 432 OFFCURVE",
"14 324 CURVE SMOOTH",
"14 228 OFFCURVE",
"43 139 OFFCURVE",
"104 72 CURVE SMOOTH",
"164 5 OFFCURVE",
"259 -37 OFFCURVE",
"391 -37 CURVE SMOOTH"
);
},
{
closed = 1;
nodes = (
"779 1661 LINE",
"1213 2048 LINE",
"1123 2048 LINE",
"801 1884 LINE",
"678 2048 LINE",
"613 2048 LINE",
"736 1661 LINE"
);
}
);
width = 940;
}
);
note = Ecaron;
unicode = 011A;
},
{
glyphname = Ecircumflex;
lastChange = "2015-07-03 17:18:38 +0000";
layers = (
{
layerId = "C17AF255-02ED-42AD-B705-02996A84AD46";
paths = (
{
closed = 1;
nodes = (
"515 -37 OFFCURVE",
"638 -1 OFFCURVE",
"744 66 CURVE SMOOTH",
"850 133 OFFCURVE",
"936 228 OFFCURVE",
"991 348 CURVE",
"944 369 LINE",
"905 300 OFFCURVE",
"842 248 OFFCURVE",
"773 213 CURVE SMOOTH",
"704 177 OFFCURVE",
"628 160 OFFCURVE",
"565 160 CURVE SMOOTH",
"496 160 OFFCURVE",
"447 183 OFFCURVE",
"416 220 CURVE SMOOTH",
"385 257 OFFCURVE",
"371 310 OFFCURVE",
"371 367 CURVE SMOOTH",
"371 430 OFFCURVE",
"388 499 OFFCURVE",
"418 567 CURVE SMOOTH",
"448 634 OFFCURVE",
"491 698 OFFCURVE",
"545 750 CURVE SMOOTH",
"599 801 OFFCURVE",
"664 840 OFFCURVE",
"737 856 CURVE",
"664 876 OFFCURVE",
"611 914 OFFCURVE",
"578 963 CURVE SMOOTH",
"545 1011 OFFCURVE",
"530 1070 OFFCURVE",
"530 1130 CURVE SMOOTH",
"530 1202 OFFCURVE",
"552 1275 OFFCURVE",
"589 1329 CURVE SMOOTH",
"625 1383 OFFCURVE",
"678 1419 OFFCURVE",
"739 1419 CURVE SMOOTH",
"767 1419 OFFCURVE",
"796 1412 OFFCURVE",
"817 1394 CURVE SMOOTH",
"837 1376 OFFCURVE",
"852 1346 OFFCURVE",
"852 1305 CURVE SMOOTH",
"852 1269 OFFCURVE",
"842 1228 OFFCURVE",
"826 1195 CURVE SMOOTH",
"809 1162 OFFCURVE",
"786 1134 OFFCURVE",
"762 1126 CURVE",
"789 1089 OFFCURVE",
"821 1071 OFFCURVE",
"858 1071 CURVE SMOOTH",
"899 1071 OFFCURVE",
"937 1094 OFFCURVE",
"965 1132 CURVE SMOOTH",
"993 1170 OFFCURVE",
"1010 1223 OFFCURVE",
"1010 1284 CURVE SMOOTH",
"1010 1368 OFFCURVE",
"978 1432 OFFCURVE",
"925 1475 CURVE SMOOTH",
"872 1518 OFFCURVE",
"798 1540 OFFCURVE",
"717 1540 CURVE SMOOTH",
"586 1540 OFFCURVE",
"474 1483 OFFCURVE",
"395 1399 CURVE SMOOTH",
"315 1315 OFFCURVE",
"268 1205 OFFCURVE",
"268 1100 CURVE SMOOTH",
"268 1008 OFFCURVE",
"305 918 OFFCURVE",
"393 854 CURVE",
"274 823 OFFCURVE",
"179 745 OFFCURVE",
"115 647 CURVE SMOOTH",
"50 549 OFFCURVE",
"14 432 OFFCURVE",
"14 324 CURVE SMOOTH",
"14 228 OFFCURVE",
"43 139 OFFCURVE",
"104 72 CURVE SMOOTH",
"164 5 OFFCURVE",
"259 -37 OFFCURVE",
"391 -37 CURVE SMOOTH"
);
},
{
closed = 1;
nodes = (
"504 1661 LINE",
"825 1825 LINE",
"948 1661 LINE",
"1014 1661 LINE",
"891 2048 LINE",
"848 2048 LINE",
"414 1661 LINE"
);
}
);
width = 940;
}
);
note = Ecircumflex;
unicode = 00CA;
},
{
glyphname = Ecircumflexacute;
lastChange = "2015-07-03 17:18:40 +0000";
layers = (
{
layerId = "C17AF255-02ED-42AD-B705-02996A84AD46";
paths = (
{
closed = 1;
nodes = (
"515 -37 OFFCURVE",
"638 -1 OFFCURVE",
"744 66 CURVE SMOOTH",
"850 133 OFFCURVE",
"936 228 OFFCURVE",
"991 348 CURVE",
"944 369 LINE",
"905 300 OFFCURVE",
"842 248 OFFCURVE",
"773 213 CURVE SMOOTH",
"704 177 OFFCURVE",
"628 160 OFFCURVE",
"565 160 CURVE SMOOTH",
"496 160 OFFCURVE",
"447 183 OFFCURVE",
"416 220 CURVE SMOOTH",
"385 257 OFFCURVE",
"371 310 OFFCURVE",
"371 367 CURVE SMOOTH",
"371 430 OFFCURVE",
"388 499 OFFCURVE",
"418 567 CURVE SMOOTH",
"448 634 OFFCURVE",
"491 698 OFFCURVE",
"545 750 CURVE SMOOTH",
"599 801 OFFCURVE",
"664 840 OFFCURVE",
"737 856 CURVE",
"664 876 OFFCURVE",
"611 914 OFFCURVE",
"578 963 CURVE SMOOTH",
"545 1011 OFFCURVE",
"530 1070 OFFCURVE",
"530 1130 CURVE SMOOTH",
"530 1202 OFFCURVE",
"552 1275 OFFCURVE",
"589 1329 CURVE SMOOTH",
"625 1383 OFFCURVE",
"678 1419 OFFCURVE",
"739 1419 CURVE SMOOTH",
"767 1419 OFFCURVE",
"796 1412 OFFCURVE",
"817 1394 CURVE SMOOTH",
"837 1376 OFFCURVE",
"852 1346 OFFCURVE",
"852 1305 CURVE SMOOTH",
"852 1269 OFFCURVE",
"842 1228 OFFCURVE",
"826 1195 CURVE SMOOTH",
"809 1162 OFFCURVE",
"786 1134 OFFCURVE",
"762 1126 CURVE",
"789 1089 OFFCURVE",
"821 1071 OFFCURVE",
"858 1071 CURVE SMOOTH",
"899 1071 OFFCURVE",
"937 1094 OFFCURVE",
"965 1132 CURVE SMOOTH",
"993 1170 OFFCURVE",
"1010 1223 OFFCURVE",
"1010 1284 CURVE SMOOTH",
"1010 1368 OFFCURVE",
"978 1432 OFFCURVE",
"925 1475 CURVE SMOOTH",
"872 1518 OFFCURVE",
"798 1540 OFFCURVE",
"717 1540 CURVE SMOOTH",
"586 1540 OFFCURVE",
"474 1483 OFFCURVE",
"395 1399 CURVE SMOOTH",
"315 1315 OFFCURVE",
"268 1205 OFFCURVE",
"268 1100 CURVE SMOOTH",
"268 1008 OFFCURVE",
"305 918 OFFCURVE",
"393 854 CURVE",
"274 823 OFFCURVE",
"179 745 OFFCURVE",
"115 647 CURVE SMOOTH",
"50 549 OFFCURVE",
"14 432 OFFCURVE",
"14 324 CURVE SMOOTH",
"14 228 OFFCURVE",
"43 139 OFFCURVE",
"104 72 CURVE SMOOTH",
"164 5 OFFCURVE",
"259 -37 OFFCURVE",
"391 -37 CURVE SMOOTH"
);
},
{
closed = 1;
nodes = (
"612 1661 LINE",
"838 1808 LINE",
"904 1661 LINE",
"996 1661 LINE",
"893 1946 LINE",
"857 1946 LINE",
"492 1661 LINE"
);
},
{
closed = 1;
nodes = (
"1073 1774 LINE",
"1251 2048 LINE",
"1110 2048 LINE",
"983 1774 LINE"
);
}
);
width = 940;
}
);
note = Ecircumflexacute;
unicode = 1EBE;
},
{
glyphname = Ecircumflexdotbelow;
lastChange = "2015-07-03 17:18:38 +0000";
layers = (
{
layerId = "C17AF255-02ED-42AD-B705-02996A84AD46";
paths = (
{
closed = 1;
nodes = (
"515 -37 OFFCURVE",
"638 -1 OFFCURVE",
"744 66 CURVE SMOOTH",
"850 133 OFFCURVE",
"936 228 OFFCURVE",
"991 348 CURVE",
"944 369 LINE",
"905 300 OFFCURVE",
"842 248 OFFCURVE",
"773 213 CURVE SMOOTH",
"704 177 OFFCURVE",
"628 160 OFFCURVE",
"565 160 CURVE SMOOTH",
"496 160 OFFCURVE",
"447 183 OFFCURVE",
"416 220 CURVE SMOOTH",
"385 257 OFFCURVE",
"371 310 OFFCURVE",
"371 367 CURVE SMOOTH",
"371 430 OFFCURVE",
"388 499 OFFCURVE",
"418 567 CURVE SMOOTH",
"448 634 OFFCURVE",
"491 698 OFFCURVE",
"545 750 CURVE SMOOTH",
"599 801 OFFCURVE",
"664 840 OFFCURVE",
"737 856 CURVE",
"664 876 OFFCURVE",
"611 914 OFFCURVE",
"578 963 CURVE SMOOTH",
"545 1011 OFFCURVE",
"530 1070 OFFCURVE",
"530 1130 CURVE SMOOTH",
"530 1202 OFFCURVE",
"552 1275 OFFCURVE",
"589 1329 CURVE SMOOTH",
"625 1383 OFFCURVE",
"678 1419 OFFCURVE",
"739 1419 CURVE SMOOTH",
"767 1419 OFFCURVE",
"796 1412 OFFCURVE",
"817 1394 CURVE SMOOTH",
"837 1376 OFFCURVE",
"852 1346 OFFCURVE",
"852 1305 CURVE SMOOTH",
"852 1269 OFFCURVE",
"842 1228 OFFCURVE",
"826 1195 CURVE SMOOTH",
"809 1162 OFFCURVE",
"786 1134 OFFCURVE",
"762 1126 CURVE",
"789 1089 OFFCURVE",
"821 1071 OFFCURVE",
"858 1071 CURVE SMOOTH",
"899 1071 OFFCURVE",
"937 1094 OFFCURVE",
"965 1132 CURVE SMOOTH",
"993 1170 OFFCURVE",
"1010 1223 OFFCURVE",
"1010 1284 CURVE SMOOTH",
"1010 1368 OFFCURVE",
"978 1432 OFFCURVE",
"925 1475 CURVE SMOOTH",
"872 1518 OFFCURVE",
"798 1540 OFFCURVE",
"717 1540 CURVE SMOOTH",
"586 1540 OFFCURVE",
"474 1483 OFFCURVE",
"395 1399 CURVE SMOOTH",
"315 1315 OFFCURVE",
"268 1205 OFFCURVE",
"268 1100 CURVE SMOOTH",
"268 1008 OFFCURVE",
"305 918 OFFCURVE",
"393 854 CURVE",
"274 823 OFFCURVE",
"179 745 OFFCURVE",
"115 647 CURVE SMOOTH",
"50 549 OFFCURVE",
"14 432 OFFCURVE",
"14 324 CURVE SMOOTH",
"14 228 OFFCURVE",
"43 139 OFFCURVE",
"104 72 CURVE SMOOTH",
"164 5 OFFCURVE",
"259 -37 OFFCURVE",
"391 -37 CURVE SMOOTH"
);
},
{
closed = 1;
nodes = (
"358 -473 OFFCURVE",
"399 -455 OFFCURVE",
"429 -426 CURVE SMOOTH",
"459 -397 OFFCURVE",
"477 -356 OFFCURVE",
"477 -311 CURVE SMOOTH",
"477 -266 OFFCURVE",
"459 -225 OFFCURVE",
"429 -195 CURVE SMOOTH",
"399 -165 OFFCURVE",
"358 -147 OFFCURVE",
"313 -147 CURVE SMOOTH",
"268 -147 OFFCURVE",
"227 -165 OFFCURVE",
"198 -195 CURVE SMOOTH",
"169 -225 OFFCURVE",
"151 -266 OFFCURVE",
"151 -311 CURVE SMOOTH",
"151 -356 OFFCURVE",
"169 -397 OFFCURVE",
"198 -426 CURVE SMOOTH",
"227 -455 OFFCURVE",
"268 -473 OFFCURVE",
"313 -473 CURVE SMOOTH"
);
},
{
closed = 1;
nodes = (
"504 1661 LINE",
"825 1825 LINE",
"948 1661 LINE",
"1014 1661 LINE",
"891 2048 LINE",
"848 2048 LINE",
"414 1661 LINE"
);
}
);
width = 940;
}
);
note = Ecircumflexdotbelow;
unicode = 1EC6;
},
{
glyphname = Ecircumflexgrave;
lastChange = "2015-07-03 17:18:38 +0000";
layers = (
{
layerId = "C17AF255-02ED-42AD-B705-02996A84AD46";
paths = (
{
closed = 1;
nodes = (
"515 -37 OFFCURVE",
"638 -1 OFFCURVE",
"744 66 CURVE SMOOTH",
"850 133 OFFCURVE",
"936 228 OFFCURVE",
"991 348 CURVE",
"944 369 LINE",
"905 300 OFFCURVE",
"842 248 OFFCURVE",
"773 213 CURVE SMOOTH",
"704 177 OFFCURVE",
"628 160 OFFCURVE",
"565 160 CURVE SMOOTH",
"496 160 OFFCURVE",
"447 183 OFFCURVE",
"416 220 CURVE SMOOTH",
"385 257 OFFCURVE",
"371 310 OFFCURVE",
"371 367 CURVE SMOOTH",
"371 430 OFFCURVE",
"388 499 OFFCURVE",
"418 567 CURVE SMOOTH",
"448 634 OFFCURVE",
"491 698 OFFCURVE",
"545 750 CURVE SMOOTH",
"599 801 OFFCURVE",
"664 840 OFFCURVE",
"737 856 CURVE",
"664 876 OFFCURVE",
"611 914 OFFCURVE",
"578 963 CURVE SMOOTH",
"545 1011 OFFCURVE",
"530 1070 OFFCURVE",
"530 1130 CURVE SMOOTH",
"530 1202 OFFCURVE",
"552 1275 OFFCURVE",
"589 1329 CURVE SMOOTH",
"625 1383 OFFCURVE",
"678 1419 OFFCURVE",
"739 1419 CURVE SMOOTH",
"767 1419 OFFCURVE",
"796 1412 OFFCURVE",
"817 1394 CURVE SMOOTH",
"837 1376 OFFCURVE",
"852 1346 OFFCURVE",
"852 1305 CURVE SMOOTH",
"852 1269 OFFCURVE",
"842 1228 OFFCURVE",
"826 1195 CURVE SMOOTH",
"809 1162 OFFCURVE",
"786 1134 OFFCURVE",
"762 1126 CURVE",
"789 1089 OFFCURVE",
"821 1071 OFFCURVE",
"858 1071 CURVE SMOOTH",
"899 1071 OFFCURVE",
"937 1094 OFFCURVE",
"965 1132 CURVE SMOOTH",
"993 1170 OFFCURVE",
"1010 1223 OFFCURVE",
"1010 1284 CURVE SMOOTH",
"1010 1368 OFFCURVE",
"978 1432 OFFCURVE",
"925 1475 CURVE SMOOTH",
"872 1518 OFFCURVE",
"798 1540 OFFCURVE",
"717 1540 CURVE SMOOTH",
"586 1540 OFFCURVE",
"474 1483 OFFCURVE",
"395 1399 CURVE SMOOTH",
"315 1315 OFFCURVE",
"268 1205 OFFCURVE",
"268 1100 CURVE SMOOTH",
"268 1008 OFFCURVE",
"305 918 OFFCURVE",
"393 854 CURVE",
"274 823 OFFCURVE",
"179 745 OFFCURVE",
"115 647 CURVE SMOOTH",
"50 549 OFFCURVE",
"14 432 OFFCURVE",
"14 324 CURVE SMOOTH",
"14 228 OFFCURVE",
"43 139 OFFCURVE",
"104 72 CURVE SMOOTH",
"164 5 OFFCURVE",
"259 -37 OFFCURVE",
"391 -37 CURVE SMOOTH"
);
},
{
closed = 1;
nodes = (
"612 1661 LINE",
"838 1808 LINE",
"904 1661 LINE",
"996 1661 LINE",
"893 1946 LINE",
"857 1946 LINE",
"492 1661 LINE"
);
},
{
closed = 1;
nodes = (
"1156 1772 LINE",
"1117 2047 LINE",
"981 2047 LINE",
"1073 1772 LINE"
);
}
);
width = 940;
}
);
note = Ecircumflexgrave;
unicode = 1EC0;
},
{
glyphname = Ecircumflexhookabove;
lastChange = "2015-07-03 17:18:41 +0000";
layers = (
{
layerId = "C17AF255-02ED-42AD-B705-02996A84AD46";
paths = (
{
closed = 1;
nodes = (
"515 -37 OFFCURVE",
"638 -1 OFFCURVE",
"744 66 CURVE SMOOTH",
"850 133 OFFCURVE",
"936 228 OFFCURVE",
"991 348 CURVE",
"944 369 LINE",
"905 300 OFFCURVE",
"842 248 OFFCURVE",
"773 213 CURVE SMOOTH",
"704 177 OFFCURVE",
"628 160 OFFCURVE",
"565 160 CURVE SMOOTH",
"496 160 OFFCURVE",
"447 183 OFFCURVE",
"416 220 CURVE SMOOTH",
"385 257 OFFCURVE",
"371 310 OFFCURVE",
"371 367 CURVE SMOOTH",
"371 430 OFFCURVE",
"388 499 OFFCURVE",
"418 567 CURVE SMOOTH",
"448 634 OFFCURVE",
"491 698 OFFCURVE",
"545 750 CURVE SMOOTH",
"599 801 OFFCURVE",
"664 840 OFFCURVE",
"737 856 CURVE",
"664 876 OFFCURVE",
"611 914 OFFCURVE",
"578 963 CURVE SMOOTH",
"545 1011 OFFCURVE",
"530 1070 OFFCURVE",
"530 1130 CURVE SMOOTH",
"530 1202 OFFCURVE",
"552 1275 OFFCURVE",
"589 1329 CURVE SMOOTH",
"625 1383 OFFCURVE",
"678 1419 OFFCURVE",
"739 1419 CURVE SMOOTH",
"767 1419 OFFCURVE",
"796 1412 OFFCURVE",
"817 1394 CURVE SMOOTH",
"837 1376 OFFCURVE",
"852 1346 OFFCURVE",
"852 1305 CURVE SMOOTH",
"852 1269 OFFCURVE",
"842 1228 OFFCURVE",
"826 1195 CURVE SMOOTH",
"809 1162 OFFCURVE",
"786 1134 OFFCURVE",
"762 1126 CURVE",
"789 1089 OFFCURVE",
"821 1071 OFFCURVE",
"858 1071 CURVE SMOOTH",
"899 1071 OFFCURVE",
"937 1094 OFFCURVE",
"965 1132 CURVE SMOOTH",
"993 1170 OFFCURVE",
"1010 1223 OFFCURVE",
"1010 1284 CURVE SMOOTH",
"1010 1368 OFFCURVE",
"978 1432 OFFCURVE",
"925 1475 CURVE SMOOTH",
"872 1518 OFFCURVE",
"798 1540 OFFCURVE",
"717 1540 CURVE SMOOTH",
"586 1540 OFFCURVE",
"474 1483 OFFCURVE",
"395 1399 CURVE SMOOTH",
"315 1315 OFFCURVE",
"268 1205 OFFCURVE",
"268 1100 CURVE SMOOTH",
"268 1008 OFFCURVE",
"305 918 OFFCURVE",
"393 854 CURVE",
"274 823 OFFCURVE",
"179 745 OFFCURVE",
"115 647 CURVE SMOOTH",
"50 549 OFFCURVE",
"14 432 OFFCURVE",
"14 324 CURVE SMOOTH",
"14 228 OFFCURVE",
"43 139 OFFCURVE",
"104 72 CURVE SMOOTH",
"164 5 OFFCURVE",
"259 -37 OFFCURVE",
"391 -37 CURVE SMOOTH"
);
},
{
closed = 1;
nodes = (
"612 1661 LINE",
"838 1808 LINE",
"904 1661 LINE",
"996 1661 LINE",
"893 1946 LINE",
"857 1946 LINE",
"492 1661 LINE"
);
},
{
closed = 1;
nodes = (
"1124 1808 LINE",
"1217 1815 OFFCURVE",
"1279 1865 OFFCURVE",
"1279 1933 CURVE SMOOTH",
"1279 2001 OFFCURVE",
"1217 2048 OFFCURVE",
"1128 2048 CURVE SMOOTH",
"1077 2048 OFFCURVE",
"1022 2033 OFFCURVE",
"990 2012 CURVE",
"1027 1953 LINE",
"1052 1968 OFFCURVE",
"1080 1976 OFFCURVE",
"1113 1976 CURVE SMOOTH",
"1158 1976 OFFCURVE",
"1181 1959 OFFCURVE",
"1181 1925 CURVE SMOOTH",
"1181 1888 OFFCURVE",
"1158 1870 OFFCURVE",
"1113 1870 CURVE SMOOTH",
"1096 1870 OFFCURVE",
"1072 1872 OFFCURVE",
"1049 1879 CURVE",
"1049 1753 LINE",
"1118 1749 LINE"
);
}
);
width = 940;
}
);
note = Ecircumflexhookabove;
unicode = 1EC2;
},
{
glyphname = Ecircumflextilde;
lastChange = "2015-07-03 17:18:40 +0000";
layers = (
{
layerId = "C17AF255-02ED-42AD-B705-02996A84AD46";
paths = (
{
closed = 1;
nodes = (
"515 -37 OFFCURVE",
"638 -1 OFFCURVE",
"744 66 CURVE SMOOTH",
"850 133 OFFCURVE",
"936 228 OFFCURVE",
"991 348 CURVE",
"944 369 LINE",
"905 300 OFFCURVE",
"842 248 OFFCURVE",
"773 213 CURVE SMOOTH",
"704 177 OFFCURVE",
"628 160 OFFCURVE",
"565 160 CURVE SMOOTH",
"496 160 OFFCURVE",
"447 183 OFFCURVE",
"416 220 CURVE SMOOTH",
"385 257 OFFCURVE",
"371 310 OFFCURVE",
"371 367 CURVE SMOOTH",
"371 430 OFFCURVE",
"388 499 OFFCURVE",
"418 567 CURVE SMOOTH",
"448 634 OFFCURVE",
"491 698 OFFCURVE",
"545 750 CURVE SMOOTH",
"599 801 OFFCURVE",
"664 840 OFFCURVE",
"737 856 CURVE",
"664 876 OFFCURVE",
"611 914 OFFCURVE",
"578 963 CURVE SMOOTH",
"545 1011 OFFCURVE",
"530 1070 OFFCURVE",
"530 1130 CURVE SMOOTH",
"530 1202 OFFCURVE",
"552 1275 OFFCURVE",
"589 1329 CURVE SMOOTH",
"625 1383 OFFCURVE",
"678 1419 OFFCURVE",
"739 1419 CURVE SMOOTH",
"767 1419 OFFCURVE",
"796 1412 OFFCURVE",
"817 1394 CURVE SMOOTH",
"837 1376 OFFCURVE",
"852 1346 OFFCURVE",
"852 1305 CURVE SMOOTH",
"852 1269 OFFCURVE",
"842 1228 OFFCURVE",
"826 1195 CURVE SMOOTH",
"809 1162 OFFCURVE",
"786 1134 OFFCURVE",
"762 1126 CURVE",
"789 1089 OFFCURVE",
"821 1071 OFFCURVE",
"858 1071 CURVE SMOOTH",
"899 1071 OFFCURVE",
"937 1094 OFFCURVE",
"965 1132 CURVE SMOOTH",
"993 1170 OFFCURVE",
"1010 1223 OFFCURVE",
"1010 1284 CURVE SMOOTH",
"1010 1368 OFFCURVE",
"978 1432 OFFCURVE",
"925 1475 CURVE SMOOTH",
"872 1518 OFFCURVE",
"798 1540 OFFCURVE",
"717 1540 CURVE SMOOTH",
"586 1540 OFFCURVE",
"474 1483 OFFCURVE",
"395 1399 CURVE SMOOTH",
"315 1315 OFFCURVE",
"268 1205 OFFCURVE",
"268 1100 CURVE SMOOTH",
"268 1008 OFFCURVE",
"305 918 OFFCURVE",
"393 854 CURVE",
"274 823 OFFCURVE",
"179 745 OFFCURVE",
"115 647 CURVE SMOOTH",
"50 549 OFFCURVE",
"14 432 OFFCURVE",
"14 324 CURVE SMOOTH",
"14 228 OFFCURVE",
"43 139 OFFCURVE",
"104 72 CURVE SMOOTH",
"164 5 OFFCURVE",
"259 -37 OFFCURVE",
"391 -37 CURVE SMOOTH"
);
},
{
closed = 1;
nodes = (
"612 1661 LINE",
"838 1808 LINE",
"904 1661 LINE",
"996 1661 LINE",
"915 1885 LINE",
"932 1885 LINE SMOOTH",
"987 1885 OFFCURVE",
"1041 1904 OFFCURVE",
"1085 1932 CURVE SMOOTH",
"1128 1960 OFFCURVE",
"1158 1997 OFFCURVE",
"1165 2030 CURVE",
"1156 2032 LINE",
"1135 2009 OFFCURVE",
"1102 1999 OFFCURVE",
"1066 1999 CURVE SMOOTH",
"1023 1999 OFFCURVE",
"990 2011 OFFCURVE",
"954 2023 CURVE SMOOTH",
"918 2035 OFFCURVE",
"879 2047 OFFCURVE",
"827 2047 CURVE SMOOTH",
"716 2047 OFFCURVE",
"631 1997 OFFCURVE",
"586 1905 CURVE",
"595 1902 LINE",
"622 1927 OFFCURVE",
"653 1939 OFFCURVE",
"689 1939 CURVE SMOOTH",
"732 1939 OFFCURVE",
"770 1925 OFFCURVE",
"811 1910 CURVE",
"492 1661 LINE"
);
}
);
width = 940;
}
);
note = Ecircumflextilde;
unicode = 1EC4;
},
{
glyphname = Edblgrave;
lastChange = "2015-07-03 17:18:40 +0000";
layers = (
{
layerId = "C17AF255-02ED-42AD-B705-02996A84AD46";
paths = (
{
closed = 1;
nodes = (
"515 -37 OFFCURVE",
"638 -1 OFFCURVE",
"744 66 CURVE SMOOTH",
"850 133 OFFCURVE",
"936 228 OFFCURVE",
"991 348 CURVE",
"944 369 LINE",
"905 300 OFFCURVE",
"842 248 OFFCURVE",
"773 213 CURVE SMOOTH",
"704 177 OFFCURVE",
"628 160 OFFCURVE",
"565 160 CURVE SMOOTH",
"496 160 OFFCURVE",
"447 183 OFFCURVE",
"416 220 CURVE SMOOTH",
"385 257 OFFCURVE",
"371 310 OFFCURVE",
"371 367 CURVE SMOOTH",
"371 430 OFFCURVE",
"388 499 OFFCURVE",
"418 567 CURVE SMOOTH",
"448 634 OFFCURVE",
"491 698 OFFCURVE",
"545 750 CURVE SMOOTH",
"599 801 OFFCURVE",
"664 840 OFFCURVE",
"737 856 CURVE",
"664 876 OFFCURVE",
"611 914 OFFCURVE",
"578 963 CURVE SMOOTH",
"545 1011 OFFCURVE",
"530 1070 OFFCURVE",
"530 1130 CURVE SMOOTH",
"530 1202 OFFCURVE",
"552 1275 OFFCURVE",
"589 1329 CURVE SMOOTH",
"625 1383 OFFCURVE",
"678 1419 OFFCURVE",
"739 1419 CURVE SMOOTH",
"767 1419 OFFCURVE",
"796 1412 OFFCURVE",
"817 1394 CURVE SMOOTH",
"837 1376 OFFCURVE",
"852 1346 OFFCURVE",
"852 1305 CURVE SMOOTH",
"852 1269 OFFCURVE",
"842 1228 OFFCURVE",
"826 1195 CURVE SMOOTH",
"809 1162 OFFCURVE",
"786 1134 OFFCURVE",
"762 1126 CURVE",
"789 1089 OFFCURVE",
"821 1071 OFFCURVE",
"858 1071 CURVE SMOOTH",
"899 1071 OFFCURVE",
"937 1094 OFFCURVE",
"965 1132 CURVE SMOOTH",
"993 1170 OFFCURVE",
"1010 1223 OFFCURVE",
"1010 1284 CURVE SMOOTH",
"1010 1368 OFFCURVE",
"978 1432 OFFCURVE",
"925 1475 CURVE SMOOTH",
"872 1518 OFFCURVE",
"798 1540 OFFCURVE",
"717 1540 CURVE SMOOTH",
"586 1540 OFFCURVE",
"474 1483 OFFCURVE",
"395 1399 CURVE SMOOTH",
"315 1315 OFFCURVE",
"268 1205 OFFCURVE",
"268 1100 CURVE SMOOTH",
"268 1008 OFFCURVE",
"305 918 OFFCURVE",
"393 854 CURVE",
"274 823 OFFCURVE",
"179 745 OFFCURVE",
"115 647 CURVE SMOOTH",
"50 549 OFFCURVE",
"14 432 OFFCURVE",
"14 324 CURVE SMOOTH",
"14 228 OFFCURVE",
"43 139 OFFCURVE",
"104 72 CURVE SMOOTH",
"164 5 OFFCURVE",
"259 -37 OFFCURVE",
"391 -37 CURVE SMOOTH"
);
},
{
closed = 1;
nodes = (
"620 1661 LINE",
"433 2048 LINE",
"218 2048 LINE",
"507 1661 LINE"
);
},
{
closed = 1;
nodes = (
"951 1661 LINE",
"765 2048 LINE",
"550 2048 LINE",
"839 1661 LINE"
);
}
);
width = 940;
}
);
note = Edblgrave;
unicode = 0204;
},
{
glyphname = Edieresis;
lastChange = "2015-07-03 17:18:38 +0000";
layers = (
{
layerId = "C17AF255-02ED-42AD-B705-02996A84AD46";
paths = (
{
closed = 1;
nodes = (
"515 -37 OFFCURVE",
"638 -1 OFFCURVE",
"744 66 CURVE SMOOTH",
"850 133 OFFCURVE",
"936 228 OFFCURVE",
"991 348 CURVE",
"944 369 LINE",
"905 300 OFFCURVE",
"842 248 OFFCURVE",
"773 213 CURVE SMOOTH",
"704 177 OFFCURVE",
"628 160 OFFCURVE",
"565 160 CURVE SMOOTH",
"496 160 OFFCURVE",
"447 183 OFFCURVE",
"416 220 CURVE SMOOTH",
"385 257 OFFCURVE",
"371 310 OFFCURVE",
"371 367 CURVE SMOOTH",
"371 430 OFFCURVE",
"388 499 OFFCURVE",
"418 567 CURVE SMOOTH",
"448 634 OFFCURVE",
"491 698 OFFCURVE",
"545 750 CURVE SMOOTH",
"599 801 OFFCURVE",
"664 840 OFFCURVE",
"737 856 CURVE",
"664 876 OFFCURVE",
"611 914 OFFCURVE",
"578 963 CURVE SMOOTH",
"545 1011 OFFCURVE",
"530 1070 OFFCURVE",
"530 1130 CURVE SMOOTH",
"530 1202 OFFCURVE",
"552 1275 OFFCURVE",
"589 1329 CURVE SMOOTH",
"625 1383 OFFCURVE",
"678 1419 OFFCURVE",
"739 1419 CURVE SMOOTH",
"767 1419 OFFCURVE",
"796 1412 OFFCURVE",
"817 1394 CURVE SMOOTH",
"837 1376 OFFCURVE",
"852 1346 OFFCURVE",
"852 1305 CURVE SMOOTH",
"852 1269 OFFCURVE",
"842 1228 OFFCURVE",
"826 1195 CURVE SMOOTH",
"809 1162 OFFCURVE",
"786 1134 OFFCURVE",
"762 1126 CURVE",
"789 1089 OFFCURVE",
"821 1071 OFFCURVE",
"858 1071 CURVE SMOOTH",
"899 1071 OFFCURVE",
"937 1094 OFFCURVE",
"965 1132 CURVE SMOOTH",
"993 1170 OFFCURVE",
"1010 1223 OFFCURVE",
"1010 1284 CURVE SMOOTH",
"1010 1368 OFFCURVE",
"978 1432 OFFCURVE",
"925 1475 CURVE SMOOTH",
"872 1518 OFFCURVE",
"798 1540 OFFCURVE",
"717 1540 CURVE SMOOTH",
"586 1540 OFFCURVE",
"474 1483 OFFCURVE",
"395 1399 CURVE SMOOTH",
"315 1315 OFFCURVE",
"268 1205 OFFCURVE",
"268 1100 CURVE SMOOTH",
"268 1008 OFFCURVE",
"305 918 OFFCURVE",
"393 854 CURVE",
"274 823 OFFCURVE",
"179 745 OFFCURVE",
"115 647 CURVE SMOOTH",
"50 549 OFFCURVE",
"14 432 OFFCURVE",
"14 324 CURVE SMOOTH",
"14 228 OFFCURVE",
"43 139 OFFCURVE",
"104 72 CURVE SMOOTH",
"164 5 OFFCURVE",
"259 -37 OFFCURVE",
"391 -37 CURVE SMOOTH"
);
},
{
closed = 1;
nodes = (
"645 1686 OFFCURVE",
"677 1700 OFFCURVE",
"700 1722 CURVE SMOOTH",
"723 1744 OFFCURVE",
"737 1774 OFFCURVE",
"737 1810 CURVE SMOOTH",
"737 1843 OFFCURVE",
"723 1875 OFFCURVE",
"700 1898 CURVE SMOOTH",
"677 1921 OFFCURVE",
"645 1935 OFFCURVE",
"612 1935 CURVE SMOOTH",
"576 1935 OFFCURVE",
"546 1921 OFFCURVE",
"523 1898 CURVE SMOOTH",
"500 1875 OFFCURVE",
"487 1843 OFFCURVE",
"487 1810 CURVE SMOOTH",
"487 1774 OFFCURVE",
"500 1744 OFFCURVE",
"523 1722 CURVE SMOOTH",
"546 1700 OFFCURVE",
"576 1686 OFFCURVE",
"612 1686 CURVE SMOOTH"
);
},
{
closed = 1;
nodes = (
"1014 1686 OFFCURVE",
"1046 1700 OFFCURVE",
"1069 1722 CURVE SMOOTH",
"1092 1744 OFFCURVE",
"1106 1774 OFFCURVE",
"1106 1810 CURVE SMOOTH",
"1106 1843 OFFCURVE",
"1092 1875 OFFCURVE",
"1069 1898 CURVE SMOOTH",
"1046 1921 OFFCURVE",
"1014 1935 OFFCURVE",
"981 1935 CURVE SMOOTH",
"945 1935 OFFCURVE",
"914 1921 OFFCURVE",
"892 1898 CURVE SMOOTH",
"870 1875 OFFCURVE",
"856 1843 OFFCURVE",
"856 1810 CURVE SMOOTH",
"856 1774 OFFCURVE",
"870 1744 OFFCURVE",
"892 1722 CURVE SMOOTH",
"914 1700 OFFCURVE",
"945 1686 OFFCURVE",
"981 1686 CURVE SMOOTH"
);
}
);
width = 940;
}
);
note = Edieresis;
unicode = 00CB;
},
{
glyphname = Edotaccent;
lastChange = "2015-07-03 17:18:39 +0000";
layers = (
{
layerId = "C17AF255-02ED-42AD-B705-02996A84AD46";
paths = (
{
closed = 1;
nodes = (
"515 -37 OFFCURVE",
"638 -1 OFFCURVE",
"744 66 CURVE SMOOTH",
"850 133 OFFCURVE",
"936 228 OFFCURVE",
"991 348 CURVE",
"944 369 LINE",
"905 300 OFFCURVE",
"842 248 OFFCURVE",
"773 213 CURVE SMOOTH",
"704 177 OFFCURVE",
"628 160 OFFCURVE",
"565 160 CURVE SMOOTH",
"496 160 OFFCURVE",
"447 183 OFFCURVE",
"416 220 CURVE SMOOTH",
"385 257 OFFCURVE",
"371 310 OFFCURVE",
"371 367 CURVE SMOOTH",
"371 430 OFFCURVE",
"388 499 OFFCURVE",
"418 567 CURVE SMOOTH",
"448 634 OFFCURVE",
"491 698 OFFCURVE",
"545 750 CURVE SMOOTH",
"599 801 OFFCURVE",
"664 840 OFFCURVE",
"737 856 CURVE",
"664 876 OFFCURVE",
"611 914 OFFCURVE",
"578 963 CURVE SMOOTH",
"545 1011 OFFCURVE",
"530 1070 OFFCURVE",
"530 1130 CURVE SMOOTH",
"530 1202 OFFCURVE",
"552 1275 OFFCURVE",
"589 1329 CURVE SMOOTH",
"625 1383 OFFCURVE",
"678 1419 OFFCURVE",
"739 1419 CURVE SMOOTH",
"767 1419 OFFCURVE",
"796 1412 OFFCURVE",
"817 1394 CURVE SMOOTH",
"837 1376 OFFCURVE",
"852 1346 OFFCURVE",
"852 1305 CURVE SMOOTH",
"852 1269 OFFCURVE",
"842 1228 OFFCURVE",
"826 1195 CURVE SMOOTH",
"809 1162 OFFCURVE",
"786 1134 OFFCURVE",
"762 1126 CURVE",
"789 1089 OFFCURVE",
"821 1071 OFFCURVE",
"858 1071 CURVE SMOOTH",
"899 1071 OFFCURVE",
"937 1094 OFFCURVE",
"965 1132 CURVE SMOOTH",
"993 1170 OFFCURVE",
"1010 1223 OFFCURVE",
"1010 1284 CURVE SMOOTH",
"1010 1368 OFFCURVE",
"978 1432 OFFCURVE",
"925 1475 CURVE SMOOTH",
"872 1518 OFFCURVE",
"798 1540 OFFCURVE",
"717 1540 CURVE SMOOTH",
"586 1540 OFFCURVE",
"474 1483 OFFCURVE",
"395 1399 CURVE SMOOTH",
"315 1315 OFFCURVE",
"268 1205 OFFCURVE",
"268 1100 CURVE SMOOTH",
"268 1008 OFFCURVE",
"305 918 OFFCURVE",
"393 854 CURVE",
"274 823 OFFCURVE",
"179 745 OFFCURVE",
"115 647 CURVE SMOOTH",
"50 549 OFFCURVE",
"14 432 OFFCURVE",
"14 324 CURVE SMOOTH",
"14 228 OFFCURVE",
"43 139 OFFCURVE",
"104 72 CURVE SMOOTH",
"164 5 OFFCURVE",
"259 -37 OFFCURVE",
"391 -37 CURVE SMOOTH"
);
},
{
closed = 1;
nodes = (
"867 1683 OFFCURVE",
"908 1701 OFFCURVE",
"938 1730 CURVE SMOOTH",
"968 1758 OFFCURVE",
"986 1799 OFFCURVE",
"986 1844 CURVE SMOOTH",
"986 1889 OFFCURVE",
"968 1931 OFFCURVE",
"938 1960 CURVE SMOOTH",
"908 1989 OFFCURVE",
"867 2008 OFFCURVE",
"822 2008 CURVE SMOOTH",
"777 2008 OFFCURVE",
"736 1989 OFFCURVE",
"707 1960 CURVE SMOOTH",
"678 1931 OFFCURVE",
"660 1889 OFFCURVE",
"660 1844 CURVE SMOOTH",
"660 1799 OFFCURVE",
"678 1758 OFFCURVE",
"707 1730 CURVE SMOOTH",
"736 1701 OFFCURVE",
"777 1683 OFFCURVE",
"822 1683 CURVE SMOOTH"
);
}
);
width = 940;
}
);
note = Edotaccent;
unicode = 0116;
},
{
glyphname = Edotbelow;
lastChange = "2015-07-03 17:18:39 +0000";
layers = (
{
layerId = "C17AF255-02ED-42AD-B705-02996A84AD46";
paths = (
{
closed = 1;
nodes = (
"515 -37 OFFCURVE",
"638 -1 OFFCURVE",
"744 66 CURVE SMOOTH",
"850 133 OFFCURVE",
"936 228 OFFCURVE",
"991 348 CURVE",
"944 369 LINE",
"905 300 OFFCURVE",
"842 248 OFFCURVE",
"773 213 CURVE SMOOTH",
"704 177 OFFCURVE",
"628 160 OFFCURVE",
"565 160 CURVE SMOOTH",
"496 160 OFFCURVE",
"447 183 OFFCURVE",
"416 220 CURVE SMOOTH",
"385 257 OFFCURVE",
"371 310 OFFCURVE",
"371 367 CURVE SMOOTH",
"371 430 OFFCURVE",
"388 499 OFFCURVE",
"418 567 CURVE SMOOTH",
"448 634 OFFCURVE",
"491 698 OFFCURVE",
"545 750 CURVE SMOOTH",
"599 801 OFFCURVE",
"664 840 OFFCURVE",
"737 856 CURVE",
"664 876 OFFCURVE",
"611 914 OFFCURVE",
"578 963 CURVE SMOOTH",
"545 1011 OFFCURVE",
"530 1070 OFFCURVE",
"530 1130 CURVE SMOOTH",
"530 1202 OFFCURVE",
"552 1275 OFFCURVE",
"589 1329 CURVE SMOOTH",
"625 1383 OFFCURVE",
"678 1419 OFFCURVE",
"739 1419 CURVE SMOOTH",
"767 1419 OFFCURVE",
"796 1412 OFFCURVE",
"817 1394 CURVE SMOOTH",
"837 1376 OFFCURVE",
"852 1346 OFFCURVE",
"852 1305 CURVE SMOOTH",
"852 1269 OFFCURVE",
"842 1228 OFFCURVE",
"826 1195 CURVE SMOOTH",
"809 1162 OFFCURVE",
"786 1134 OFFCURVE",
"762 1126 CURVE",
"789 1089 OFFCURVE",
"821 1071 OFFCURVE",
"858 1071 CURVE SMOOTH",
"899 1071 OFFCURVE",
"937 1094 OFFCURVE",
"965 1132 CURVE SMOOTH",
"993 1170 OFFCURVE",
"1010 1223 OFFCURVE",
"1010 1284 CURVE SMOOTH",
"1010 1368 OFFCURVE",
"978 1432 OFFCURVE",
"925 1475 CURVE SMOOTH",
"872 1518 OFFCURVE",
"798 1540 OFFCURVE",
"717 1540 CURVE SMOOTH",
"586 1540 OFFCURVE",
"474 1483 OFFCURVE",
"395 1399 CURVE SMOOTH",
"315 1315 OFFCURVE",
"268 1205 OFFCURVE",
"268 1100 CURVE SMOOTH",
"268 1008 OFFCURVE",
"305 918 OFFCURVE",
"393 854 CURVE",
"274 823 OFFCURVE",
"179 745 OFFCURVE",
"115 647 CURVE SMOOTH",
"50 549 OFFCURVE",
"14 432 OFFCURVE",
"14 324 CURVE SMOOTH",
"14 228 OFFCURVE",
"43 139 OFFCURVE",
"104 72 CURVE SMOOTH",
"164 5 OFFCURVE",
"259 -37 OFFCURVE",
"391 -37 CURVE SMOOTH"
);
},
{
closed = 1;
nodes = (
"358 -473 OFFCURVE",
"399 -455 OFFCURVE",
"429 -426 CURVE SMOOTH",
"459 -397 OFFCURVE",
"477 -356 OFFCURVE",
"477 -311 CURVE SMOOTH",
"477 -266 OFFCURVE",
"459 -225 OFFCURVE",
"429 -195 CURVE SMOOTH",
"399 -165 OFFCURVE",
"358 -147 OFFCURVE",
"313 -147 CURVE SMOOTH",
"268 -147 OFFCURVE",
"227 -165 OFFCURVE",
"198 -195 CURVE SMOOTH",
"169 -225 OFFCURVE",
"151 -266 OFFCURVE",
"151 -311 CURVE SMOOTH",
"151 -356 OFFCURVE",
"169 -397 OFFCURVE",
"198 -426 CURVE SMOOTH",
"227 -455 OFFCURVE",
"268 -473 OFFCURVE",
"313 -473 CURVE SMOOTH"
);
}
);
width = 940;
}
);
note = Edotbelow;
unicode = 1EB8;
},
{
glyphname = Egrave;
lastChange = "2015-07-03 17:18:40 +0000";
layers = (
{
layerId = "C17AF255-02ED-42AD-B705-02996A84AD46";
paths = (
{
closed = 1;
nodes = (
"515 -37 OFFCURVE",
"638 -1 OFFCURVE",
"744 66 CURVE SMOOTH",
"850 133 OFFCURVE",
"936 228 OFFCURVE",
"991 348 CURVE",
"944 369 LINE",
"905 300 OFFCURVE",
"842 248 OFFCURVE",
"773 213 CURVE SMOOTH",
"704 177 OFFCURVE",
"628 160 OFFCURVE",
"565 160 CURVE SMOOTH",
"496 160 OFFCURVE",
"447 183 OFFCURVE",
"416 220 CURVE SMOOTH",
"385 257 OFFCURVE",
"371 310 OFFCURVE",
"371 367 CURVE SMOOTH",
"371 430 OFFCURVE",
"388 499 OFFCURVE",
"418 567 CURVE SMOOTH",
"448 634 OFFCURVE",
"491 698 OFFCURVE",
"545 750 CURVE SMOOTH",
"599 801 OFFCURVE",
"664 840 OFFCURVE",
"737 856 CURVE",
"664 876 OFFCURVE",
"611 914 OFFCURVE",
"578 963 CURVE SMOOTH",
"545 1011 OFFCURVE",
"530 1070 OFFCURVE",
"530 1130 CURVE SMOOTH",
"530 1202 OFFCURVE",
"552 1275 OFFCURVE",
"589 1329 CURVE SMOOTH",
"625 1383 OFFCURVE",
"678 1419 OFFCURVE",
"739 1419 CURVE SMOOTH",
"767 1419 OFFCURVE",
"796 1412 OFFCURVE",
"817 1394 CURVE SMOOTH",
"837 1376 OFFCURVE",
"852 1346 OFFCURVE",
"852 1305 CURVE SMOOTH",
"852 1269 OFFCURVE",
"842 1228 OFFCURVE",
"826 1195 CURVE SMOOTH",
"809 1162 OFFCURVE",
"786 1134 OFFCURVE",
"762 1126 CURVE",
"789 1089 OFFCURVE",
"821 1071 OFFCURVE",
"858 1071 CURVE SMOOTH",
"899 1071 OFFCURVE",
"937 1094 OFFCURVE",
"965 1132 CURVE SMOOTH",
"993 1170 OFFCURVE",
"1010 1223 OFFCURVE",
"1010 1284 CURVE SMOOTH",
"1010 1368 OFFCURVE",
"978 1432 OFFCURVE",
"925 1475 CURVE SMOOTH",
"872 1518 OFFCURVE",
"798 1540 OFFCURVE",
"717 1540 CURVE SMOOTH",
"586 1540 OFFCURVE",
"474 1483 OFFCURVE",
"395 1399 CURVE SMOOTH",
"315 1315 OFFCURVE",
"268 1205 OFFCURVE",
"268 1100 CURVE SMOOTH",
"268 1008 OFFCURVE",
"305 918 OFFCURVE",
"393 854 CURVE",
"274 823 OFFCURVE",
"179 745 OFFCURVE",
"115 647 CURVE SMOOTH",
"50 549 OFFCURVE",
"14 432 OFFCURVE",
"14 324 CURVE SMOOTH",
"14 228 OFFCURVE",
"43 139 OFFCURVE",
"104 72 CURVE SMOOTH",
"164 5 OFFCURVE",
"259 -37 OFFCURVE",
"391 -37 CURVE SMOOTH"
);
},
{
closed = 1;
nodes = (
"791 1661 LINE",
"731 2048 LINE",
"516 2048 LINE",
"637 1661 LINE"
);
}
);
width = 940;
}
);
note = Egrave;
unicode = 00C8;
},
{
glyphname = Ehookabove;
lastChange = "2015-07-03 17:18:41 +0000";
layers = (
{
layerId = "C17AF255-02ED-42AD-B705-02996A84AD46";
paths = (
{
closed = 1;
nodes = (
"515 -37 OFFCURVE",
"638 -1 OFFCURVE",
"744 66 CURVE SMOOTH",
"850 133 OFFCURVE",
"936 228 OFFCURVE",
"991 348 CURVE",
"944 369 LINE",
"905 300 OFFCURVE",
"842 248 OFFCURVE",
"773 213 CURVE SMOOTH",
"704 177 OFFCURVE",
"628 160 OFFCURVE",
"565 160 CURVE SMOOTH",
"496 160 OFFCURVE",
"447 183 OFFCURVE",
"416 220 CURVE SMOOTH",
"385 257 OFFCURVE",
"371 310 OFFCURVE",
"371 367 CURVE SMOOTH",
"371 430 OFFCURVE",
"388 499 OFFCURVE",
"418 567 CURVE SMOOTH",
"448 634 OFFCURVE",
"491 698 OFFCURVE",
"545 750 CURVE SMOOTH",
"599 801 OFFCURVE",
"664 840 OFFCURVE",
"737 856 CURVE",
"664 876 OFFCURVE",
"611 914 OFFCURVE",
"578 963 CURVE SMOOTH",
"545 1011 OFFCURVE",
"530 1070 OFFCURVE",
"530 1130 CURVE SMOOTH",
"530 1202 OFFCURVE",
"552 1275 OFFCURVE",
"589 1329 CURVE SMOOTH",
"625 1383 OFFCURVE",
"678 1419 OFFCURVE",
"739 1419 CURVE SMOOTH",
"767 1419 OFFCURVE",
"796 1412 OFFCURVE",
"817 1394 CURVE SMOOTH",
"837 1376 OFFCURVE",
"852 1346 OFFCURVE",
"852 1305 CURVE SMOOTH",
"852 1269 OFFCURVE",
"842 1228 OFFCURVE",
"826 1195 CURVE SMOOTH",
"809 1162 OFFCURVE",
"786 1134 OFFCURVE",
"762 1126 CURVE",
"789 1089 OFFCURVE",
"821 1071 OFFCURVE",
"858 1071 CURVE SMOOTH",
"899 1071 OFFCURVE",
"937 1094 OFFCURVE",
"965 1132 CURVE SMOOTH",
"993 1170 OFFCURVE",
"1010 1223 OFFCURVE",
"1010 1284 CURVE SMOOTH",
"1010 1368 OFFCURVE",
"978 1432 OFFCURVE",
"925 1475 CURVE SMOOTH",
"872 1518 OFFCURVE",
"798 1540 OFFCURVE",
"717 1540 CURVE SMOOTH",
"586 1540 OFFCURVE",
"474 1483 OFFCURVE",
"395 1399 CURVE SMOOTH",
"315 1315 OFFCURVE",
"268 1205 OFFCURVE",
"268 1100 CURVE SMOOTH",
"268 1008 OFFCURVE",
"305 918 OFFCURVE",
"393 854 CURVE",
"274 823 OFFCURVE",
"179 745 OFFCURVE",
"115 647 CURVE SMOOTH",
"50 549 OFFCURVE",
"14 432 OFFCURVE",
"14 324 CURVE SMOOTH",
"14 228 OFFCURVE",
"43 139 OFFCURVE",
"104 72 CURVE SMOOTH",
"164 5 OFFCURVE",
"259 -37 OFFCURVE",
"391 -37 CURVE SMOOTH"
);
},
{
closed = 1;
nodes = (
"804 1705 LINE",
"868 1710 OFFCURVE",
"922 1731 OFFCURVE",
"960 1762 CURVE SMOOTH",
"998 1793 OFFCURVE",
"1020 1835 OFFCURVE",
"1020 1883 CURVE SMOOTH",
"1020 1931 OFFCURVE",
"999 1973 OFFCURVE",
"961 2002 CURVE SMOOTH",
"923 2030 OFFCURVE",
"869 2047 OFFCURVE",
"808 2047 CURVE SMOOTH",
"733 2047 OFFCURVE",
"655 2026 OFFCURVE",
"608 1997 CURVE",
"662 1911 LINE",
"697 1934 OFFCURVE",
"739 1944 OFFCURVE",
"784 1944 CURVE SMOOTH",
"848 1944 OFFCURVE",
"880 1919 OFFCURVE",
"880 1870 CURVE SMOOTH",
"880 1825 OFFCURVE",
"847 1797 OFFCURVE",
"784 1797 CURVE SMOOTH",
"757 1797 OFFCURVE",
"724 1799 OFFCURVE",
"693 1806 CURVE",
"693 1627 LINE",
"789 1622 LINE"
);
}
);
width = 940;
}
);
note = Ehookabove;
unicode = 1EBA;
},
{
glyphname = Einvertedbreve;
lastChange = "2015-07-03 17:18:42 +0000";
layers = (
{
layerId = "C17AF255-02ED-42AD-B705-02996A84AD46";
paths = (
{
closed = 1;
nodes = (
"515 -37 OFFCURVE",
"638 -1 OFFCURVE",
"744 66 CURVE SMOOTH",
"850 133 OFFCURVE",
"936 228 OFFCURVE",
"991 348 CURVE",
"944 369 LINE",
"905 300 OFFCURVE",
"842 248 OFFCURVE",
"773 213 CURVE SMOOTH",
"704 177 OFFCURVE",
"628 160 OFFCURVE",
"565 160 CURVE SMOOTH",
"496 160 OFFCURVE",
"447 183 OFFCURVE",
"416 220 CURVE SMOOTH",
"385 257 OFFCURVE",
"371 310 OFFCURVE",
"371 367 CURVE SMOOTH",
"371 430 OFFCURVE",
"388 499 OFFCURVE",
"418 567 CURVE SMOOTH",
"448 634 OFFCURVE",
"491 698 OFFCURVE",
"545 750 CURVE SMOOTH",
"599 801 OFFCURVE",
"664 840 OFFCURVE",
"737 856 CURVE",
"664 876 OFFCURVE",
"611 914 OFFCURVE",
"578 963 CURVE SMOOTH",
"545 1011 OFFCURVE",
"530 1070 OFFCURVE",
"530 1130 CURVE SMOOTH",
"530 1202 OFFCURVE",
"552 1275 OFFCURVE",
"589 1329 CURVE SMOOTH",
"625 1383 OFFCURVE",
"678 1419 OFFCURVE",
"739 1419 CURVE SMOOTH",
"767 1419 OFFCURVE",
"796 1412 OFFCURVE",
"817 1394 CURVE SMOOTH",
"837 1376 OFFCURVE",
"852 1346 OFFCURVE",
"852 1305 CURVE SMOOTH",
"852 1269 OFFCURVE",
"842 1228 OFFCURVE",
"826 1195 CURVE SMOOTH",
"809 1162 OFFCURVE",
"786 1134 OFFCURVE",
"762 1126 CURVE",
"789 1089 OFFCURVE",
"821 1071 OFFCURVE",
"858 1071 CURVE SMOOTH",
"899 1071 OFFCURVE",
"937 1094 OFFCURVE",
"965 1132 CURVE SMOOTH",
"993 1170 OFFCURVE",
"1010 1223 OFFCURVE",
"1010 1284 CURVE SMOOTH",
"1010 1368 OFFCURVE",
"978 1432 OFFCURVE",
"925 1475 CURVE SMOOTH",
"872 1518 OFFCURVE",
"798 1540 OFFCURVE",
"717 1540 CURVE SMOOTH",
"586 1540 OFFCURVE",
"474 1483 OFFCURVE",
"395 1399 CURVE SMOOTH",
"315 1315 OFFCURVE",
"268 1205 OFFCURVE",
"268 1100 CURVE SMOOTH",
"268 1008 OFFCURVE",
"305 918 OFFCURVE",
"393 854 CURVE",
"274 823 OFFCURVE",
"179 745 OFFCURVE",
"115 647 CURVE SMOOTH",
"50 549 OFFCURVE",
"14 432 OFFCURVE",
"14 324 CURVE SMOOTH",
"14 228 OFFCURVE",
"43 139 OFFCURVE",
"104 72 CURVE SMOOTH",
"164 5 OFFCURVE",
"259 -37 OFFCURVE",
"391 -37 CURVE SMOOTH"
);
},
{
closed = 1;
nodes = (
"588 1683 LINE",
"595 1730 OFFCURVE",
"622 1772 OFFCURVE",
"663 1803 CURVE SMOOTH",
"703 1834 OFFCURVE",
"756 1853 OFFCURVE",
"812 1853 CURVE SMOOTH",
"915 1853 OFFCURVE",
"973 1792 OFFCURVE",
"973 1683 CURVE",
"1156 1683 LINE",
"1156 1868 OFFCURVE",
"1048 1966 OFFCURVE",
"844 1966 CURVE SMOOTH",
"733 1966 OFFCURVE",
"631 1936 OFFCURVE",
"554 1885 CURVE SMOOTH",
"477 1833 OFFCURVE",
"424 1763 OFFCURVE",
"412 1683 CURVE"
);
}
);
width = 940;
}
);
note = Einvertedbreve;
unicode = 0206;
},
{
glyphname = Emacron;
lastChange = "2015-07-03 17:18:41 +0000";
layers = (
{
layerId = "C17AF255-02ED-42AD-B705-02996A84AD46";
paths = (
{
closed = 1;
nodes = (
"515 -37 OFFCURVE",
"638 -1 OFFCURVE",
"744 66 CURVE SMOOTH",
"850 133 OFFCURVE",
"936 228 OFFCURVE",
"991 348 CURVE",
"944 369 LINE",
"905 300 OFFCURVE",
"842 248 OFFCURVE",
"773 213 CURVE SMOOTH",
"704 177 OFFCURVE",
"628 160 OFFCURVE",
"565 160 CURVE SMOOTH",
"496 160 OFFCURVE",
"447 183 OFFCURVE",
"416 220 CURVE SMOOTH",
"385 257 OFFCURVE",
"371 310 OFFCURVE",
"371 367 CURVE SMOOTH",
"371 430 OFFCURVE",
"388 499 OFFCURVE",
"418 567 CURVE SMOOTH",
"448 634 OFFCURVE",
"491 698 OFFCURVE",
"545 750 CURVE SMOOTH",
"599 801 OFFCURVE",
"664 840 OFFCURVE",
"737 856 CURVE",
"664 876 OFFCURVE",
"611 914 OFFCURVE",
"578 963 CURVE SMOOTH",
"545 1011 OFFCURVE",
"530 1070 OFFCURVE",
"530 1130 CURVE SMOOTH",
"530 1202 OFFCURVE",
"552 1275 OFFCURVE",
"589 1329 CURVE SMOOTH",
"625 1383 OFFCURVE",
"678 1419 OFFCURVE",
"739 1419 CURVE SMOOTH",
"767 1419 OFFCURVE",
"796 1412 OFFCURVE",
"817 1394 CURVE SMOOTH",
"837 1376 OFFCURVE",
"852 1346 OFFCURVE",
"852 1305 CURVE SMOOTH",
"852 1269 OFFCURVE",
"842 1228 OFFCURVE",
"826 1195 CURVE SMOOTH",
"809 1162 OFFCURVE",
"786 1134 OFFCURVE",
"762 1126 CURVE",
"789 1089 OFFCURVE",
"821 1071 OFFCURVE",
"858 1071 CURVE SMOOTH",
"899 1071 OFFCURVE",
"937 1094 OFFCURVE",
"965 1132 CURVE SMOOTH",
"993 1170 OFFCURVE",
"1010 1223 OFFCURVE",
"1010 1284 CURVE SMOOTH",
"1010 1368 OFFCURVE",
"978 1432 OFFCURVE",
"925 1475 CURVE SMOOTH",
"872 1518 OFFCURVE",
"798 1540 OFFCURVE",
"717 1540 CURVE SMOOTH",
"586 1540 OFFCURVE",
"474 1483 OFFCURVE",
"395 1399 CURVE SMOOTH",
"315 1315 OFFCURVE",
"268 1205 OFFCURVE",
"268 1100 CURVE SMOOTH",
"268 1008 OFFCURVE",
"305 918 OFFCURVE",
"393 854 CURVE",
"274 823 OFFCURVE",
"179 745 OFFCURVE",
"115 647 CURVE SMOOTH",
"50 549 OFFCURVE",
"14 432 OFFCURVE",
"14 324 CURVE SMOOTH",
"14 228 OFFCURVE",
"43 139 OFFCURVE",
"104 72 CURVE SMOOTH",
"164 5 OFFCURVE",
"259 -37 OFFCURVE",
"391 -37 CURVE SMOOTH"
);
},
{
closed = 1;
nodes = (
"1116 1738 LINE",
"1146 1890 LINE",
"491 1890 LINE",
"458 1738 LINE"
);
}
);
width = 940;
}
);
note = Emacron;
unicode = 0112;
},
{
glyphname = Eogonek;
lastChange = "2015-07-03 17:18:41 +0000";
layers = (
{
layerId = "C17AF255-02ED-42AD-B705-02996A84AD46";
paths = (
{
closed = 1;
nodes = (
"666 -395 OFFCURVE",
"710 -375 OFFCURVE",
"747 -349 CURVE SMOOTH",
"784 -323 OFFCURVE",
"814 -292 OFFCURVE",
"838 -268 CURVE",
"838 -244 OFFCURVE",
"839 -229 OFFCURVE",
"842 -205 CURVE",
"832 -212 OFFCURVE",
"821 -219 OFFCURVE",
"810 -227 CURVE SMOOTH",
"799 -235 OFFCURVE",
"787 -242 OFFCURVE",
"776 -249 CURVE",
"752 -263 OFFCURVE",
"727 -274 OFFCURVE",
"702 -274 CURVE SMOOTH",
"674 -274 OFFCURVE",
"654 -260 OFFCURVE",
"642 -240 CURVE",
"629 -221 OFFCURVE",
"623 -196 OFFCURVE",
"623 -172 CURVE SMOOTH",
"623 -130 OFFCURVE",
"630 -94 OFFCURVE",
"644 -65 CURVE SMOOTH",
"671 -7 OFFCURVE",
"716 35 OFFCURVE",
"771 75 CURVE SMOOTH",
"798 94 OFFCURVE",
"826 116 OFFCURVE",
"853 141 CURVE SMOOTH",
"908 189 OFFCURVE",
"959 251 OFFCURVE",
"991 348 CURVE",
"944 369 LINE",
"905 304 OFFCURVE",
"865 254 OFFCURVE",
"813 222 CURVE SMOOTH",
"761 189 OFFCURVE",
"700 172 OFFCURVE",
"621 172 CURVE SMOOTH",
"554 172 OFFCURVE",
"495 203 OFFCURVE",
"452 252 CURVE SMOOTH",
"408 301 OFFCURVE",
"381 369 OFFCURVE",
"381 444 CURVE SMOOTH",
"381 516 OFFCURVE",
"405 592 OFFCURVE",
"462 664 CURVE SMOOTH",
"518 735 OFFCURVE",
"606 801 OFFCURVE",
"737 856 CURVE",
"640 900 OFFCURVE",
"573 955 OFFCURVE",
"530 1013 CURVE SMOOTH",
"486 1071 OFFCURVE",
"467 1134 OFFCURVE",
"467 1194 CURVE SMOOTH",
"467 1262 OFFCURVE",
"492 1326 OFFCURVE",
"536 1372 CURVE SMOOTH",
"580 1418 OFFCURVE",
"642 1446 OFFCURVE",
"717 1446 CURVE SMOOTH",
"782 1446 OFFCURVE",
"817 1417 OFFCURVE",
"834 1383 CURVE SMOOTH",
"851 1349 OFFCURVE",
"852 1310 OFFCURVE",
"852 1294 CURVE SMOOTH",
"852 1269 OFFCURVE",
"842 1230 OFFCURVE",
"826 1197 CURVE SMOOTH",
"809 1164 OFFCURVE",
"786 1134 OFFCURVE",
"762 1126 CURVE",
"801 1079 OFFCURVE",
"846 1073 OFFCURVE",
"879 1073 CURVE SMOOTH",
"931 1073 OFFCURVE",
"966 1093 OFFCURVE",
"990 1127 CURVE SMOOTH",
"1013 1161 OFFCURVE",
"1022 1207 OFFCURVE",
"1022 1262 CURVE SMOOTH",
"1022 1359 OFFCURVE",
"976 1428 OFFCURVE",
"905 1472 CURVE SMOOTH",
"834 1516 OFFCURVE",
"741 1536 OFFCURVE",
"645 1536 CURVE SMOOTH",
"500 1536 OFFCURVE",
"385 1490 OFFCURVE",
"308 1421 CURVE SMOOTH",
"231 1352 OFFCURVE",
"190 1258 OFFCURVE",
"190 1165 CURVE SMOOTH",
"190 1106 OFFCURVE",
"206 1049 OFFCURVE",
"239 995 CURVE SMOOTH",
"272 941 OFFCURVE",
"324 891 OFFCURVE",
"393 854 CURVE",
"270 830 OFFCURVE",
"178 765 OFFCURVE",
"116 682 CURVE SMOOTH",
"54 599 OFFCURVE",
"23 498 OFFCURVE",
"23 401 CURVE SMOOTH",
"23 296 OFFCURVE",
"58 192 OFFCURVE",
"129 116 CURVE SMOOTH",
"200 39 OFFCURVE",
"305 -12 OFFCURVE",
"446 -12 CURVE SMOOTH",
"497 -12 OFFCURVE",
"549 -9 OFFCURVE",
"600 2 CURVE",
"504 -74 OFFCURVE",
"453 -161 OFFCURVE",
"453 -236 CURVE SMOOTH",
"453 -272 OFFCURVE",
"466 -311 OFFCURVE",
"492 -342 CURVE SMOOTH",
"518 -373 OFFCURVE",
"558 -395 OFFCURVE",
"614 -395 CURVE SMOOTH"
);
}
);
width = 940;
}
);
note = Eogonek;
unicode = 0118;
},
{
glyphname = Etilde;
lastChange = "2015-07-03 17:18:41 +0000";
layers = (
{
layerId = "C17AF255-02ED-42AD-B705-02996A84AD46";
paths = (
{
closed = 1;
nodes = (
"515 -37 OFFCURVE",
"638 -1 OFFCURVE",
"744 66 CURVE SMOOTH",
"850 133 OFFCURVE",
"936 228 OFFCURVE",
"991 348 CURVE",
"944 369 LINE",
"905 300 OFFCURVE",
"842 248 OFFCURVE",
"773 213 CURVE SMOOTH",
"704 177 OFFCURVE",
"628 160 OFFCURVE",
"565 160 CURVE SMOOTH",
"496 160 OFFCURVE",
"447 183 OFFCURVE",
"416 220 CURVE SMOOTH",
"385 257 OFFCURVE",
"371 310 OFFCURVE",
"371 367 CURVE SMOOTH",
"371 430 OFFCURVE",
"388 499 OFFCURVE",
"418 567 CURVE SMOOTH",
"448 634 OFFCURVE",
"491 698 OFFCURVE",
"545 750 CURVE SMOOTH",
"599 801 OFFCURVE",
"664 840 OFFCURVE",
"737 856 CURVE",
"664 876 OFFCURVE",
"611 914 OFFCURVE",
"578 963 CURVE SMOOTH",
"545 1011 OFFCURVE",
"530 1070 OFFCURVE",
"530 1130 CURVE SMOOTH",
"530 1202 OFFCURVE",
"552 1275 OFFCURVE",
"589 1329 CURVE SMOOTH",
"625 1383 OFFCURVE",
"678 1419 OFFCURVE",
"739 1419 CURVE SMOOTH",
"767 1419 OFFCURVE",
"796 1412 OFFCURVE",
"817 1394 CURVE SMOOTH",
"837 1376 OFFCURVE",
"852 1346 OFFCURVE",
"852 1305 CURVE SMOOTH",
"852 1269 OFFCURVE",
"842 1228 OFFCURVE",
"826 1195 CURVE SMOOTH",
"809 1162 OFFCURVE",
"786 1134 OFFCURVE",
"762 1126 CURVE",
"789 1089 OFFCURVE",
"821 1071 OFFCURVE",
"858 1071 CURVE SMOOTH",
"899 1071 OFFCURVE",
"937 1094 OFFCURVE",
"965 1132 CURVE SMOOTH",
"993 1170 OFFCURVE",
"1010 1223 OFFCURVE",
"1010 1284 CURVE SMOOTH",
"1010 1368 OFFCURVE",
"978 1432 OFFCURVE",
"925 1475 CURVE SMOOTH",
"872 1518 OFFCURVE",
"798 1540 OFFCURVE",
"717 1540 CURVE SMOOTH",
"586 1540 OFFCURVE",
"474 1483 OFFCURVE",
"395 1399 CURVE SMOOTH",
"315 1315 OFFCURVE",
"268 1205 OFFCURVE",
"268 1100 CURVE SMOOTH",
"268 1008 OFFCURVE",
"305 918 OFFCURVE",
"393 854 CURVE",
"274 823 OFFCURVE",
"179 745 OFFCURVE",
"115 647 CURVE SMOOTH",
"50 549 OFFCURVE",
"14 432 OFFCURVE",
"14 324 CURVE SMOOTH",
"14 228 OFFCURVE",
"43 139 OFFCURVE",
"104 72 CURVE SMOOTH",
"164 5 OFFCURVE",
"259 -37 OFFCURVE",
"391 -37 CURVE SMOOTH"
);
},
{
closed = 1;
nodes = (
"989 1677 OFFCURVE",
"1068 1704 OFFCURVE",
"1128 1744 CURVE SMOOTH",
"1188 1783 OFFCURVE",
"1231 1834 OFFCURVE",
"1242 1882 CURVE",
"1230 1884 LINE",
"1199 1853 OFFCURVE",
"1152 1837 OFFCURVE",
"1101 1837 CURVE SMOOTH",
"1041 1837 OFFCURVE",
"994 1854 OFFCURVE",
"943 1871 CURVE SMOOTH",
"891 1888 OFFCURVE",
"836 1905 OFFCURVE",
"763 1905 CURVE SMOOTH",
"606 1905 OFFCURVE",
"486 1836 OFFCURVE",
"421 1704 CURVE",
"433 1700 LINE",
"472 1735 OFFCURVE",
"517 1753 OFFCURVE",
"568 1753 CURVE SMOOTH",
"625 1753 OFFCURVE",
"677 1734 OFFCURVE",
"732 1715 CURVE SMOOTH",
"787 1696 OFFCURVE",
"844 1677 OFFCURVE",
"912 1677 CURVE SMOOTH"
);
}
);
width = 940;
}
);
note = Etilde;
unicode = 1EBC;
},
{
glyphname = F;
lastChange = "2015-07-03 17:18:42 +0000";
layers = (
{
layerId = "C17AF255-02ED-42AD-B705-02996A84AD46";
paths = (
{
closed = 1;
nodes = (
"475 0 LINE",
"641 770 LINE",
"940 770 LINE",
"973 922 LINE",
"674 922 LINE",
"760 1329 LINE",
"856 1306 OFFCURVE",
"950 1290 OFFCURVE",
"1047 1290 CURVE",
"1086 1298 OFFCURVE",
"1117 1312 OFFCURVE",
"1140 1331 CURVE SMOOTH",
"1185 1369 OFFCURVE",
"1209 1417 OFFCURVE",
"1222 1467 CURVE SMOOTH",
"1228 1492 OFFCURVE",
"1234 1515 OFFCURVE",
"1241 1536 CURVE",
"1184 1517 OFFCURVE",
"1121 1511 OFFCURVE",
"1057 1511 CURVE SMOOTH",
"1024 1511 OFFCURVE",
"992 1512 OFFCURVE",
"960 1515 CURVE SMOOTH",
"896 1520 OFFCURVE",
"838 1527 OFFCURVE",
"787 1532 CURVE SMOOTH",
"761 1535 OFFCURVE",
"738 1536 OFFCURVE",
"717 1536 CURVE SMOOTH",
"464 1536 OFFCURVE",
"289 1471 OFFCURVE",
"178 1372 CURVE SMOOTH",
"66 1273 OFFCURVE",
"18 1140 OFFCURVE",
"18 1004 CURVE SMOOTH",
"18 929 OFFCURVE",
"38 880 OFFCURVE",
"75 849 CURVE SMOOTH",
"112 818 OFFCURVE",
"167 805 OFFCURVE",
"238 805 CURVE",
"238 809 OFFCURVE",
"237 814 OFFCURVE",
"234 819 CURVE SMOOTH",
"231 824 OFFCURVE",
"227 832 OFFCURVE",
"224 842 CURVE",
"216 861 OFFCURVE",
"209 892 OFFCURVE",
"209 944 CURVE SMOOTH",
"209 1108 OFFCURVE",
"236 1213 OFFCURVE",
"283 1277 CURVE SMOOTH",
"330 1341 OFFCURVE",
"396 1365 OFFCURVE",
"475 1368 CURVE",
"180 0 LINE"
);
}
);
width = 940;
}
);
note = F;
unicode = 0046;
},
{
glyphname = G;
lastChange = "2015-07-03 17:18:42 +0000";
layers = (
{
layerId = "C17AF255-02ED-42AD-B705-02996A84AD46";
paths = (
{
closed = 1;
nodes = (
"600 -424 OFFCURVE",
"702 -378 OFFCURVE",
"783 -281 CURVE SMOOTH",
"863 -184 OFFCURVE",
"924 -36 OFFCURVE",
"968 168 CURVE SMOOTH",
"1118 856 LINE",
"876 858 LINE",
"805 557 OFFCURVE",
"693 401 OFFCURVE",
"544 401 CURVE SMOOTH",
"420 401 OFFCURVE",
"354 510 OFFCURVE",
"354 717 CURVE SMOOTH",
"354 844 OFFCURVE",
"379 968 OFFCURVE",
"423 1077 CURVE SMOOTH",
"466 1185 OFFCURVE",
"528 1280 OFFCURVE",
"598 1347 CURVE SMOOTH",
"668 1414 OFFCURVE",
"748 1454 OFFCURVE",
"829 1454 CURVE SMOOTH",
"917 1454 OFFCURVE",
"966 1408 OFFCURVE",
"966 1325 CURVE SMOOTH",
"966 1288 OFFCURVE",
"956 1250 OFFCURVE",
"940 1216 CURVE SMOOTH",
"924 1182 OFFCURVE",
"902 1153 OFFCURVE",
"878 1137 CURVE",
"909 1096 OFFCURVE",
"956 1073 OFFCURVE",
"1007 1073 CURVE SMOOTH",
"1052 1073 OFFCURVE",
"1092 1093 OFFCURVE",
"1120 1127 CURVE SMOOTH",
"1147 1161 OFFCURVE",
"1163 1209 OFFCURVE",
"1163 1268 CURVE SMOOTH",
"1163 1355 OFFCURVE",
"1127 1426 OFFCURVE",
"1062 1475 CURVE SMOOTH",
"997 1523 OFFCURVE",
"902 1550 OFFCURVE",
"786 1550 CURVE SMOOTH",
"645 1550 OFFCURVE",
"516 1511 OFFCURVE",
"405 1442 CURVE SMOOTH",
"293 1373 OFFCURVE",
"202 1274 OFFCURVE",
"138 1154 CURVE SMOOTH",
"74 1034 OFFCURVE",
"38 893 OFFCURVE",
"38 741 CURVE SMOOTH",
"38 584 OFFCURVE",
"77 454 OFFCURVE",
"146 364 CURVE SMOOTH",
"214 274 OFFCURVE",
"313 223 OFFCURVE",
"434 223 CURVE SMOOTH",
"559 223 OFFCURVE",
"666 280 OFFCURVE",
"741 383 CURVE",
"749 383 LINE",
"647 -70 LINE SMOOTH",
"610 -237 OFFCURVE",
"541 -322 OFFCURVE",
"446 -322 CURVE SMOOTH",
"407 -322 OFFCURVE",
"374 -306 OFFCURVE",
"351 -280 CURVE SMOOTH",
"327 -254 OFFCURVE",
"313 -217 OFFCURVE",
"313 -174 CURVE SMOOTH",
"313 -130 OFFCURVE",
"327 -93 OFFCURVE",
"352 -67 CURVE SMOOTH",
"376 -41 OFFCURVE",
"411 -27 OFFCURVE",
"452 -27 CURVE SMOOTH",
"499 -27 OFFCURVE",
"544 -47 OFFCURVE",
"569 -80 CURVE",
"584 -60 OFFCURVE",
"591 -34 OFFCURVE",
"591 -2 CURVE SMOOTH",
"591 85 OFFCURVE",
"522 139 OFFCURVE",
"417 139 CURVE SMOOTH",
"340 139 OFFCURVE",
"270 108 OFFCURVE",
"221 57 CURVE SMOOTH",
"172 5 OFFCURVE",
"141 -65 OFFCURVE",
"141 -145 CURVE SMOOTH",
"141 -228 OFFCURVE",
"175 -298 OFFCURVE",
"233 -347 CURVE SMOOTH",
"291 -396 OFFCURVE",
"373 -424 OFFCURVE",
"473 -424 CURVE SMOOTH"
);
}
);
width = 1184;
}
);
note = G;
unicode = 0047;
},
{
glyphname = Gacute;
lastChange = "2015-07-03 17:18:39 +0000";
layers = (
{
layerId = "C17AF255-02ED-42AD-B705-02996A84AD46";
paths = (
{
closed = 1;
nodes = (
"600 -424 OFFCURVE",
"702 -378 OFFCURVE",
"783 -281 CURVE SMOOTH",
"863 -184 OFFCURVE",
"924 -36 OFFCURVE",
"968 168 CURVE SMOOTH",
"1118 856 LINE",
"876 858 LINE",
"805 557 OFFCURVE",
"693 401 OFFCURVE",
"544 401 CURVE SMOOTH",
"420 401 OFFCURVE",
"354 510 OFFCURVE",
"354 717 CURVE SMOOTH",
"354 844 OFFCURVE",
"379 968 OFFCURVE",
"423 1077 CURVE SMOOTH",
"466 1185 OFFCURVE",
"528 1280 OFFCURVE",
"598 1347 CURVE SMOOTH",
"668 1414 OFFCURVE",
"748 1454 OFFCURVE",
"829 1454 CURVE SMOOTH",
"917 1454 OFFCURVE",
"966 1408 OFFCURVE",
"966 1325 CURVE SMOOTH",
"966 1288 OFFCURVE",
"956 1250 OFFCURVE",
"940 1216 CURVE SMOOTH",
"924 1182 OFFCURVE",
"902 1153 OFFCURVE",
"878 1137 CURVE",
"909 1096 OFFCURVE",
"956 1073 OFFCURVE",
"1007 1073 CURVE SMOOTH",
"1052 1073 OFFCURVE",
"1092 1093 OFFCURVE",
"1120 1127 CURVE SMOOTH",
"1147 1161 OFFCURVE",
"1163 1209 OFFCURVE",
"1163 1268 CURVE SMOOTH",
"1163 1355 OFFCURVE",
"1127 1426 OFFCURVE",
"1062 1475 CURVE SMOOTH",
"997 1523 OFFCURVE",
"902 1550 OFFCURVE",
"786 1550 CURVE SMOOTH",
"645 1550 OFFCURVE",
"516 1511 OFFCURVE",
"405 1442 CURVE SMOOTH",
"293 1373 OFFCURVE",
"202 1274 OFFCURVE",
"138 1154 CURVE SMOOTH",
"74 1034 OFFCURVE",
"38 893 OFFCURVE",
"38 741 CURVE SMOOTH",
"38 584 OFFCURVE",
"77 454 OFFCURVE",
"146 364 CURVE SMOOTH",
"214 274 OFFCURVE",
"313 223 OFFCURVE",
"434 223 CURVE SMOOTH",
"559 223 OFFCURVE",
"666 280 OFFCURVE",
"741 383 CURVE",
"749 383 LINE",
"647 -70 LINE SMOOTH",
"610 -237 OFFCURVE",
"541 -322 OFFCURVE",
"446 -322 CURVE SMOOTH",
"407 -322 OFFCURVE",
"374 -306 OFFCURVE",
"351 -280 CURVE SMOOTH",
"327 -254 OFFCURVE",
"313 -217 OFFCURVE",
"313 -174 CURVE SMOOTH",
"313 -130 OFFCURVE",
"327 -93 OFFCURVE",
"352 -67 CURVE SMOOTH",
"376 -41 OFFCURVE",
"411 -27 OFFCURVE",
"452 -27 CURVE SMOOTH",
"499 -27 OFFCURVE",
"544 -47 OFFCURVE",
"569 -80 CURVE",
"584 -60 OFFCURVE",
"591 -34 OFFCURVE",
"591 -2 CURVE SMOOTH",
"591 85 OFFCURVE",
"522 139 OFFCURVE",
"417 139 CURVE SMOOTH",
"340 139 OFFCURVE",
"270 108 OFFCURVE",
"221 57 CURVE SMOOTH",
"172 5 OFFCURVE",
"141 -65 OFFCURVE",
"141 -145 CURVE SMOOTH",
"141 -228 OFFCURVE",
"175 -298 OFFCURVE",
"233 -347 CURVE SMOOTH",
"291 -396 OFFCURVE",
"373 -424 OFFCURVE",
"473 -424 CURVE SMOOTH"
);
},
{
closed = 1;
nodes = (
"919 1661 LINE",
"1167 2048 LINE",
"952 2048 LINE",
"765 1661 LINE"
);
}
);
width = 1184;
}
);
note = Gacute;
unicode = 01F4;
},
{
glyphname = Gbreve;
lastChange = "2015-07-03 17:18:38 +0000";
layers = (
{
layerId = "C17AF255-02ED-42AD-B705-02996A84AD46";
paths = (
{
closed = 1;
nodes = (
"600 -424 OFFCURVE",
"702 -378 OFFCURVE",
"783 -281 CURVE SMOOTH",
"863 -184 OFFCURVE",
"924 -36 OFFCURVE",
"968 168 CURVE SMOOTH",
"1118 856 LINE",
"876 858 LINE",
"805 557 OFFCURVE",
"693 401 OFFCURVE",
"544 401 CURVE SMOOTH",
"420 401 OFFCURVE",
"354 510 OFFCURVE",
"354 717 CURVE SMOOTH",
"354 844 OFFCURVE",
"379 968 OFFCURVE",
"423 1077 CURVE SMOOTH",
"466 1185 OFFCURVE",
"528 1280 OFFCURVE",
"598 1347 CURVE SMOOTH",
"668 1414 OFFCURVE",
"748 1454 OFFCURVE",
"829 1454 CURVE SMOOTH",
"917 1454 OFFCURVE",
"966 1408 OFFCURVE",
"966 1325 CURVE SMOOTH",
"966 1288 OFFCURVE",
"956 1250 OFFCURVE",
"940 1216 CURVE SMOOTH",
"924 1182 OFFCURVE",
"902 1153 OFFCURVE",
"878 1137 CURVE",
"909 1096 OFFCURVE",
"956 1073 OFFCURVE",
"1007 1073 CURVE SMOOTH",
"1052 1073 OFFCURVE",
"1092 1093 OFFCURVE",
"1120 1127 CURVE SMOOTH",
"1147 1161 OFFCURVE",
"1163 1209 OFFCURVE",
"1163 1268 CURVE SMOOTH",
"1163 1355 OFFCURVE",
"1127 1426 OFFCURVE",
"1062 1475 CURVE SMOOTH",
"997 1523 OFFCURVE",
"902 1550 OFFCURVE",
"786 1550 CURVE SMOOTH",
"645 1550 OFFCURVE",
"516 1511 OFFCURVE",
"405 1442 CURVE SMOOTH",
"293 1373 OFFCURVE",
"202 1274 OFFCURVE",
"138 1154 CURVE SMOOTH",
"74 1034 OFFCURVE",
"38 893 OFFCURVE",
"38 741 CURVE SMOOTH",
"38 584 OFFCURVE",
"77 454 OFFCURVE",
"146 364 CURVE SMOOTH",
"214 274 OFFCURVE",
"313 223 OFFCURVE",
"434 223 CURVE SMOOTH",
"559 223 OFFCURVE",
"666 280 OFFCURVE",
"741 383 CURVE",
"749 383 LINE",
"647 -70 LINE SMOOTH",
"610 -237 OFFCURVE",
"541 -322 OFFCURVE",
"446 -322 CURVE SMOOTH",
"407 -322 OFFCURVE",
"374 -306 OFFCURVE",
"351 -280 CURVE SMOOTH",
"327 -254 OFFCURVE",
"313 -217 OFFCURVE",
"313 -174 CURVE SMOOTH",
"313 -130 OFFCURVE",
"327 -93 OFFCURVE",
"352 -67 CURVE SMOOTH",
"376 -41 OFFCURVE",
"411 -27 OFFCURVE",
"452 -27 CURVE SMOOTH",
"499 -27 OFFCURVE",
"544 -47 OFFCURVE",
"569 -80 CURVE",
"584 -60 OFFCURVE",
"591 -34 OFFCURVE",
"591 -2 CURVE SMOOTH",
"591 85 OFFCURVE",
"522 139 OFFCURVE",
"417 139 CURVE SMOOTH",
"340 139 OFFCURVE",
"270 108 OFFCURVE",
"221 57 CURVE SMOOTH",
"172 5 OFFCURVE",
"141 -65 OFFCURVE",
"141 -145 CURVE SMOOTH",
"141 -228 OFFCURVE",
"175 -298 OFFCURVE",
"233 -347 CURVE SMOOTH",
"291 -396 OFFCURVE",
"373 -424 OFFCURVE",
"473 -424 CURVE SMOOTH"
);
},
{
closed = 1;
nodes = (
"997 1670 OFFCURVE",
"1099 1700 OFFCURVE",
"1176 1752 CURVE SMOOTH",
"1253 1803 OFFCURVE",
"1306 1873 OFFCURVE",
"1318 1953 CURVE",
"1142 1953 LINE",
"1135 1906 OFFCURVE",
"1108 1864 OFFCURVE",
"1068 1833 CURVE SMOOTH",
"1027 1802 OFFCURVE",
"974 1783 OFFCURVE",
"918 1783 CURVE SMOOTH",
"815 1783 OFFCURVE",
"757 1844 OFFCURVE",
"757 1953 CURVE",
"574 1953 LINE",
"574 1766 OFFCURVE",
"682 1670 OFFCURVE",
"886 1670 CURVE SMOOTH"
);
}
);
width = 1184;
}
);
note = Gbreve;
unicode = 011E;
},
{
glyphname = Gcaron;
lastChange = "2015-07-03 17:18:41 +0000";
layers = (
{
layerId = "C17AF255-02ED-42AD-B705-02996A84AD46";
paths = (
{
closed = 1;
nodes = (
"600 -424 OFFCURVE",
"702 -378 OFFCURVE",
"783 -281 CURVE SMOOTH",
"863 -184 OFFCURVE",
"924 -36 OFFCURVE",
"968 168 CURVE SMOOTH",
"1118 856 LINE",
"876 858 LINE",
"805 557 OFFCURVE",
"693 401 OFFCURVE",
"544 401 CURVE SMOOTH",
"420 401 OFFCURVE",
"354 510 OFFCURVE",
"354 717 CURVE SMOOTH",
"354 844 OFFCURVE",
"379 968 OFFCURVE",
"423 1077 CURVE SMOOTH",
"466 1185 OFFCURVE",
"528 1280 OFFCURVE",
"598 1347 CURVE SMOOTH",
"668 1414 OFFCURVE",
"748 1454 OFFCURVE",
"829 1454 CURVE SMOOTH",
"917 1454 OFFCURVE",
"966 1408 OFFCURVE",
"966 1325 CURVE SMOOTH",
"966 1288 OFFCURVE",
"956 1250 OFFCURVE",
"940 1216 CURVE SMOOTH",
"924 1182 OFFCURVE",
"902 1153 OFFCURVE",
"878 1137 CURVE",
"909 1096 OFFCURVE",
"956 1073 OFFCURVE",
"1007 1073 CURVE SMOOTH",
"1052 1073 OFFCURVE",
"1092 1093 OFFCURVE",
"1120 1127 CURVE SMOOTH",
"1147 1161 OFFCURVE",
"1163 1209 OFFCURVE",
"1163 1268 CURVE SMOOTH",
"1163 1355 OFFCURVE",
"1127 1426 OFFCURVE",
"1062 1475 CURVE SMOOTH",
"997 1523 OFFCURVE",
"902 1550 OFFCURVE",
"786 1550 CURVE SMOOTH",
"645 1550 OFFCURVE",
"516 1511 OFFCURVE",
"405 1442 CURVE SMOOTH",
"293 1373 OFFCURVE",
"202 1274 OFFCURVE",
"138 1154 CURVE SMOOTH",
"74 1034 OFFCURVE",
"38 893 OFFCURVE",
"38 741 CURVE SMOOTH",
"38 584 OFFCURVE",
"77 454 OFFCURVE",
"146 364 CURVE SMOOTH",
"214 274 OFFCURVE",
"313 223 OFFCURVE",
"434 223 CURVE SMOOTH",
"559 223 OFFCURVE",
"666 280 OFFCURVE",
"741 383 CURVE",
"749 383 LINE",
"647 -70 LINE SMOOTH",
"610 -237 OFFCURVE",
"541 -322 OFFCURVE",
"446 -322 CURVE SMOOTH",
"407 -322 OFFCURVE",
"374 -306 OFFCURVE",
"351 -280 CURVE SMOOTH",
"327 -254 OFFCURVE",
"313 -217 OFFCURVE",
"313 -174 CURVE SMOOTH",
"313 -130 OFFCURVE",
"327 -93 OFFCURVE",
"352 -67 CURVE SMOOTH",
"376 -41 OFFCURVE",
"411 -27 OFFCURVE",
"452 -27 CURVE SMOOTH",
"499 -27 OFFCURVE",
"544 -47 OFFCURVE",
"569 -80 CURVE",
"584 -60 OFFCURVE",
"591 -34 OFFCURVE",
"591 -2 CURVE SMOOTH",
"591 85 OFFCURVE",
"522 139 OFFCURVE",
"417 139 CURVE SMOOTH",
"340 139 OFFCURVE",
"270 108 OFFCURVE",
"221 57 CURVE SMOOTH",
"172 5 OFFCURVE",
"141 -65 OFFCURVE",
"141 -145 CURVE SMOOTH",
"141 -228 OFFCURVE",
"175 -298 OFFCURVE",
"233 -347 CURVE SMOOTH",
"291 -396 OFFCURVE",
"373 -424 OFFCURVE",
"473 -424 CURVE SMOOTH"
);
},
{
closed = 1;
nodes = (
"889 1661 LINE",
"1323 2048 LINE",
"1233 2048 LINE",
"911 1884 LINE",
"788 2048 LINE",
"723 2048 LINE",
"846 1661 LINE"
);
}
);
width = 1184;
}
);
note = Gcaron;
unicode = 01E6;
},
{
glyphname = Gcircumflex;
lastChange = "2015-07-03 17:18:39 +0000";
layers = (
{
layerId = "C17AF255-02ED-42AD-B705-02996A84AD46";
paths = (
{
closed = 1;
nodes = (
"600 -424 OFFCURVE",
"702 -378 OFFCURVE",
"783 -281 CURVE SMOOTH",
"863 -184 OFFCURVE",
"924 -36 OFFCURVE",
"968 168 CURVE SMOOTH",
"1118 856 LINE",
"876 858 LINE",
"805 557 OFFCURVE",
"693 401 OFFCURVE",
"544 401 CURVE SMOOTH",
"420 401 OFFCURVE",
"354 510 OFFCURVE",
"354 717 CURVE SMOOTH",
"354 844 OFFCURVE",
"379 968 OFFCURVE",
"423 1077 CURVE SMOOTH",
"466 1185 OFFCURVE",
"528 1280 OFFCURVE",
"598 1347 CURVE SMOOTH",
"668 1414 OFFCURVE",
"748 1454 OFFCURVE",
"829 1454 CURVE SMOOTH",
"917 1454 OFFCURVE",
"966 1408 OFFCURVE",
"966 1325 CURVE SMOOTH",
"966 1288 OFFCURVE",
"956 1250 OFFCURVE",
"940 1216 CURVE SMOOTH",
"924 1182 OFFCURVE",
"902 1153 OFFCURVE",
"878 1137 CURVE",
"909 1096 OFFCURVE",
"956 1073 OFFCURVE",
"1007 1073 CURVE SMOOTH",
"1052 1073 OFFCURVE",
"1092 1093 OFFCURVE",
"1120 1127 CURVE SMOOTH",
"1147 1161 OFFCURVE",
"1163 1209 OFFCURVE",
"1163 1268 CURVE SMOOTH",
"1163 1355 OFFCURVE",
"1127 1426 OFFCURVE",
"1062 1475 CURVE SMOOTH",
"997 1523 OFFCURVE",
"902 1550 OFFCURVE",
"786 1550 CURVE SMOOTH",
"645 1550 OFFCURVE",
"516 1511 OFFCURVE",
"405 1442 CURVE SMOOTH",
"293 1373 OFFCURVE",
"202 1274 OFFCURVE",
"138 1154 CURVE SMOOTH",
"74 1034 OFFCURVE",
"38 893 OFFCURVE",
"38 741 CURVE SMOOTH",
"38 584 OFFCURVE",
"77 454 OFFCURVE",
"146 364 CURVE SMOOTH",
"214 274 OFFCURVE",
"313 223 OFFCURVE",
"434 223 CURVE SMOOTH",
"559 223 OFFCURVE",
"666 280 OFFCURVE",
"741 383 CURVE",
"749 383 LINE",
"647 -70 LINE SMOOTH",
"610 -237 OFFCURVE",
"541 -322 OFFCURVE",
"446 -322 CURVE SMOOTH",
"407 -322 OFFCURVE",
"374 -306 OFFCURVE",
"351 -280 CURVE SMOOTH",
"327 -254 OFFCURVE",
"313 -217 OFFCURVE",
"313 -174 CURVE SMOOTH",
"313 -130 OFFCURVE",
"327 -93 OFFCURVE",
"352 -67 CURVE SMOOTH",
"376 -41 OFFCURVE",
"411 -27 OFFCURVE",
"452 -27 CURVE SMOOTH",
"499 -27 OFFCURVE",
"544 -47 OFFCURVE",
"569 -80 CURVE",
"584 -60 OFFCURVE",
"591 -34 OFFCURVE",
"591 -2 CURVE SMOOTH",
"591 85 OFFCURVE",
"522 139 OFFCURVE",
"417 139 CURVE SMOOTH",
"340 139 OFFCURVE",
"270 108 OFFCURVE",
"221 57 CURVE SMOOTH",
"172 5 OFFCURVE",
"141 -65 OFFCURVE",
"141 -145 CURVE SMOOTH",
"141 -228 OFFCURVE",
"175 -298 OFFCURVE",
"233 -347 CURVE SMOOTH",
"291 -396 OFFCURVE",
"373 -424 OFFCURVE",
"473 -424 CURVE SMOOTH"
);
},
{
closed = 1;
nodes = (
"601 1661 LINE",
"923 1825 LINE",
"1046 1661 LINE",
"1111 1661 LINE",
"988 2048 LINE",
"945 2048 LINE",
"511 1661 LINE"
);
}
);
width = 1184;
}
);
note = Gcircumflex;
unicode = 011C;
},
{
glyphname = Gcommaaccent;
lastChange = "2015-07-03 17:18:40 +0000";
layers = (
{
layerId = "C17AF255-02ED-42AD-B705-02996A84AD46";
paths = (
{
closed = 1;
nodes = (
"518 -12 OFFCURVE",
"602 32 OFFCURVE",
"686 139 CURVE",
"694 139 LINE",
"665 0 LINE",
"930 0 LINE",
"1098 758 LINE",
"856 758 LINE",
"828 593 OFFCURVE",
"776 445 OFFCURVE",
"715 338 CURVE SMOOTH",
"654 231 OFFCURVE",
"582 166 OFFCURVE",
"514 166 CURVE SMOOTH",
"463 166 OFFCURVE",
"423 201 OFFCURVE",
"395 265 CURVE SMOOTH",
"367 329 OFFCURVE",
"352 422 OFFCURVE",
"352 537 CURVE SMOOTH",
"352 680 OFFCURVE",
"378 830 OFFCURVE",
"419 966 CURVE SMOOTH",
"460 1102 OFFCURVE",
"518 1224 OFFCURVE",
"582 1312 CURVE SMOOTH",
"645 1400 OFFCURVE",
"715 1454 OFFCURVE",
"782 1454 CURVE SMOOTH",
"845 1454 OFFCURVE",
"883 1406 OFFCURVE",
"883 1327 CURVE SMOOTH",
"883 1290 OFFCURVE",
"875 1252 OFFCURVE",
"860 1220 CURVE SMOOTH",
"844 1187 OFFCURVE",
"823 1158 OFFCURVE",
"799 1141 CURVE",
"830 1100 OFFCURVE",
"872 1077 OFFCURVE",
"924 1077 CURVE SMOOTH",
"969 1077 OFFCURVE",
"1009 1097 OFFCURVE",
"1036 1131 CURVE SMOOTH",
"1063 1165 OFFCURVE",
"1079 1213 OFFCURVE",
"1079 1270 CURVE SMOOTH",
"1079 1353 OFFCURVE",
"1046 1423 OFFCURVE",
"988 1472 CURVE SMOOTH",
"930 1521 OFFCURVE",
"847 1550 OFFCURVE",
"751 1550 CURVE SMOOTH",
"620 1550 OFFCURVE",
"494 1498 OFFCURVE",
"385 1407 CURVE SMOOTH",
"276 1316 OFFCURVE",
"183 1189 OFFCURVE",
"117 1038 CURVE SMOOTH",
"51 887 OFFCURVE",
"12 715 OFFCURVE",
"12 535 CURVE SMOOTH",
"12 363 OFFCURVE",
"48 225 OFFCURVE",
"115 132 CURVE SMOOTH",
"182 39 OFFCURVE",
"279 -12 OFFCURVE",
"403 -12 CURVE SMOOTH"
);
},
{
closed = 1;
nodes = (
"508 -477 OFFCURVE",
"553 -433 OFFCURVE",
"585 -386 CURVE SMOOTH",
"616 -339 OFFCURVE",
"634 -289 OFFCURVE",
"634 -244 CURVE SMOOTH",
"634 -173 OFFCURVE",
"591 -131 OFFCURVE",
"526 -131 CURVE SMOOTH",
"458 -131 OFFCURVE",
"411 -171 OFFCURVE",
"411 -227 CURVE SMOOTH",
"411 -260 OFFCURVE",
"429 -281 OFFCURVE",
"448 -300 CURVE SMOOTH",
"467 -320 OFFCURVE",
"485 -338 OFFCURVE",
"485 -362 CURVE SMOOTH",
"485 -375 OFFCURVE",
"480 -389 OFFCURVE",
"469 -404 CURVE SMOOTH",
"458 -419 OFFCURVE",
"440 -441 OFFCURVE",
"415 -469 CURVE",
"456 -510 LINE"
);
}
);
width = 1184;
}
);
note = Gcommaaccent;
unicode = 0122;
},
{
glyphname = Gdotaccent;
lastChange = "2015-07-03 17:18:39 +0000";
layers = (
{
layerId = "C17AF255-02ED-42AD-B705-02996A84AD46";
paths = (
{
closed = 1;
nodes = (
"600 -424 OFFCURVE",
"702 -378 OFFCURVE",
"783 -281 CURVE SMOOTH",
"863 -184 OFFCURVE",
"924 -36 OFFCURVE",
"968 168 CURVE SMOOTH",
"1118 856 LINE",
"876 858 LINE",
"805 557 OFFCURVE",
"693 401 OFFCURVE",
"544 401 CURVE SMOOTH",
"420 401 OFFCURVE",
"354 510 OFFCURVE",
"354 717 CURVE SMOOTH",
"354 844 OFFCURVE",
"379 968 OFFCURVE",
"423 1077 CURVE SMOOTH",
"466 1185 OFFCURVE",
"528 1280 OFFCURVE",
"598 1347 CURVE SMOOTH",
"668 1414 OFFCURVE",
"748 1454 OFFCURVE",
"829 1454 CURVE SMOOTH",
"917 1454 OFFCURVE",
"966 1408 OFFCURVE",
"966 1325 CURVE SMOOTH",
"966 1288 OFFCURVE",
"956 1250 OFFCURVE",
"940 1216 CURVE SMOOTH",
"924 1182 OFFCURVE",
"902 1153 OFFCURVE",
"878 1137 CURVE",
"909 1096 OFFCURVE",
"956 1073 OFFCURVE",
"1007 1073 CURVE SMOOTH",
"1052 1073 OFFCURVE",
"1092 1093 OFFCURVE",
"1120 1127 CURVE SMOOTH",
"1147 1161 OFFCURVE",
"1163 1209 OFFCURVE",
"1163 1268 CURVE SMOOTH",
"1163 1355 OFFCURVE",
"1127 1426 OFFCURVE",
"1062 1475 CURVE SMOOTH",
"997 1523 OFFCURVE",
"902 1550 OFFCURVE",
"786 1550 CURVE SMOOTH",
"645 1550 OFFCURVE",
"516 1511 OFFCURVE",
"405 1442 CURVE SMOOTH",
"293 1373 OFFCURVE",
"202 1274 OFFCURVE",
"138 1154 CURVE SMOOTH",
"74 1034 OFFCURVE",
"38 893 OFFCURVE",
"38 741 CURVE SMOOTH",
"38 584 OFFCURVE",
"77 454 OFFCURVE",
"146 364 CURVE SMOOTH",
"214 274 OFFCURVE",
"313 223 OFFCURVE",
"434 223 CURVE SMOOTH",
"559 223 OFFCURVE",
"666 280 OFFCURVE",
"741 383 CURVE",
"749 383 LINE",
"647 -70 LINE SMOOTH",
"610 -237 OFFCURVE",
"541 -322 OFFCURVE",
"446 -322 CURVE SMOOTH",
"407 -322 OFFCURVE",
"374 -306 OFFCURVE",
"351 -280 CURVE SMOOTH",
"327 -254 OFFCURVE",
"313 -217 OFFCURVE",
"313 -174 CURVE SMOOTH",
"313 -130 OFFCURVE",
"327 -93 OFFCURVE",
"352 -67 CURVE SMOOTH",
"376 -41 OFFCURVE",
"411 -27 OFFCURVE",
"452 -27 CURVE SMOOTH",
"499 -27 OFFCURVE",
"544 -47 OFFCURVE",
"569 -80 CURVE",
"584 -60 OFFCURVE",
"591 -34 OFFCURVE",
"591 -2 CURVE SMOOTH",
"591 85 OFFCURVE",
"522 139 OFFCURVE",
"417 139 CURVE SMOOTH",
"340 139 OFFCURVE",
"270 108 OFFCURVE",
"221 57 CURVE SMOOTH",
"172 5 OFFCURVE",
"141 -65 OFFCURVE",
"141 -145 CURVE SMOOTH",
"141 -228 OFFCURVE",
"175 -298 OFFCURVE",
"233 -347 CURVE SMOOTH",
"291 -396 OFFCURVE",
"373 -424 OFFCURVE",
"473 -424 CURVE SMOOTH"
);
},
{
closed = 1;
nodes = (
"897 1683 OFFCURVE",
"938 1701 OFFCURVE",
"968 1730 CURVE SMOOTH",
"998 1758 OFFCURVE",
"1016 1799 OFFCURVE",
"1016 1844 CURVE SMOOTH",
"1016 1889 OFFCURVE",
"998 1931 OFFCURVE",
"968 1960 CURVE SMOOTH",
"938 1989 OFFCURVE",
"897 2008 OFFCURVE",
"852 2008 CURVE SMOOTH",
"807 2008 OFFCURVE",
"766 1989 OFFCURVE",
"737 1960 CURVE SMOOTH",
"708 1931 OFFCURVE",
"690 1889 OFFCURVE",
"690 1844 CURVE SMOOTH",
"690 1799 OFFCURVE",
"708 1758 OFFCURVE",
"737 1730 CURVE SMOOTH",
"766 1701 OFFCURVE",
"807 1683 OFFCURVE",
"852 1683 CURVE SMOOTH"
);
}
);
width = 1184;
}
);
note = Gdotaccent;
unicode = 0120;
},
{
glyphname = Gmacron;
lastChange = "2015-07-03 17:18:38 +0000";
layers = (
{
layerId = "C17AF255-02ED-42AD-B705-02996A84AD46";
paths = (
{
closed = 1;
nodes = (
"600 -424 OFFCURVE",
"702 -378 OFFCURVE",
"783 -281 CURVE SMOOTH",
"863 -184 OFFCURVE",
"924 -36 OFFCURVE",
"968 168 CURVE SMOOTH",
"1118 856 LINE",
"876 858 LINE",
"805 557 OFFCURVE",
"693 401 OFFCURVE",
"544 401 CURVE SMOOTH",
"420 401 OFFCURVE",
"354 510 OFFCURVE",
"354 717 CURVE SMOOTH",
"354 844 OFFCURVE",
"379 968 OFFCURVE",
"423 1077 CURVE SMOOTH",
"466 1185 OFFCURVE",
"528 1280 OFFCURVE",
"598 1347 CURVE SMOOTH",
"668 1414 OFFCURVE",
"748 1454 OFFCURVE",
"829 1454 CURVE SMOOTH",
"917 1454 OFFCURVE",
"966 1408 OFFCURVE",
"966 1325 CURVE SMOOTH",
"966 1288 OFFCURVE",
"956 1250 OFFCURVE",
"940 1216 CURVE SMOOTH",
"924 1182 OFFCURVE",
"902 1153 OFFCURVE",
"878 1137 CURVE",
"909 1096 OFFCURVE",
"956 1073 OFFCURVE",
"1007 1073 CURVE SMOOTH",
"1052 1073 OFFCURVE",
"1092 1093 OFFCURVE",
"1120 1127 CURVE SMOOTH",
"1147 1161 OFFCURVE",
"1163 1209 OFFCURVE",
"1163 1268 CURVE SMOOTH",
"1163 1355 OFFCURVE",
"1127 1426 OFFCURVE",
"1062 1475 CURVE SMOOTH",
"997 1523 OFFCURVE",
"902 1550 OFFCURVE",
"786 1550 CURVE SMOOTH",
"645 1550 OFFCURVE",
"516 1511 OFFCURVE",
"405 1442 CURVE SMOOTH",
"293 1373 OFFCURVE",
"202 1274 OFFCURVE",
"138 1154 CURVE SMOOTH",
"74 1034 OFFCURVE",
"38 893 OFFCURVE",
"38 741 CURVE SMOOTH",
"38 584 OFFCURVE",
"77 454 OFFCURVE",
"146 364 CURVE SMOOTH",
"214 274 OFFCURVE",
"313 223 OFFCURVE",
"434 223 CURVE SMOOTH",
"559 223 OFFCURVE",
"666 280 OFFCURVE",
"741 383 CURVE",
"749 383 LINE",
"647 -70 LINE SMOOTH",
"610 -237 OFFCURVE",
"541 -322 OFFCURVE",
"446 -322 CURVE SMOOTH",
"407 -322 OFFCURVE",
"374 -306 OFFCURVE",
"351 -280 CURVE SMOOTH",
"327 -254 OFFCURVE",
"313 -217 OFFCURVE",
"313 -174 CURVE SMOOTH",
"313 -130 OFFCURVE",
"327 -93 OFFCURVE",
"352 -67 CURVE SMOOTH",
"376 -41 OFFCURVE",
"411 -27 OFFCURVE",
"452 -27 CURVE SMOOTH",
"499 -27 OFFCURVE",
"544 -47 OFFCURVE",
"569 -80 CURVE",
"584 -60 OFFCURVE",
"591 -34 OFFCURVE",
"591 -2 CURVE SMOOTH",
"591 85 OFFCURVE",
"522 139 OFFCURVE",
"417 139 CURVE SMOOTH",
"340 139 OFFCURVE",
"270 108 OFFCURVE",
"221 57 CURVE SMOOTH",
"172 5 OFFCURVE",
"141 -65 OFFCURVE",
"141 -145 CURVE SMOOTH",
"141 -228 OFFCURVE",
"175 -298 OFFCURVE",
"233 -347 CURVE SMOOTH",
"291 -396 OFFCURVE",
"373 -424 OFFCURVE",
"473 -424 CURVE SMOOTH"
);
},
{
closed = 1;
nodes = (
"1136 1738 LINE",
"1166 1890 LINE",
"511 1890 LINE",
"478 1738 LINE"
);
}
);
width = 1184;
}
);
note = Gmacron;
unicode = 1E20;
},
{
glyphname = H;
lastChange = "2015-07-03 17:18:38 +0000";
layers = (
{
layerId = "C17AF255-02ED-42AD-B705-02996A84AD46";
paths = (
{
closed = 1;
nodes = (
"500 0 LINE",
"664 770 LINE",
"965 770 LINE",
"801 0 LINE",
"1096 0 LINE",
"1421 1532 LINE",
"1126 1532 LINE",
"995 922 LINE",
"694 922 LINE",
"825 1532 LINE",
"798 1535 OFFCURVE",
"774 1536 OFFCURVE",
"743 1536 CURVE SMOOTH",
"628 1536 OFFCURVE",
"512 1507 OFFCURVE",
"405 1459 CURVE SMOOTH",
"298 1410 OFFCURVE",
"203 1342 OFFCURVE",
"135 1263 CURVE SMOOTH",
"67 1184 OFFCURVE",
"25 1095 OFFCURVE",
"25 1004 CURVE SMOOTH",
"25 929 OFFCURVE",
"44 880 OFFCURVE",
"81 849 CURVE SMOOTH",
"118 818 OFFCURVE",
"173 805 OFFCURVE",
"244 805 CURVE",
"244 809 OFFCURVE",
"243 814 OFFCURVE",
"240 819 CURVE SMOOTH",
"237 824 OFFCURVE",
"233 832 OFFCURVE",
"230 842 CURVE",
"222 861 OFFCURVE",
"215 892 OFFCURVE",
"215 944 CURVE SMOOTH",
"215 1164 OFFCURVE",
"321 1317 OFFCURVE",
"502 1393 CURVE",
"205 0 LINE"
);
}
);
width = 1362;
}
);
note = H;
unicode = 0048;
},
{
glyphname = Hbar;
lastChange = "2015-07-03 17:18:41 +0000";
layers = (
{
layerId = "C17AF255-02ED-42AD-B705-02996A84AD46";
paths = (
{
closed = 1;
nodes = (
"500 0 LINE",
"664 770 LINE",
"965 770 LINE",
"801 0 LINE",
"1096 0 LINE",
"1320 1057 LINE",
"1490 1057 LINE",
"1519 1160 LINE",
"1342 1160 LINE",
"1421 1532 LINE",
"1126 1532 LINE",
"1046 1160 LINE",
"745 1160 LINE",
"825 1532 LINE",
"798 1535 OFFCURVE",
"774 1536 OFFCURVE",
"743 1536 CURVE SMOOTH",
"628 1536 OFFCURVE",
"512 1507 OFFCURVE",
"405 1459 CURVE SMOOTH",
"298 1410 OFFCURVE",
"203 1342 OFFCURVE",
"135 1263 CURVE SMOOTH",
"67 1184 OFFCURVE",
"25 1095 OFFCURVE",
"25 1004 CURVE SMOOTH",
"25 929 OFFCURVE",
"44 880 OFFCURVE",
"81 849 CURVE SMOOTH",
"118 818 OFFCURVE",
"173 805 OFFCURVE",
"244 805 CURVE",
"244 809 OFFCURVE",
"243 814 OFFCURVE",
"240 819 CURVE SMOOTH",
"237 824 OFFCURVE",
"233 832 OFFCURVE",
"230 842 CURVE",
"222 861 OFFCURVE",
"215 892 OFFCURVE",
"215 944 CURVE SMOOTH",
"215 1164 OFFCURVE",
"321 1317 OFFCURVE",
"502 1393 CURVE",
"452 1160 LINE",
"363 1160 LINE",
"334 1057 LINE",
"430 1057 LINE",
"205 0 LINE"
);
},
{
closed = 1;
nodes = (
"723 1057 LINE",
"1024 1057 LINE",
"995 922 LINE",
"694 922 LINE"
);
}
);
width = 1362;
}
);
note = Hbar;
unicode = 0126;
},
{
glyphname = Hbrevebelow;
lastChange = "2015-07-03 17:18:39 +0000";
layers = (
{
layerId = "C17AF255-02ED-42AD-B705-02996A84AD46";
paths = (
{
closed = 1;
nodes = (
"500 0 LINE",
"664 770 LINE",
"965 770 LINE",
"801 0 LINE",
"1096 0 LINE",
"1421 1532 LINE",
"1126 1532 LINE",
"995 922 LINE",
"694 922 LINE",
"825 1532 LINE",
"798 1535 OFFCURVE",
"774 1536 OFFCURVE",
"743 1536 CURVE SMOOTH",
"628 1536 OFFCURVE",
"512 1507 OFFCURVE",
"405 1459 CURVE SMOOTH",
"298 1410 OFFCURVE",
"203 1342 OFFCURVE",
"135 1263 CURVE SMOOTH",
"67 1184 OFFCURVE",
"25 1095 OFFCURVE",
"25 1004 CURVE SMOOTH",
"25 929 OFFCURVE",
"44 880 OFFCURVE",
"81 849 CURVE SMOOTH",
"118 818 OFFCURVE",
"173 805 OFFCURVE",
"244 805 CURVE",
"244 809 OFFCURVE",
"243 814 OFFCURVE",
"240 819 CURVE SMOOTH",
"237 824 OFFCURVE",
"233 832 OFFCURVE",
"230 842 CURVE",
"222 861 OFFCURVE",
"215 892 OFFCURVE",
"215 944 CURVE SMOOTH",
"215 1164 OFFCURVE",
"321 1317 OFFCURVE",
"502 1393 CURVE",
"205 0 LINE"
);
},
{
closed = 1;
nodes = (
"667 -415 OFFCURVE",
"763 -386 OFFCURVE",
"836 -338 CURVE SMOOTH",
"908 -290 OFFCURVE",
"958 -224 OFFCURVE",
"969 -148 CURVE",
"803 -148 LINE",
"796 -192 OFFCURVE",
"772 -233 OFFCURVE",
"734 -261 CURVE SMOOTH",
"696 -290 OFFCURVE",
"646 -308 OFFCURVE",
"593 -308 CURVE SMOOTH",
"497 -308 OFFCURVE",
"441 -252 OFFCURVE",
"441 -148 CURVE",
"269 -148 LINE",
"269 -323 OFFCURVE",
"371 -415 OFFCURVE",
"563 -415 CURVE SMOOTH"
);
}
);
width = 1362;
}
);
note = Hbrevebelow;
unicode = 1E2A;
},
{
glyphname = Hcircumflex;
lastChange = "2015-07-03 17:18:40 +0000";
layers = (
{
layerId = "C17AF255-02ED-42AD-B705-02996A84AD46";
paths = (
{
closed = 1;
nodes = (
"500 0 LINE",
"664 770 LINE",
"965 770 LINE",
"801 0 LINE",
"1096 0 LINE",
"1421 1532 LINE",
"1126 1532 LINE",
"995 922 LINE",
"694 922 LINE",
"825 1532 LINE",
"798 1535 OFFCURVE",
"774 1536 OFFCURVE",
"743 1536 CURVE SMOOTH",
"628 1536 OFFCURVE",
"512 1507 OFFCURVE",
"405 1459 CURVE SMOOTH",
"298 1410 OFFCURVE",
"203 1342 OFFCURVE",
"135 1263 CURVE SMOOTH",
"67 1184 OFFCURVE",
"25 1095 OFFCURVE",
"25 1004 CURVE SMOOTH",
"25 929 OFFCURVE",
"44 880 OFFCURVE",
"81 849 CURVE SMOOTH",
"118 818 OFFCURVE",
"173 805 OFFCURVE",
"244 805 CURVE",
"244 809 OFFCURVE",
"243 814 OFFCURVE",
"240 819 CURVE SMOOTH",
"237 824 OFFCURVE",
"233 832 OFFCURVE",
"230 842 CURVE",
"222 861 OFFCURVE",
"215 892 OFFCURVE",
"215 944 CURVE SMOOTH",
"215 1164 OFFCURVE",
"321 1317 OFFCURVE",
"502 1393 CURVE",
"205 0 LINE"
);
},
{
closed = 1;
nodes = (
"781 1661 LINE",
"1103 1825 LINE",
"1226 1661 LINE",
"1291 1661 LINE",
"1168 2048 LINE",
"1125 2048 LINE",
"691 1661 LINE"
);
}
);
width = 1362;
}
);
note = Hcircumflex;
unicode = 0124;
},
{
glyphname = Hdotbelow;
lastChange = "2015-07-03 17:18:40 +0000";
layers = (
{
layerId = "C17AF255-02ED-42AD-B705-02996A84AD46";
paths = (
{
closed = 1;
nodes = (
"500 0 LINE",
"664 770 LINE",
"965 770 LINE",
"801 0 LINE",
"1096 0 LINE",
"1421 1532 LINE",
"1126 1532 LINE",
"995 922 LINE",
"694 922 LINE",
"825 1532 LINE",
"798 1535 OFFCURVE",
"774 1536 OFFCURVE",
"743 1536 CURVE SMOOTH",
"628 1536 OFFCURVE",
"512 1507 OFFCURVE",
"405 1459 CURVE SMOOTH",
"298 1410 OFFCURVE",
"203 1342 OFFCURVE",
"135 1263 CURVE SMOOTH",
"67 1184 OFFCURVE",
"25 1095 OFFCURVE",
"25 1004 CURVE SMOOTH",
"25 929 OFFCURVE",
"44 880 OFFCURVE",
"81 849 CURVE SMOOTH",
"118 818 OFFCURVE",
"173 805 OFFCURVE",
"244 805 CURVE",
"244 809 OFFCURVE",
"243 814 OFFCURVE",
"240 819 CURVE SMOOTH",
"237 824 OFFCURVE",
"233 832 OFFCURVE",
"230 842 CURVE",
"222 861 OFFCURVE",
"215 892 OFFCURVE",
"215 944 CURVE SMOOTH",
"215 1164 OFFCURVE",
"321 1317 OFFCURVE",
"502 1393 CURVE",
"205 0 LINE"
);
},
{
closed = 1;
nodes = (
"638 -473 OFFCURVE",
"679 -455 OFFCURVE",
"709 -426 CURVE SMOOTH",
"739 -397 OFFCURVE",
"757 -356 OFFCURVE",
"757 -311 CURVE SMOOTH",
"757 -266 OFFCURVE",
"739 -225 OFFCURVE",
"709 -195 CURVE SMOOTH",
"679 -165 OFFCURVE",
"638 -147 OFFCURVE",
"593 -147 CURVE SMOOTH",
"548 -147 OFFCURVE",
"507 -165 OFFCURVE",
"478 -195 CURVE SMOOTH",
"449 -225 OFFCURVE",
"431 -266 OFFCURVE",
"431 -311 CURVE SMOOTH",
"431 -356 OFFCURVE",
"449 -397 OFFCURVE",
"478 -426 CURVE SMOOTH",
"507 -455 OFFCURVE",
"548 -473 OFFCURVE",
"593 -473 CURVE SMOOTH"
);
}
);
width = 1362;
}
);
note = Hdotbelow;
unicode = 1E24;
},
{
glyphname = I;
lastChange = "2015-07-03 17:18:39 +0000";
layers = (
{
layerId = "C17AF255-02ED-42AD-B705-02996A84AD46";
paths = (
{
closed = 1;
nodes = (
"487 0 LINE",
"813 1532 LINE",
"786 1535 OFFCURVE",
"762 1536 OFFCURVE",
"731 1536 CURVE SMOOTH",
"616 1536 OFFCURVE",
"499 1507 OFFCURVE",
"393 1459 CURVE SMOOTH",
"287 1410 OFFCURVE",
"191 1342 OFFCURVE",
"123 1263 CURVE SMOOTH",
"54 1184 OFFCURVE",
"12 1095 OFFCURVE",
"12 1004 CURVE SMOOTH",
"12 929 OFFCURVE",
"32 880 OFFCURVE",
"69 849 CURVE SMOOTH",
"105 818 OFFCURVE",
"160 805 OFFCURVE",
"231 805 CURVE",
"231 809 OFFCURVE",
"230 814 OFFCURVE",
"227 819 CURVE SMOOTH",
"224 824 OFFCURVE",
"220 832 OFFCURVE",
"217 842 CURVE",
"210 861 OFFCURVE",
"203 892 OFFCURVE",
"203 944 CURVE SMOOTH",
"203 1167 OFFCURVE",
"308 1316 OFFCURVE",
"489 1391 CURVE",
"193 0 LINE"
);
}
);
width = 768;
}
);
note = I;
unicode = 0049;
},
{
glyphname = IJ;
lastChange = "2015-07-03 17:18:41 +0000";
layers = (
{
layerId = "C17AF255-02ED-42AD-B705-02996A84AD46";
paths = (
{
closed = 1;
nodes = (
"719 -424 OFFCURVE",
"832 -369 OFFCURVE",
"913 -278 CURVE SMOOTH",
"993 -187 OFFCURVE",
"1042 -61 OFFCURVE",
"1071 82 CURVE SMOOTH",
"1378 1536 LINE",
"1071 1468 LINE",
"735 -70 LINE SMOOTH",
"714 -173 OFFCURVE",
"687 -234 OFFCURVE",
"655 -272 CURVE SMOOTH",
"623 -310 OFFCURVE",
"587 -322 OFFCURVE",
"547 -322 CURVE SMOOTH",
"502 -322 OFFCURVE",
"465 -307 OFFCURVE",
"440 -282 CURVE SMOOTH",
"415 -257 OFFCURVE",
"401 -222 OFFCURVE",
"401 -182 CURVE SMOOTH",
"401 -141 OFFCURVE",
"416 -104 OFFCURVE",
"440 -77 CURVE SMOOTH",
"464 -50 OFFCURVE",
"498 -33 OFFCURVE",
"535 -33 CURVE SMOOTH",
"570 -33 OFFCURVE",
"604 -49 OFFCURVE",
"635 -80 CURVE",
"644 -55 OFFCURVE",
"649 -32 OFFCURVE",
"649 -12 CURVE SMOOTH",
"649 57 OFFCURVE",
"596 106 OFFCURVE",
"512 119 CURVE",
"813 1532 LINE",
"786 1535 OFFCURVE",
"762 1536 OFFCURVE",
"731 1536 CURVE SMOOTH",
"616 1536 OFFCURVE",
"499 1507 OFFCURVE",
"393 1459 CURVE SMOOTH",
"287 1410 OFFCURVE",
"191 1342 OFFCURVE",
"123 1263 CURVE SMOOTH",
"54 1184 OFFCURVE",
"12 1095 OFFCURVE",
"12 1004 CURVE SMOOTH",
"12 929 OFFCURVE",
"32 880 OFFCURVE",
"69 849 CURVE SMOOTH",
"105 818 OFFCURVE",
"160 805 OFFCURVE",
"231 805 CURVE",
"231 809 OFFCURVE",
"230 814 OFFCURVE",
"227 819 CURVE SMOOTH",
"224 824 OFFCURVE",
"220 832 OFFCURVE",
"217 842 CURVE",
"210 861 OFFCURVE",
"203 892 OFFCURVE",
"203 944 CURVE SMOOTH",
"203 1167 OFFCURVE",
"308 1316 OFFCURVE",
"489 1391 CURVE",
"193 0 LINE",
"260 0 LINE",
"240 -41 OFFCURVE",
"229 -87 OFFCURVE",
"229 -143 CURVE SMOOTH",
"229 -224 OFFCURVE",
"255 -294 OFFCURVE",
"309 -344 CURVE SMOOTH",
"363 -394 OFFCURVE",
"444 -424 OFFCURVE",
"559 -424 CURVE SMOOTH"
);
}
);
width = 1358;
}
);
note = IJ;
unicode = 0132;
},
{
glyphname = Iacute;
lastChange = "2015-07-03 17:18:39 +0000";
layers = (
{
layerId = "C17AF255-02ED-42AD-B705-02996A84AD46";
paths = (
{
closed = 1;
nodes = (
"487 0 LINE",
"813 1532 LINE",
"786 1535 OFFCURVE",
"762 1536 OFFCURVE",
"731 1536 CURVE SMOOTH",
"616 1536 OFFCURVE",
"499 1507 OFFCURVE",
"393 1459 CURVE SMOOTH",
"287 1410 OFFCURVE",
"191 1342 OFFCURVE",
"123 1263 CURVE SMOOTH",
"54 1184 OFFCURVE",
"12 1095 OFFCURVE",
"12 1004 CURVE SMOOTH",
"12 929 OFFCURVE",
"32 880 OFFCURVE",
"69 849 CURVE SMOOTH",
"105 818 OFFCURVE",
"160 805 OFFCURVE",
"231 805 CURVE",
"231 809 OFFCURVE",
"230 814 OFFCURVE",
"227 819 CURVE SMOOTH",
"224 824 OFFCURVE",
"220 832 OFFCURVE",
"217 842 CURVE",
"210 861 OFFCURVE",
"203 892 OFFCURVE",
"203 944 CURVE SMOOTH",
"203 1167 OFFCURVE",
"308 1316 OFFCURVE",
"489 1391 CURVE",
"193 0 LINE"
);
},
{
closed = 1;
nodes = (
"755 1661 LINE",
"1002 2048 LINE",
"787 2048 LINE",
"601 1661 LINE"
);
}
);
width = 768;
}
);
note = Iacute;
unicode = 00CD;
},
{
glyphname = Ibreve;
lastChange = "2015-07-03 17:18:40 +0000";
layers = (
{
layerId = "C17AF255-02ED-42AD-B705-02996A84AD46";
paths = (
{
closed = 1;
nodes = (
"487 0 LINE",
"813 1532 LINE",
"786 1535 OFFCURVE",
"762 1536 OFFCURVE",
"731 1536 CURVE SMOOTH",
"616 1536 OFFCURVE",
"499 1507 OFFCURVE",
"393 1459 CURVE SMOOTH",
"287 1410 OFFCURVE",
"191 1342 OFFCURVE",
"123 1263 CURVE SMOOTH",
"54 1184 OFFCURVE",
"12 1095 OFFCURVE",
"12 1004 CURVE SMOOTH",
"12 929 OFFCURVE",
"32 880 OFFCURVE",
"69 849 CURVE SMOOTH",
"105 818 OFFCURVE",
"160 805 OFFCURVE",
"231 805 CURVE",
"231 809 OFFCURVE",
"230 814 OFFCURVE",
"227 819 CURVE SMOOTH",
"224 824 OFFCURVE",
"220 832 OFFCURVE",
"217 842 CURVE",
"210 861 OFFCURVE",
"203 892 OFFCURVE",
"203 944 CURVE SMOOTH",
"203 1167 OFFCURVE",
"308 1316 OFFCURVE",
"489 1391 CURVE",
"193 0 LINE"
);
},
{
closed = 1;
nodes = (
"778 1670 OFFCURVE",
"880 1700 OFFCURVE",
"957 1752 CURVE SMOOTH",
"1034 1803 OFFCURVE",
"1087 1873 OFFCURVE",
"1099 1953 CURVE",
"923 1953 LINE",
"916 1906 OFFCURVE",
"889 1864 OFFCURVE",
"849 1833 CURVE SMOOTH",
"808 1802 OFFCURVE",
"755 1783 OFFCURVE",
"699 1783 CURVE SMOOTH",
"596 1783 OFFCURVE",
"538 1844 OFFCURVE",
"538 1953 CURVE",
"355 1953 LINE",
"355 1766 OFFCURVE",
"463 1670 OFFCURVE",
"667 1670 CURVE SMOOTH"
);
}
);
width = 768;
}
);
note = Ibreve;
unicode = 012C;
},
{
glyphname = Icaron;
lastChange = "2015-07-03 17:18:40 +0000";
layers = (
{
layerId = "C17AF255-02ED-42AD-B705-02996A84AD46";
paths = (
{
closed = 1;
nodes = (
"487 0 LINE",
"813 1532 LINE",
"786 1535 OFFCURVE",
"762 1536 OFFCURVE",
"731 1536 CURVE SMOOTH",
"616 1536 OFFCURVE",
"499 1507 OFFCURVE",
"393 1459 CURVE SMOOTH",
"287 1410 OFFCURVE",
"191 1342 OFFCURVE",
"123 1263 CURVE SMOOTH",
"54 1184 OFFCURVE",
"12 1095 OFFCURVE",
"12 1004 CURVE SMOOTH",
"12 929 OFFCURVE",
"32 880 OFFCURVE",
"69 849 CURVE SMOOTH",
"105 818 OFFCURVE",
"160 805 OFFCURVE",
"231 805 CURVE",
"231 809 OFFCURVE",
"230 814 OFFCURVE",
"227 819 CURVE SMOOTH",
"224 824 OFFCURVE",
"220 832 OFFCURVE",
"217 842 CURVE",
"210 861 OFFCURVE",
"203 892 OFFCURVE",
"203 944 CURVE SMOOTH",
"203 1167 OFFCURVE",
"308 1316 OFFCURVE",
"489 1391 CURVE",
"193 0 LINE"
);
},
{
closed = 1;
nodes = (
"709 1661 LINE",
"1143 2048 LINE",
"1053 2048 LINE",
"731 1884 LINE",
"608 2048 LINE",
"543 2048 LINE",
"666 1661 LINE"
);
}
);
width = 768;
}
);
note = Icaron;
unicode = 01CF;
},
{
glyphname = Icircumflex;
lastChange = "2015-07-03 17:18:41 +0000";
layers = (
{
layerId = "C17AF255-02ED-42AD-B705-02996A84AD46";
paths = (
{
closed = 1;
nodes = (
"487 0 LINE",
"813 1532 LINE",
"786 1535 OFFCURVE",
"762 1536 OFFCURVE",
"731 1536 CURVE SMOOTH",
"616 1536 OFFCURVE",
"499 1507 OFFCURVE",
"393 1459 CURVE SMOOTH",
"287 1410 OFFCURVE",
"191 1342 OFFCURVE",
"123 1263 CURVE SMOOTH",
"54 1184 OFFCURVE",
"12 1095 OFFCURVE",
"12 1004 CURVE SMOOTH",
"12 929 OFFCURVE",
"32 880 OFFCURVE",
"69 849 CURVE SMOOTH",
"105 818 OFFCURVE",
"160 805 OFFCURVE",
"231 805 CURVE",
"231 809 OFFCURVE",
"230 814 OFFCURVE",
"227 819 CURVE SMOOTH",
"224 824 OFFCURVE",
"220 832 OFFCURVE",
"217 842 CURVE",
"210 861 OFFCURVE",
"203 892 OFFCURVE",
"203 944 CURVE SMOOTH",
"203 1167 OFFCURVE",
"308 1316 OFFCURVE",
"489 1391 CURVE",
"193 0 LINE"
);
},
{
closed = 1;
nodes = (
"439 1661 LINE",
"761 1825 LINE",
"884 1661 LINE",
"949 1661 LINE",
"826 2048 LINE",
"783 2048 LINE",
"349 1661 LINE"
);
}
);
width = 768;
}
);
note = Icircumflex;
unicode = 00CE;
},
{
glyphname = Idblgrave;
lastChange = "2015-07-03 17:18:41 +0000";
layers = (
{
layerId = "C17AF255-02ED-42AD-B705-02996A84AD46";
paths = (
{
closed = 1;
nodes = (
"487 0 LINE",
"813 1532 LINE",
"786 1535 OFFCURVE",
"762 1536 OFFCURVE",
"731 1536 CURVE SMOOTH",
"616 1536 OFFCURVE",
"499 1507 OFFCURVE",
"393 1459 CURVE SMOOTH",
"287 1410 OFFCURVE",
"191 1342 OFFCURVE",
"123 1263 CURVE SMOOTH",
"54 1184 OFFCURVE",
"12 1095 OFFCURVE",
"12 1004 CURVE SMOOTH",
"12 929 OFFCURVE",
"32 880 OFFCURVE",
"69 849 CURVE SMOOTH",
"105 818 OFFCURVE",
"160 805 OFFCURVE",
"231 805 CURVE",
"231 809 OFFCURVE",
"230 814 OFFCURVE",
"227 819 CURVE SMOOTH",
"224 824 OFFCURVE",
"220 832 OFFCURVE",
"217 842 CURVE",
"210 861 OFFCURVE",
"203 892 OFFCURVE",
"203 944 CURVE SMOOTH",
"203 1167 OFFCURVE",
"308 1316 OFFCURVE",
"489 1391 CURVE",
"193 0 LINE"
);
},
{
closed = 1;
nodes = (
"530 1661 LINE",
"343 2048 LINE",
"128 2048 LINE",
"417 1661 LINE"
);
},
{
closed = 1;
nodes = (
"861 1661 LINE",
"675 2048 LINE",
"460 2048 LINE",
"749 1661 LINE"
);
}
);
width = 768;
}
);
note = Idblgrave;
unicode = 0208;
},
{
glyphname = Idieresis;
lastChange = "2015-07-03 17:18:40 +0000";
layers = (
{
layerId = "C17AF255-02ED-42AD-B705-02996A84AD46";
paths = (
{
closed = 1;
nodes = (
"487 0 LINE",
"813 1532 LINE",
"786 1535 OFFCURVE",
"762 1536 OFFCURVE",
"731 1536 CURVE SMOOTH",
"616 1536 OFFCURVE",
"499 1507 OFFCURVE",
"393 1459 CURVE SMOOTH",
"287 1410 OFFCURVE",
"191 1342 OFFCURVE",
"123 1263 CURVE SMOOTH",
"54 1184 OFFCURVE",
"12 1095 OFFCURVE",
"12 1004 CURVE SMOOTH",
"12 929 OFFCURVE",
"32 880 OFFCURVE",
"69 849 CURVE SMOOTH",
"105 818 OFFCURVE",
"160 805 OFFCURVE",
"231 805 CURVE",
"231 809 OFFCURVE",
"230 814 OFFCURVE",
"227 819 CURVE SMOOTH",
"224 824 OFFCURVE",
"220 832 OFFCURVE",
"217 842 CURVE",
"210 861 OFFCURVE",
"203 892 OFFCURVE",
"203 944 CURVE SMOOTH",
"203 1167 OFFCURVE",
"308 1316 OFFCURVE",
"489 1391 CURVE",
"193 0 LINE"
);
},
{
closed = 1;
nodes = (
"540 1686 OFFCURVE",
"572 1700 OFFCURVE",
"595 1722 CURVE SMOOTH",
"618 1744 OFFCURVE",
"632 1774 OFFCURVE",
"632 1810 CURVE SMOOTH",
"632 1843 OFFCURVE",
"618 1875 OFFCURVE",
"595 1898 CURVE SMOOTH",
"572 1921 OFFCURVE",
"540 1935 OFFCURVE",
"507 1935 CURVE SMOOTH",
"471 1935 OFFCURVE",
"440 1921 OFFCURVE",
"418 1898 CURVE SMOOTH",
"396 1875 OFFCURVE",
"382 1843 OFFCURVE",
"382 1810 CURVE SMOOTH",
"382 1774 OFFCURVE",
"396 1744 OFFCURVE",
"418 1722 CURVE SMOOTH",
"440 1700 OFFCURVE",
"471 1686 OFFCURVE",
"507 1686 CURVE SMOOTH"
);
},
{
closed = 1;
nodes = (
"909 1686 OFFCURVE",
"940 1700 OFFCURVE",
"964 1722 CURVE SMOOTH",
"987 1744 OFFCURVE",
"1001 1774 OFFCURVE",
"1001 1810 CURVE SMOOTH",
"1001 1843 OFFCURVE",
"987 1875 OFFCURVE",
"964 1898 CURVE SMOOTH",
"940 1921 OFFCURVE",
"909 1935 OFFCURVE",
"876 1935 CURVE SMOOTH",
"840 1935 OFFCURVE",
"809 1921 OFFCURVE",
"787 1898 CURVE SMOOTH",
"765 1875 OFFCURVE",
"751 1843 OFFCURVE",
"751 1810 CURVE SMOOTH",
"751 1774 OFFCURVE",
"765 1744 OFFCURVE",
"787 1722 CURVE SMOOTH",
"809 1700 OFFCURVE",
"840 1686 OFFCURVE",
"876 1686 CURVE SMOOTH"
);
}
);
width = 768;
}
);
note = Idieresis;
unicode = 00CF;
},
{
glyphname = Idotaccent;
lastChange = "2015-07-03 17:18:38 +0000";
layers = (
{
layerId = "C17AF255-02ED-42AD-B705-02996A84AD46";
paths = (
{
closed = 1;
nodes = (
"487 0 LINE",
"813 1532 LINE",
"786 1535 OFFCURVE",
"762 1536 OFFCURVE",
"731 1536 CURVE SMOOTH",
"616 1536 OFFCURVE",
"499 1507 OFFCURVE",
"393 1459 CURVE SMOOTH",
"287 1410 OFFCURVE",
"191 1342 OFFCURVE",
"123 1263 CURVE SMOOTH",
"54 1184 OFFCURVE",
"12 1095 OFFCURVE",
"12 1004 CURVE SMOOTH",
"12 929 OFFCURVE",
"32 880 OFFCURVE",
"69 849 CURVE SMOOTH",
"105 818 OFFCURVE",
"160 805 OFFCURVE",
"231 805 CURVE",
"231 809 OFFCURVE",
"230 814 OFFCURVE",
"227 819 CURVE SMOOTH",
"224 824 OFFCURVE",
"220 832 OFFCURVE",
"217 842 CURVE",
"210 861 OFFCURVE",
"203 892 OFFCURVE",
"203 944 CURVE SMOOTH",
"203 1167 OFFCURVE",
"308 1316 OFFCURVE",
"489 1391 CURVE",
"193 0 LINE"
);
},
{
closed = 1;
nodes = (
"776 1683 OFFCURVE",
"817 1701 OFFCURVE",
"847 1730 CURVE SMOOTH",
"877 1758 OFFCURVE",
"895 1799 OFFCURVE",
"895 1844 CURVE SMOOTH",
"895 1889 OFFCURVE",
"877 1931 OFFCURVE",
"847 1960 CURVE SMOOTH",
"817 1989 OFFCURVE",
"776 2008 OFFCURVE",
"731 2008 CURVE SMOOTH",
"686 2008 OFFCURVE",
"645 1989 OFFCURVE",
"616 1960 CURVE SMOOTH",
"587 1931 OFFCURVE",
"569 1889 OFFCURVE",
"569 1844 CURVE SMOOTH",
"569 1799 OFFCURVE",
"587 1758 OFFCURVE",
"616 1730 CURVE SMOOTH",
"645 1701 OFFCURVE",
"686 1683 OFFCURVE",
"731 1683 CURVE SMOOTH"
);
}
);
width = 768;
}
);
note = Idotaccent;
unicode = 0130;
},
{
glyphname = Idotbelow;
lastChange = "2015-07-03 17:18:39 +0000";
layers = (
{
layerId = "C17AF255-02ED-42AD-B705-02996A84AD46";
paths = (
{
closed = 1;
nodes = (
"487 0 LINE",
"813 1532 LINE",
"786 1535 OFFCURVE",
"762 1536 OFFCURVE",
"731 1536 CURVE SMOOTH",
"616 1536 OFFCURVE",
"499 1507 OFFCURVE",
"393 1459 CURVE SMOOTH",
"287 1410 OFFCURVE",
"191 1342 OFFCURVE",
"123 1263 CURVE SMOOTH",
"54 1184 OFFCURVE",
"12 1095 OFFCURVE",
"12 1004 CURVE SMOOTH",
"12 929 OFFCURVE",
"32 880 OFFCURVE",
"69 849 CURVE SMOOTH",
"105 818 OFFCURVE",
"160 805 OFFCURVE",
"231 805 CURVE",
"231 809 OFFCURVE",
"230 814 OFFCURVE",
"227 819 CURVE SMOOTH",
"224 824 OFFCURVE",
"220 832 OFFCURVE",
"217 842 CURVE",
"210 861 OFFCURVE",
"203 892 OFFCURVE",
"203 944 CURVE SMOOTH",
"203 1167 OFFCURVE",
"308 1316 OFFCURVE",
"489 1391 CURVE",
"193 0 LINE"
);
},
{
closed = 1;
nodes = (
"327 -473 OFFCURVE",
"368 -455 OFFCURVE",
"398 -426 CURVE SMOOTH",
"428 -397 OFFCURVE",
"446 -356 OFFCURVE",
"446 -311 CURVE SMOOTH",
"446 -266 OFFCURVE",
"428 -225 OFFCURVE",
"398 -195 CURVE SMOOTH",
"368 -165 OFFCURVE",
"327 -147 OFFCURVE",
"282 -147 CURVE SMOOTH",
"237 -147 OFFCURVE",
"196 -165 OFFCURVE",
"167 -195 CURVE SMOOTH",
"138 -225 OFFCURVE",
"120 -266 OFFCURVE",
"120 -311 CURVE SMOOTH",
"120 -356 OFFCURVE",
"138 -397 OFFCURVE",
"167 -426 CURVE SMOOTH",
"196 -455 OFFCURVE",
"237 -473 OFFCURVE",
"282 -473 CURVE SMOOTH"
);
}
);
width = 768;
}
);
note = Idotbelow;
unicode = 1ECA;
},
{
glyphname = Igrave;
lastChange = "2015-07-03 17:18:39 +0000";
layers = (
{
layerId = "C17AF255-02ED-42AD-B705-02996A84AD46";
paths = (
{
closed = 1;
nodes = (
"487 0 LINE",
"813 1532 LINE",
"786 1535 OFFCURVE",
"762 1536 OFFCURVE",
"731 1536 CURVE SMOOTH",
"616 1536 OFFCURVE",
"499 1507 OFFCURVE",
"393 1459 CURVE SMOOTH",
"287 1410 OFFCURVE",
"191 1342 OFFCURVE",
"123 1263 CURVE SMOOTH",
"54 1184 OFFCURVE",
"12 1095 OFFCURVE",
"12 1004 CURVE SMOOTH",
"12 929 OFFCURVE",
"32 880 OFFCURVE",
"69 849 CURVE SMOOTH",
"105 818 OFFCURVE",
"160 805 OFFCURVE",
"231 805 CURVE",
"231 809 OFFCURVE",
"230 814 OFFCURVE",
"227 819 CURVE SMOOTH",
"224 824 OFFCURVE",
"220 832 OFFCURVE",
"217 842 CURVE",
"210 861 OFFCURVE",
"203 892 OFFCURVE",
"203 944 CURVE SMOOTH",
"203 1167 OFFCURVE",
"308 1316 OFFCURVE",
"489 1391 CURVE",
"193 0 LINE"
);
},
{
closed = 1;
nodes = (
"715 1661 LINE",
"655 2048 LINE",
"440 2048 LINE",
"561 1661 LINE"
);
}
);
width = 768;
}
);
note = Igrave;
unicode = 00CC;
},
{
glyphname = Ihookabove;
lastChange = "2015-07-03 17:18:40 +0000";
layers = (
{
layerId = "C17AF255-02ED-42AD-B705-02996A84AD46";
paths = (
{
closed = 1;
nodes = (
"487 0 LINE",
"813 1532 LINE",
"786 1535 OFFCURVE",
"762 1536 OFFCURVE",
"731 1536 CURVE SMOOTH",
"616 1536 OFFCURVE",
"499 1507 OFFCURVE",
"393 1459 CURVE SMOOTH",
"287 1410 OFFCURVE",
"191 1342 OFFCURVE",
"123 1263 CURVE SMOOTH",
"54 1184 OFFCURVE",
"12 1095 OFFCURVE",
"12 1004 CURVE SMOOTH",
"12 929 OFFCURVE",
"32 880 OFFCURVE",
"69 849 CURVE SMOOTH",
"105 818 OFFCURVE",
"160 805 OFFCURVE",
"231 805 CURVE",
"231 809 OFFCURVE",
"230 814 OFFCURVE",
"227 819 CURVE SMOOTH",
"224 824 OFFCURVE",
"220 832 OFFCURVE",
"217 842 CURVE",
"210 861 OFFCURVE",
"203 892 OFFCURVE",
"203 944 CURVE SMOOTH",
"203 1167 OFFCURVE",
"308 1316 OFFCURVE",
"489 1391 CURVE",
"193 0 LINE"
);
},
{
closed = 1;
nodes = (
"724 1705 LINE",
"788 1710 OFFCURVE",
"842 1731 OFFCURVE",
"880 1762 CURVE SMOOTH",
"918 1793 OFFCURVE",
"940 1835 OFFCURVE",
"940 1883 CURVE SMOOTH",
"940 1931 OFFCURVE",
"919 1973 OFFCURVE",
"881 2002 CURVE SMOOTH",
"843 2030 OFFCURVE",
"789 2047 OFFCURVE",
"728 2047 CURVE SMOOTH",
"653 2047 OFFCURVE",
"575 2026 OFFCURVE",
"528 1997 CURVE",
"582 1911 LINE",
"617 1934 OFFCURVE",
"659 1944 OFFCURVE",
"704 1944 CURVE SMOOTH",
"768 1944 OFFCURVE",
"800 1919 OFFCURVE",
"800 1870 CURVE SMOOTH",
"800 1825 OFFCURVE",
"767 1797 OFFCURVE",
"704 1797 CURVE SMOOTH",
"677 1797 OFFCURVE",
"644 1799 OFFCURVE",
"613 1806 CURVE",
"613 1627 LINE",
"709 1622 LINE"
);
}
);
width = 768;
}
);
note = Ihookabove;
unicode = 1EC8;
},
{
glyphname = Iinvertedbreve;
lastChange = "2015-07-03 17:18:39 +0000";
layers = (
{
layerId = "C17AF255-02ED-42AD-B705-02996A84AD46";
paths = (
{
closed = 1;
nodes = (
"487 0 LINE",
"813 1532 LINE",
"786 1535 OFFCURVE",
"762 1536 OFFCURVE",
"731 1536 CURVE SMOOTH",
"616 1536 OFFCURVE",
"499 1507 OFFCURVE",
"393 1459 CURVE SMOOTH",
"287 1410 OFFCURVE",
"191 1342 OFFCURVE",
"123 1263 CURVE SMOOTH",
"54 1184 OFFCURVE",
"12 1095 OFFCURVE",
"12 1004 CURVE SMOOTH",
"12 929 OFFCURVE",
"32 880 OFFCURVE",
"69 849 CURVE SMOOTH",
"105 818 OFFCURVE",
"160 805 OFFCURVE",
"231 805 CURVE",
"231 809 OFFCURVE",
"230 814 OFFCURVE",
"227 819 CURVE SMOOTH",
"224 824 OFFCURVE",
"220 832 OFFCURVE",
"217 842 CURVE",
"210 861 OFFCURVE",
"203 892 OFFCURVE",
"203 944 CURVE SMOOTH",
"203 1167 OFFCURVE",
"308 1316 OFFCURVE",
"489 1391 CURVE",
"193 0 LINE"
);
},
{
closed = 1;
nodes = (
"449 1683 LINE",
"456 1730 OFFCURVE",
"483 1772 OFFCURVE",
"524 1803 CURVE SMOOTH",
"564 1834 OFFCURVE",
"617 1853 OFFCURVE",
"673 1853 CURVE SMOOTH",
"776 1853 OFFCURVE",
"834 1792 OFFCURVE",
"834 1683 CURVE",
"1017 1683 LINE",
"1017 1868 OFFCURVE",
"909 1966 OFFCURVE",
"705 1966 CURVE SMOOTH",
"594 1966 OFFCURVE",
"492 1936 OFFCURVE",
"415 1885 CURVE SMOOTH",
"338 1833 OFFCURVE",
"285 1763 OFFCURVE",
"273 1683 CURVE"
);
}
);
width = 768;
}
);
note = Iinvertedbreve;
unicode = 020A;
},
{
glyphname = Imacron;
lastChange = "2015-07-03 17:18:39 +0000";
layers = (
{
layerId = "C17AF255-02ED-42AD-B705-02996A84AD46";
paths = (
{
closed = 1;
nodes = (
"487 0 LINE",
"813 1532 LINE",
"786 1535 OFFCURVE",
"762 1536 OFFCURVE",
"731 1536 CURVE SMOOTH",
"616 1536 OFFCURVE",
"499 1507 OFFCURVE",
"393 1459 CURVE SMOOTH",
"287 1410 OFFCURVE",
"191 1342 OFFCURVE",
"123 1263 CURVE SMOOTH",
"54 1184 OFFCURVE",
"12 1095 OFFCURVE",
"12 1004 CURVE SMOOTH",
"12 929 OFFCURVE",
"32 880 OFFCURVE",
"69 849 CURVE SMOOTH",
"105 818 OFFCURVE",
"160 805 OFFCURVE",
"231 805 CURVE",
"231 809 OFFCURVE",
"230 814 OFFCURVE",
"227 819 CURVE SMOOTH",
"224 824 OFFCURVE",
"220 832 OFFCURVE",
"217 842 CURVE",
"210 861 OFFCURVE",
"203 892 OFFCURVE",
"203 944 CURVE SMOOTH",
"203 1167 OFFCURVE",
"308 1316 OFFCURVE",
"489 1391 CURVE",
"193 0 LINE"
);
},
{
closed = 1;
nodes = (
"971 1738 LINE",
"1001 1890 LINE",
"346 1890 LINE",
"313 1738 LINE"
);
}
);
width = 768;
}
);
note = Imacron;
unicode = 012A;
},
{
glyphname = Iogonek;
lastChange = "2015-07-03 17:18:40 +0000";
layers = (
{
layerId = "C17AF255-02ED-42AD-B705-02996A84AD46";
paths = (
{
closed = 1;
nodes = (
"376 -438 OFFCURVE",
"431 -420 OFFCURVE",
"478 -390 CURVE SMOOTH",
"525 -360 OFFCURVE",
"565 -320 OFFCURVE",
"586 -272 CURVE",
"551 -225 LINE",
"506 -276 OFFCURVE",
"455 -305 OFFCURVE",
"404 -305 CURVE SMOOTH",
"336 -305 OFFCURVE",
"291 -256 OFFCURVE",
"291 -180 CURVE SMOOTH",
"291 -107 OFFCURVE",
"324 -40 OFFCURVE",
"377 0 CURVE",
"487 0 LINE",
"813 1532 LINE",
"786 1535 OFFCURVE",
"762 1536 OFFCURVE",
"731 1536 CURVE SMOOTH",
"616 1536 OFFCURVE",
"499 1507 OFFCURVE",
"393 1459 CURVE SMOOTH",
"287 1410 OFFCURVE",
"191 1342 OFFCURVE",
"123 1263 CURVE SMOOTH",
"54 1184 OFFCURVE",
"12 1095 OFFCURVE",
"12 1004 CURVE SMOOTH",
"12 929 OFFCURVE",
"32 880 OFFCURVE",
"69 849 CURVE SMOOTH",
"105 818 OFFCURVE",
"160 805 OFFCURVE",
"231 805 CURVE",
"231 809 OFFCURVE",
"230 814 OFFCURVE",
"227 819 CURVE SMOOTH",
"224 824 OFFCURVE",
"220 832 OFFCURVE",
"217 842 CURVE",
"210 861 OFFCURVE",
"203 892 OFFCURVE",
"203 944 CURVE SMOOTH",
"203 1167 OFFCURVE",
"308 1316 OFFCURVE",
"489 1391 CURVE",
"193 0 LINE",
"272 0 LINE",
"171 -71 OFFCURVE",
"121 -154 OFFCURVE",
"121 -248 CURVE SMOOTH",
"121 -303 OFFCURVE",
"143 -350 OFFCURVE",
"179 -384 CURVE SMOOTH",
"215 -418 OFFCURVE",
"265 -438 OFFCURVE",
"324 -438 CURVE SMOOTH"
);
},
{
closed = 1;
nodes = (
"625 1661 LINE",
"565 2048 LINE",
"350 2048 LINE",
"471 1661 LINE"
);
}
);
width = 768;
}
);
note = Iogonek;
unicode = 012E;
},
{
glyphname = Itilde;
lastChange = "2015-07-03 17:18:39 +0000";
layers = (
{
layerId = "C17AF255-02ED-42AD-B705-02996A84AD46";
paths = (
{
closed = 1;
nodes = (
"487 0 LINE",
"813 1532 LINE",
"786 1535 OFFCURVE",
"762 1536 OFFCURVE",
"731 1536 CURVE SMOOTH",
"616 1536 OFFCURVE",
"499 1507 OFFCURVE",
"393 1459 CURVE SMOOTH",
"287 1410 OFFCURVE",
"191 1342 OFFCURVE",
"123 1263 CURVE SMOOTH",
"54 1184 OFFCURVE",
"12 1095 OFFCURVE",
"12 1004 CURVE SMOOTH",
"12 929 OFFCURVE",
"32 880 OFFCURVE",
"69 849 CURVE SMOOTH",
"105 818 OFFCURVE",
"160 805 OFFCURVE",
"231 805 CURVE",
"231 809 OFFCURVE",
"230 814 OFFCURVE",
"227 819 CURVE SMOOTH",
"224 824 OFFCURVE",
"220 832 OFFCURVE",
"217 842 CURVE",
"210 861 OFFCURVE",
"203 892 OFFCURVE",
"203 944 CURVE SMOOTH",
"203 1167 OFFCURVE",
"308 1316 OFFCURVE",
"489 1391 CURVE",
"193 0 LINE"
);
},
{
closed = 1;
nodes = (
"839 1677 OFFCURVE",
"918 1704 OFFCURVE",
"978 1744 CURVE SMOOTH",
"1038 1783 OFFCURVE",
"1081 1834 OFFCURVE",
"1092 1882 CURVE",
"1080 1884 LINE",
"1049 1853 OFFCURVE",
"1002 1837 OFFCURVE",
"951 1837 CURVE SMOOTH",
"891 1837 OFFCURVE",
"844 1854 OFFCURVE",
"793 1871 CURVE SMOOTH",
"741 1888 OFFCURVE",
"686 1905 OFFCURVE",
"613 1905 CURVE SMOOTH",
"456 1905 OFFCURVE",
"336 1836 OFFCURVE",
"271 1704 CURVE",
"283 1700 LINE",
"322 1735 OFFCURVE",
"367 1753 OFFCURVE",
"418 1753 CURVE SMOOTH",
"475 1753 OFFCURVE",
"527 1734 OFFCURVE",
"582 1715 CURVE SMOOTH",
"637 1696 OFFCURVE",
"694 1677 OFFCURVE",
"762 1677 CURVE SMOOTH"
);
}
);
width = 768;
}
);
note = Itilde;
unicode = 0128;
},
{
glyphname = J;
lastChange = "2015-07-03 17:18:38 +0000";
layers = (
{
layerId = "C17AF255-02ED-42AD-B705-02996A84AD46";
paths = (
{
closed = 1;
nodes = (
"506 -424 OFFCURVE",
"624 -376 OFFCURVE",
"709 -288 CURVE SMOOTH",
"793 -201 OFFCURVE",
"844 -74 OFFCURVE",
"877 82 CURVE SMOOTH",
"1184 1536 LINE",
"1102 1536 LINE SMOOTH",
"987 1536 OFFCURVE",
"870 1507 OFFCURVE",
"764 1459 CURVE SMOOTH",
"658 1410 OFFCURVE",
"562 1342 OFFCURVE",
"494 1263 CURVE SMOOTH",
"425 1184 OFFCURVE",
"383 1095 OFFCURVE",
"383 1004 CURVE SMOOTH",
"383 929 OFFCURVE",
"403 880 OFFCURVE",
"440 849 CURVE SMOOTH",
"476 818 OFFCURVE",
"531 805 OFFCURVE",
"602 805 CURVE",
"602 809 OFFCURVE",
"601 814 OFFCURVE",
"598 819 CURVE SMOOTH",
"595 824 OFFCURVE",
"591 832 OFFCURVE",
"588 842 CURVE",
"580 861 OFFCURVE",
"573 892 OFFCURVE",
"573 944 CURVE SMOOTH",
"573 1165 OFFCURVE",
"682 1318 OFFCURVE",
"862 1393 CURVE",
"541 -70 LINE SMOOTH",
"517 -177 OFFCURVE",
"491 -240 OFFCURVE",
"460 -276 CURVE SMOOTH",
"428 -312 OFFCURVE",
"391 -322 OFFCURVE",
"346 -322 CURVE SMOOTH",
"317 -322 OFFCURVE",
"282 -313 OFFCURVE",
"255 -290 CURVE SMOOTH",
"227 -267 OFFCURVE",
"207 -231 OFFCURVE",
"207 -178 CURVE SMOOTH",
"207 -141 OFFCURVE",
"219 -102 OFFCURVE",
"243 -74 CURVE SMOOTH",
"266 -46 OFFCURVE",
"302 -27 OFFCURVE",
"350 -27 CURVE SMOOTH",
"370 -27 OFFCURVE",
"388 -29 OFFCURVE",
"408 -37 CURVE SMOOTH",
"427 -45 OFFCURVE",
"448 -59 OFFCURVE",
"473 -80 CURVE",
"481 -49 OFFCURVE",
"485 -22 OFFCURVE",
"485 2 CURVE SMOOTH",
"485 67 OFFCURVE",
"456 102 OFFCURVE",
"416 120 CURVE SMOOTH",
"376 138 OFFCURVE",
"326 139 OFFCURVE",
"285 139 CURVE SMOOTH",
"204 139 OFFCURVE",
"142 105 OFFCURVE",
"100 54 CURVE SMOOTH",
"58 3 OFFCURVE",
"35 -66 OFFCURVE",
"35 -135 CURVE SMOOTH",
"35 -222 OFFCURVE",
"61 -293 OFFCURVE",
"113 -344 CURVE SMOOTH",
"164 -395 OFFCURVE",
"239 -424 OFFCURVE",
"338 -424 CURVE SMOOTH"
);
}
);
width = 1098;
}
);
note = J;
unicode = 004A;
},
{
glyphname = Jcircumflex;
lastChange = "2015-07-03 17:18:40 +0000";
layers = (
{
layerId = "C17AF255-02ED-42AD-B705-02996A84AD46";
paths = (
{
closed = 1;
nodes = (
"506 -424 OFFCURVE",
"624 -376 OFFCURVE",
"709 -288 CURVE SMOOTH",
"793 -201 OFFCURVE",
"844 -74 OFFCURVE",
"877 82 CURVE SMOOTH",
"1184 1536 LINE",
"1102 1536 LINE SMOOTH",
"987 1536 OFFCURVE",
"870 1507 OFFCURVE",
"764 1459 CURVE SMOOTH",
"658 1410 OFFCURVE",
"562 1342 OFFCURVE",
"494 1263 CURVE SMOOTH",
"425 1184 OFFCURVE",
"383 1095 OFFCURVE",
"383 1004 CURVE SMOOTH",
"383 929 OFFCURVE",
"403 880 OFFCURVE",
"440 849 CURVE SMOOTH",
"476 818 OFFCURVE",
"531 805 OFFCURVE",
"602 805 CURVE",
"602 809 OFFCURVE",
"601 814 OFFCURVE",
"598 819 CURVE SMOOTH",
"595 824 OFFCURVE",
"591 832 OFFCURVE",
"588 842 CURVE",
"580 861 OFFCURVE",
"573 892 OFFCURVE",
"573 944 CURVE SMOOTH",
"573 1165 OFFCURVE",
"682 1318 OFFCURVE",
"862 1393 CURVE",
"541 -70 LINE SMOOTH",
"517 -177 OFFCURVE",
"491 -240 OFFCURVE",
"460 -276 CURVE SMOOTH",
"428 -312 OFFCURVE",
"391 -322 OFFCURVE",
"346 -322 CURVE SMOOTH",
"317 -322 OFFCURVE",
"282 -313 OFFCURVE",
"255 -290 CURVE SMOOTH",
"227 -267 OFFCURVE",
"207 -231 OFFCURVE",
"207 -178 CURVE SMOOTH",
"207 -141 OFFCURVE",
"219 -102 OFFCURVE",
"243 -74 CURVE SMOOTH",
"266 -46 OFFCURVE",
"302 -27 OFFCURVE",
"350 -27 CURVE SMOOTH",
"370 -27 OFFCURVE",
"388 -29 OFFCURVE",
"408 -37 CURVE SMOOTH",
"427 -45 OFFCURVE",
"448 -59 OFFCURVE",
"473 -80 CURVE",
"481 -49 OFFCURVE",
"485 -22 OFFCURVE",
"485 2 CURVE SMOOTH",
"485 67 OFFCURVE",
"456 102 OFFCURVE",
"416 120 CURVE SMOOTH",
"376 138 OFFCURVE",
"326 139 OFFCURVE",
"285 139 CURVE SMOOTH",
"204 139 OFFCURVE",
"142 105 OFFCURVE",
"100 54 CURVE SMOOTH",
"58 3 OFFCURVE",
"35 -66 OFFCURVE",
"35 -135 CURVE SMOOTH",
"35 -222 OFFCURVE",
"61 -293 OFFCURVE",
"113 -344 CURVE SMOOTH",
"164 -395 OFFCURVE",
"239 -424 OFFCURVE",
"338 -424 CURVE SMOOTH"
);
},
{
closed = 1;
nodes = (
"801 1661 LINE",
"1123 1825 LINE",
"1246 1661 LINE",
"1311 1661 LINE",
"1188 2048 LINE",
"1145 2048 LINE",
"711 1661 LINE"
);
}
);
width = 1098;
}
);
note = Jcircumflex;
unicode = 0134;
},
{
glyphname = K;
lastChange = "2015-07-03 17:18:40 +0000";
layers = (
{
layerId = "C17AF255-02ED-42AD-B705-02996A84AD46";
paths = (
{
closed = 1;
nodes = (
"942 -35 OFFCURVE",
"1008 -25 OFFCURVE",
"1096 0 CURVE",
"1047 19 OFFCURVE",
"1016 71 OFFCURVE",
"1016 135 CURVE SMOOTH",
"1016 200 OFFCURVE",
"1041 287 OFFCURVE",
"1066 379 CURVE SMOOTH",
"1091 471 OFFCURVE",
"1116 568 OFFCURVE",
"1116 653 CURVE SMOOTH",
"1116 716 OFFCURVE",
"1103 770 OFFCURVE",
"1064 810 CURVE SMOOTH",
"1025 849 OFFCURVE",
"962 872 OFFCURVE",
"862 872 CURVE SMOOTH",
"851 872 OFFCURVE",
"839 872 OFFCURVE",
"828 871 CURVE SMOOTH",
"817 870 OFFCURVE",
"804 870 OFFCURVE",
"791 870 CURVE",
"1360 1526 LINE",
"1145 1526 LINE",
"1145 1526 OFFCURVE",
"1140 1520 OFFCURVE",
"1130 1507 CURVE SMOOTH",
"1120 1494 OFFCURVE",
"1107 1477 OFFCURVE",
"1090 1455 CURVE SMOOTH",
"1073 1432 OFFCURVE",
"1054 1406 OFFCURVE",
"1032 1377 CURVE SMOOTH",
"1009 1347 OFFCURVE",
"986 1315 OFFCURVE",
"961 1282 CURVE SMOOTH",
"936 1248 OFFCURVE",
"911 1214 OFFCURVE",
"885 1179 CURVE SMOOTH",
"832 1109 OFFCURVE",
"781 1041 OFFCURVE",
"738 982 CURVE SMOOTH",
"716 953 OFFCURVE",
"697 927 OFFCURVE",
"680 905 CURVE",
"813 1532 LINE",
"786 1535 OFFCURVE",
"762 1536 OFFCURVE",
"731 1536 CURVE SMOOTH",
"616 1536 OFFCURVE",
"499 1507 OFFCURVE",
"393 1459 CURVE SMOOTH",
"287 1410 OFFCURVE",
"191 1342 OFFCURVE",
"123 1263 CURVE SMOOTH",
"54 1184 OFFCURVE",
"12 1095 OFFCURVE",
"12 1004 CURVE SMOOTH",
"12 929 OFFCURVE",
"32 880 OFFCURVE",
"69 849 CURVE SMOOTH",
"105 818 OFFCURVE",
"160 805 OFFCURVE",
"231 805 CURVE",
"231 809 OFFCURVE",
"230 814 OFFCURVE",
"227 819 CURVE SMOOTH",
"224 824 OFFCURVE",
"220 832 OFFCURVE",
"217 842 CURVE",
"210 861 OFFCURVE",
"203 892 OFFCURVE",
"203 944 CURVE SMOOTH",
"203 1164 OFFCURVE",
"308 1317 OFFCURVE",
"489 1393 CURVE",
"193 0 LINE",
"487 0 LINE",
"651 772 LINE",
"676 779 OFFCURVE",
"700 780 OFFCURVE",
"719 780 CURVE SMOOTH",
"764 780 OFFCURVE",
"796 766 OFFCURVE",
"815 742 CURVE SMOOTH",
"834 717 OFFCURVE",
"842 682 OFFCURVE",
"842 641 CURVE SMOOTH",
"842 562 OFFCURVE",
"815 463 OFFCURVE",
"788 365 CURVE SMOOTH",
"760 267 OFFCURVE",
"733 171 OFFCURVE",
"733 102 CURVE SMOOTH",
"733 70 OFFCURVE",
"740 36 OFFCURVE",
"764 10 CURVE SMOOTH",
"787 -16 OFFCURVE",
"826 -35 OFFCURVE",
"893 -35 CURVE SMOOTH"
);
}
);
width = 1231;
}
);
note = K;
unicode = 004B;
},
